<svg width="1743" height="570" fill="none" xmlns="http://www.w3.org/2000/svg"><path fill="#1A2A60" d="M0 214h1550v486H0z"/><path fill="#1F5080" d="M0 228h1654v75H0z"/><path fill="#30709B" d="M0 228h1654v-26H0z"/><path fill="#3998B7" d="M-44 180H998v22H-44z"/><path fill="#031835" d="M0 305h1654v35H0z"/><path d="M1047 165 899 745l800 24c-42.67-194.667-132.8-588-152-604-19.2-16-66.67-33.333-88-40h-328c-44.8 0-74.67 26.667-84 40Z" fill="#34689B"/><path d="M1069 170 921 750l800 24c-42.67-194.667-132.8-588-152-604-19.2-16-66.67-33.333-88-40h-328c-44.8 0-74.67 26.667-84 40Z" fill="#1F5080"/><path d="M1091 176 943 756l800 24c-42.67-194.667-132.8-588-152-604-19.2-16-66.67-33.333-88-40h-328c-44.8 0-74.67 26.667-84 40Z" fill="#031835"/><path fill="#3998B7" d="M54 0h166v202H54z"/><path fill="#3998B7" d="M173 38h81v20h-81zM236 112h18V58h-18z"/><path fill="#3998B7" d="M206 122h48v-19h-48z"/><path fill="#40AEB7" d="M54 0h166v6H54zM220 38h34v6h-34z"/><path fill="#40AEB7" d="M251 38h3v84h-3zM220 58h3v45h-3zM220 122h3v58h-3z"/><circle opacity=".33" cx="137.5" cy="94.5" r="35.5" fill="#40AEB7"/><path fill-rule="evenodd" clip-rule="evenodd" d="M152.709 105.002a3.659 3.659 0 0 1-3.659 3.659h-9.617v23.68a3.659 3.659 0 1 1-7.318 0v-24.109c0-1.417.19-3.587 1.891-5.188 1.63-1.535 3.775-1.702 5.24-1.702h9.804a3.66 3.66 0 0 1 3.659 3.66ZM152.709 76.808a3.66 3.66 0 0 1-3.659 3.66h-9.617v10.4a3.66 3.66 0 1 1-7.318 0V79.633c0-1.128.03-3.531 1.956-5.134.92-.765 1.94-1.06 2.707-1.195.756-.133 1.552-.157 2.264-.157h10.008a3.66 3.66 0 0 1 3.659 3.66Zm-14.679 3.708Z" fill="#347B9E"/><path fill-rule="evenodd" clip-rule="evenodd" d="M163.154 62.66a3.66 3.66 0 0 1-3.66 3.659h-32.865c-.546 0-.976.026-1.309.064l.067 60.035a3.66 3.66 0 0 1-7.319.009L118 64.997l.004-.09c.04-.833.25-1.772.792-2.678.547-.914 1.314-1.597 2.173-2.08 1.592-.893 3.583-1.149 5.66-1.149h32.865a3.66 3.66 0 0 1 3.66 3.66Z" fill="#347B9E"/><path fill-rule="evenodd" clip-rule="evenodd" d="M157.259 90.867a3.66 3.66 0 0 1-3.66 3.66h-32.326v-7.32h32.326a3.66 3.66 0 0 1 3.66 3.66Z" fill="#347B9E"/></svg>