<svg width="540" height="1700" fill="none" xmlns="http://www.w3.org/2000/svg"><path fill="#0E2556" d="M65 0h475v208H65z"/><path fill="#347B9E" d="M0 0h65v1700H0z"/><path fill="#399CB4" d="M0 0h10v1700H0z"/><path fill="#347B9E" d="M116 350h444v60H116zM116 670h444v60H116zM116 990h444v60H116z"/><path fill="#0E2556" d="M166 410h444v60H166zM166 730h444v60H166zM166 1050h444v60H166z"/><path fill="#347B9E" d="M116 1457h444v60H116z"/><path fill="#0E2556" d="M166 1517h444v60H166z"/><path fill="#389DB4" d="M238 256h100v94H238z"/><path fill="#56AEC2" d="M366 162h50v188h-50zM370 1269h50v188h-50z"/><path fill="#389DB4" d="M444 182h56v168h-56z"/><circle cx="288.5" cy="302.5" r="33.5" fill="#347B9E"/><path fill="#6AC1D5" d="M147 323h171v27H147z"/><path fill="#6AC1D5" d="M147 323h171v27H147z"/><path fill="#6AC1D5" d="M147 303h91v27h-91z"/><path fill="#3F9EB4" d="M147 303h91v27h-91z"/><path fill="#347B9E" d="M444 198h51v19h-51zM444 308h51v19h-51z"/><path fill="#56AEC2" d="M329 496h191v174H329z"/><path fill="#347B9E" d="M352 521h142v127H352z"/><path d="M380.928 564v-17.76h3.744V564h-3.744Zm-4.32 0v-3.024h12.432V564h-12.432Zm1.68-14.736v-3.024h4.512v3.024h-4.512ZM397.257 564v-13.344h3.744V564h-3.744Zm-4.32 0v-3.024h12.432V564h-12.432Zm1.68-10.32v-3.024h4.512v3.024h-4.512Zm2.496-4.8v-3.504h3.984v3.504h-3.984ZM413.299 564l-4.752-13.344h3.912l2.232 6.768.816 3.312.864-3.312 2.184-6.768h3.792L417.619 564h-4.32Zm18.609.288c-1.44 0-2.68-.28-3.72-.84a5.821 5.821 0 0 1-2.376-2.4c-.56-1.04-.84-2.28-.84-3.72 0-1.456.28-2.704.84-3.744a5.607 5.607 0 0 1 2.424-2.376c1.072-.56 2.36-.84 3.864-.84 2.352 0 4.056.672 5.112 2.016 1.072 1.328 1.52 3.16 1.344 5.496h-10.608l.024-2.568h6.768a1.938 1.938 0 0 0-.816-1.464c-.496-.384-1.112-.576-1.848-.576-1.152 0-2 .36-2.544 1.08-.544.72-.816 1.768-.816 3.144 0 .688.12 1.32.36 1.896a3.3 3.3 0 0 0 1.056 1.392c.48.336 1.072.504 1.776.504.752 0 1.384-.184 1.896-.552.528-.368.848-.832.96-1.392h3.744c-.16 1.52-.832 2.728-2.016 3.624-1.168.88-2.696 1.32-4.584 1.32ZM380.928 595v-17.76h3.744V595h-3.744Zm-4.32 0v-3.024h12.432V595h-12.432Zm1.68-14.736v-3.024h4.512v3.024h-4.512ZM401.721 595l-.12-2.4v-6.576c0-.624-.232-1.112-.696-1.464-.464-.368-1.104-.552-1.92-.552-.784 0-1.424.168-1.92.504-.48.32-.76.776-.84 1.368h-3.624c.08-.944.4-1.752.96-2.424.56-.672 1.312-1.184 2.256-1.536.96-.368 2.072-.552 3.336-.552 1.248 0 2.336.192 3.264.576.928.368 1.64.92 2.136 1.656.512.72.768 1.608.768 2.664V595h-3.6Zm-4.272.288c-.88 0-1.656-.168-2.328-.504a3.883 3.883 0 0 1-1.56-1.44c-.368-.608-.552-1.296-.552-2.064 0-1.376.528-2.44 1.584-3.192 1.072-.768 2.544-1.152 4.416-1.152h2.952v2.592l-3.048.024c-.688 0-1.24.128-1.656.384-.4.24-.6.608-.6 1.104 0 .352.144.656.432.912.304.256.728.384 1.272.384.752 0 1.416-.184 1.992-.552a4.578 4.578 0 0 0 1.464-1.56l.408 2.52c-.4.88-1.016 1.528-1.848 1.944-.816.4-1.792.6-2.928.6Zm15.178-13.632v8.232c0 .688.176 1.24.528 1.656.352.416.816.624 1.392.624.656 0 1.256-.216 1.8-.648.56-.448 1.144-1.208 1.752-2.28l.528 3.168c-.608 1.04-1.344 1.784-2.208 2.232-.864.432-1.744.648-2.64.648-1.024 0-1.904-.216-2.64-.648a4.45 4.45 0 0 1-1.68-1.8c-.384-.768-.576-1.672-.576-2.712v-8.472h3.744Zm8.904 0V595h-3.624l-.12-2.376v-10.968h3.744Zm13.185 1.392.072-1.392h3.6v11.568c0 2.064-.56 3.632-1.68 4.704-1.104 1.088-2.84 1.632-5.208 1.632-1.264 0-2.36-.16-3.288-.48-.912-.304-1.624-.776-2.136-1.416-.496-.624-.752-1.416-.768-2.376h3.936c.08.448.312.768.696.96.4.192 1 .288 1.8.288.992 0 1.72-.264 2.184-.792.48-.512.72-1.224.72-2.136v-.792a4.573 4.573 0 0 1-1.632 1.224 4.866 4.866 0 0 1-2.064.432c-1.12 0-2.112-.288-2.976-.864-.864-.592-1.544-1.384-2.04-2.376s-.744-2.08-.744-3.264c0-1.376.264-2.552.792-3.528.528-.992 1.248-1.744 2.16-2.256.912-.528 1.928-.792 3.048-.792.72 0 1.384.152 1.992.456.608.304 1.12.704 1.536 1.2Zm-2.808 8.544c.64 0 1.2-.216 1.68-.648.496-.432.848-.992 1.056-1.68v-2.688c-.208-.704-.56-1.264-1.056-1.68a2.486 2.486 0 0 0-1.68-.624c-.576 0-1.088.168-1.536.504-.448.32-.8.752-1.056 1.296s-.384 1.152-.384 1.824c0 .672.128 1.288.384 1.848s.608 1.008 1.056 1.344c.448.336.96.504 1.536.504ZM450.733 595v-8.208c0-.704-.176-1.264-.528-1.68-.352-.416-.816-.624-1.392-.624-.656 0-1.264.224-1.824.672-.544.432-1.12 1.184-1.728 2.256l-.528-3.144c.608-1.056 1.344-1.8 2.208-2.232.864-.448 1.744-.672 2.64-.672 1.024 0 1.896.216 2.616.648a4.214 4.214 0 0 1 1.68 1.824c.4.768.6 1.672.6 2.712V595h-3.744Zm-8.904 0v-17.784h3.744V595h-3.744Zm-60.901 31v-17.76h3.744V626h-3.744Zm-4.32 0v-3.024h12.432V626h-12.432Zm1.68-14.736v-3.024h4.512v3.024h-4.512Zm20.913 15.024c-1.232 0-2.352-.24-3.36-.72a5.691 5.691 0 0 1-2.376-2.136c-.576-.928-.832-2.048-.768-3.36h3.912c-.032.576.056 1.088.264 1.536.208.432.512.768.912 1.008s.872.36 1.416.36c.704 0 1.272-.176 1.704-.528a1.75 1.75 0 0 0 .672-1.416c0-.464-.128-.84-.384-1.128-.24-.288-.576-.496-1.008-.624a4.701 4.701 0 0 0-1.488-.216h-.84v-3.24h.888c.448 0 .84-.08 1.176-.24.336-.176.592-.408.768-.696.192-.304.288-.632.288-.984 0-.56-.176-.976-.528-1.248-.352-.288-.808-.432-1.368-.432-.72 0-1.296.224-1.728.672-.416.432-.608 1.008-.576 1.728h-3.912c0-1.168.272-2.168.816-3a5.615 5.615 0 0 1 2.256-1.968c.96-.464 2.032-.696 3.216-.696 1.216 0 2.256.192 3.12.576.88.368 1.552.888 2.016 1.56.48.672.72 1.472.72 2.4a3.86 3.86 0 0 1-.336 1.608c-.208.48-.504.896-.888 1.248a4.21 4.21 0 0 1-1.296.84c.656.144 1.216.408 1.68.792.48.384.848.848 1.104 1.392.256.544.384 1.128.384 1.752 0 1.008-.264 1.904-.792 2.688-.512.768-1.256 1.376-2.232 1.824-.96.432-2.104.648-3.432.648Zm16.33 0c-1.232 0-2.352-.24-3.36-.72a5.691 5.691 0 0 1-2.376-2.136c-.576-.928-.832-2.048-.768-3.36h3.912c-.032.576.056 1.088.264 1.536.208.432.512.768.912 1.008s.872.36 1.416.36c.704 0 1.272-.176 1.704-.528a1.75 1.75 0 0 0 .672-1.416c0-.464-.128-.84-.384-1.128-.24-.288-.576-.496-1.008-.624a4.701 4.701 0 0 0-1.488-.216h-.84v-3.24h.888c.448 0 .84-.08 1.176-.24.336-.176.592-.408.768-.696.192-.304.288-.632.288-.984 0-.56-.176-.976-.528-1.248-.352-.288-.808-.432-1.368-.432-.72 0-1.296.224-1.728.672-.416.432-.608 1.008-.576 1.728h-3.912c0-1.168.272-2.168.816-3a5.615 5.615 0 0 1 2.256-1.968c.96-.464 2.032-.696 3.216-.696 1.216 0 2.256.192 3.12.576.88.368 1.552.888 2.016 1.56.48.672.72 1.472.72 2.4a3.86 3.86 0 0 1-.336 1.608c-.208.48-.504.896-.888 1.248a4.21 4.21 0 0 1-1.296.84c.656.144 1.216.408 1.68.792.48.384.848.848 1.104 1.392.256.544.384 1.128.384 1.752 0 1.008-.264 1.904-.792 2.688-.512.768-1.256 1.376-2.232 1.824-.96.432-2.104.648-3.432.648Zm17.337-.288c-.896 0-1.688-.2-2.376-.6a4.223 4.223 0 0 1-1.56-1.704c-.368-.736-.552-1.568-.552-2.496v-10.776l3.744-1.68V621.2c0 .416.056.76.168 1.032.128.256.352.448.672.576.336.112.8.168 1.392.168h3.384V626h-4.872Zm-7.128-10.32v-3.024h9.624v3.024h-9.624Z" fill="#1B3162"/><path fill="#389DB4" d="M179 625h113v45H179z"/><path d="m160 599 39.5 35.5 25.5 30 59.5-34.5-9.5-11 26.5-17.5h-23l23-29.5-38.5 14v-42l-30 24.5-21-18 8.5 29.5-39.5-18 9.5 37H160Z" fill="#389DB4"/><path fill="#347B9E" d="M179 625h113v12H179z"/><path fill="#389DB4" d="M162 784h70v206h-70zM303 830h51v160h-51zM383 784h33v206h-33zM433 784h33v206h-33zM483 784h33v206h-33z"/><circle opacity=".4" cx="198" cy="829" r="16" fill="#1F5080"/><circle opacity=".4" cx="198" cy="951" r="16" fill="#1F5080"/><path fill="#347B9E" d="M303 846h51v41h-51zM383 801h33v13h-33zM433 801h33v13h-33zM483 801h33v13h-33zM383 926h33v43h-33zM433 926h33v43h-33zM483 926h33v43h-33z"/><path fill="#389DB4" d="M225 1297h51v160h-51z"/><path fill="#347B9E" d="M225 1313h51v41h-51z"/><path fill="#389DB4" d="M444 1297h51v160h-51z"/><path fill="#347B9E" d="M444 1313h51v41h-51z"/><path fill="#389DB4" d="M292 1297h51v160h-51z"/><path fill="#347B9E" d="M292 1313h51v41h-51z"/></svg>