<svg width="510" height="400" xmlns="http://www.w3.org/2000/svg"><g id="Page-1" stroke="none" stroke-width="1" fill="none" fill-rule="evenodd"><g id="noun-beef-3017514" transform="translate(.321 .512)" fill="#000" fill-rule="nonzero"><g id="Group"><path d="M507.639 183.918a171.42 171.42 0 0 0 1.664-31.414c0-.96-5.336-95.113-84.961-136.32-32.023-16.539-85.488-28.789-158.29 6.914a113.727 113.727 0 0 0-37.012 27.648 124.743 124.743 0 0 1-28.438 23.188c-37.711 23.102-70.613 25.023-99.664 26.773-29.051 1.75-57.312 3.414-78.75 28.438A93.908 93.908 0 0 0 1.8 179.286s-.438.875-.524 1.313a120.518 120.518 0 0 0 0 35v34.387a148.656 148.656 0 0 0 16.012 63.262c23.801 45.062 66.938 62.039 110.16 73.676h-.004a458.6 458.6 0 0 0 116.38 12.074h2.887c65.188 0 138.86-6.125 194.16-48.738 33.336-25.727 71.312-63.438 68.336-127.14v-32.551h.004c.098-2.32-.45-4.621-1.578-6.649l.005-.002Zm-465.15-37.977c13.914-16.449 33.25-17.5 60.023-19.164 30.539-1.836 68.512-4.113 111.74-30.625v.004a148.756 148.756 0 0 0 33.777-27.477 87.478 87.478 0 0 1 29.574-21.961c50.574-24.852 96.25-27.301 134.66-7.262 65.977 34.125 70.699 113.75 70.789 114.27h-.004a136.255 136.255 0 0 1-2.887 35c-.187.692-.336 1.39-.437 2.098a152.257 152.257 0 0 1-54.863 86.453c-49.875 38.414-119.44 43.75-180.95 43.227v-.004a433.569 433.569 0 0 1-109.73-11.199c-37.012-10.238-74.637-24.5-93.711-60.812-16.012-30.363-19.688-77 2.011-102.55l.008.002Zm382.38 183.75c-49.875 38.5-119.52 43.75-180.95 43.312a437.554 437.554 0 0 1-109.73-11.199c-37.012-10.324-74.637-24.586-93.711-60.812a100.184 100.184 0 0 1-6.215-14c32.289 35 93.887 63.352 210 59.762h2.976c65.102 0 138.43-6.21 193.64-48.738a173.365 173.365 0 0 0 39.465-42.875c-6.3 26.863-23.715 49.875-55.477 74.29l.002.26Z" id="Shape"/><path d="M77.749 222.498a95.416 95.416 0 0 0 25.199 37.102 135.89 135.89 0 0 0 80.676 29.488 68.789 68.789 0 0 0 21.09-3.062 44.706 44.706 0 0 0 31.41-35 82.202 82.202 0 0 0-3.063-37.016l-10.852-42.79.004.005a48.847 48.847 0 0 0-11.289-24.238c-16.188-16.012-41.3-8.75-50.75-5.512L109.6 156.873a58.31 58.31 0 0 0-22.402 10.938c-16.188 14.262-15.312 37.539-8.75 54.602l-.7.085Zm26.25-35a37.97 37.97 0 0 1 12.863-5.512l50.312-15.312c4.898-1.398 19.602-5.949 24.676-.96a30.417 30.417 0 0 1 4.722 11.897l10.762 42.79h.004a58.447 58.447 0 0 1 2.797 25.198 18.819 18.819 0 0 1-4.523 9.54 18.812 18.812 0 0 1-8.95 5.597c-21.698 6.914-61.25-7.613-75.948-20.824a68.511 68.511 0 0 1-18.29-26.426c-3.238-8.836-4.113-20.738 1.75-25.898l-.175-.09ZM289.069 201.68h3.5a56.112 56.112 0 0 0 31.59-14.615c3.586-3.062 6.914-6.3 10.238-9.625 3.324-3.324 6.386-6.21 9.625-8.75h-.004a72.373 72.373 0 0 1 54.25-15.312h3.59a29.915 29.915 0 0 0 17.168-.34 29.937 29.937 0 0 0 14.156-9.722 42.87 42.87 0 0 0 2.363-45.148 94.95 94.95 0 0 0-81.027-51.715 115.425 115.425 0 0 0-87.5 37.977 90.921 90.921 0 0 0-24.848 49.96 72.083 72.083 0 0 0 17.5 54.25 39.63 39.63 0 0 0 29.398 13.04Zm-20.477-64.053h.004a66.736 66.736 0 0 1 18.109-35 88.832 88.832 0 0 1 64.227-29.926h2.8a67.723 67.723 0 0 1 58.449 36.75 18.547 18.547 0 0 1 .7 17.5c-.16.27-.368.508-.614.703a24.758 24.758 0 0 1-6.21-.527l-4.29-.524a98.588 98.588 0 0 0-74.023 21.176c-4.113 3.325-7.699 6.915-11.289 10.414-3.586 3.5-5.773 5.688-8.75 8.313v-.004a31.289 31.289 0 0 1-16.887 8.75 12.95 12.95 0 0 1-11.199-4.812 45.846 45.846 0 0 1-11.023-32.812h-.004ZM422.329 171.578c-11.988-6.039-28.352.875-43.75 8.137v.004a251.15 251.15 0 0 0-30.012 17.5c-17.5 11.637-36.664 22.75-55.125 20.21h-1.313a28.08 28.08 0 0 0-19.688 2.364 28.618 28.618 0 0 0-11.988 24.938c-.523 9.977-1.574 33.426 16.273 44.887h.004a38.72 38.72 0 0 0 21.176 5.336 87.355 87.355 0 0 0 8.75-.524 260.555 260.555 0 0 0 60.461-10.676 105.033 105.033 0 0 0 53.727-37.535 75.009 75.009 0 0 0 13.562-36.488c2.45-20.125-1.84-32.988-12.078-38.152Zm-13.477 35.961.004.004a49.167 49.167 0 0 1-8.75 23.711 80.648 80.648 0 0 1-40.426 27.824 245.093 245.093 0 0 1-54.426 9.453 28.36 28.36 0 0 1-13.824-.875c-5.075-3.238-4.461-17.062-4.29-21.523v-2.8h2.977c27.387 3.85 52.5-10.5 73.852-24.763v-.004a219.036 219.036 0 0 1 26.95-16.012 92.22 92.22 0 0 1 18.022-7.085 50.548 50.548 0 0 1-.086 12.074l-.003-.004Z" id="Shape"/></g></g></g></svg>