<?xml version="1.0" encoding="UTF-8"?>
<svg width="510px" height="400px" viewBox="0 0 510 400" version="1.1" xmlns="http://www.w3.org/2000/svg" xmlns:xlink="http://www.w3.org/1999/xlink">
    <title>Group</title>
    <g id="Page-1" stroke="none" stroke-width="1" fill="none" fill-rule="evenodd">
        <g id="noun-beef-3017514" transform="translate(0.321335, 0.511874)" fill="#000000" fill-rule="nonzero">
            <g id="Group" transform="translate(0.000000, -0.000000)">
                <path d="M507.638665,183.918126 C509.154265,173.520126 509.712865,163.004126 509.302765,152.504126 C509.302765,151.543186 503.966865,57.3911264 424.341765,16.1841264 C392.318765,-0.354873584 338.853765,-12.6048736 266.051765,23.0982264 C251.953765,29.6841264 239.356765,39.0942264 229.039765,50.7462264 C220.754565,59.8360264 211.172765,67.6482264 200.601765,73.9342264 C162.890765,97.0362264 129.988765,98.9572264 100.937765,100.707226 C71.886765,102.457226 43.625765,104.121326 22.187765,129.145226 C10.617765,143.497226 3.527765,160.934226 1.800765,179.286226 C1.800765,179.286226 1.363265,180.161226 1.277325,180.598726 C-0.425775,192.200726 -0.425775,203.993726 1.277325,215.598726 L1.277325,249.985726 C1.863265,271.997726 7.332025,293.606726 17.289325,313.247726 C41.090325,358.309726 84.227325,375.286726 127.449325,386.923726 L127.445419,386.923726 C165.562419,395.900326 204.672419,399.958726 243.825419,398.997726 L246.712119,398.997726 C311.900119,398.997726 385.572119,392.872726 440.872119,350.259726 C474.208119,324.532726 512.184119,286.821726 509.208119,223.119726 L509.208119,190.568726 L509.212025,190.568726 C509.309682,188.248426 508.762805,185.947626 507.633925,183.920326 L507.638665,183.918126 Z M42.488665,145.941126 C56.402665,129.492126 75.738665,128.441126 102.511665,126.777126 C133.050665,124.941226 171.023665,122.663826 214.251665,96.1521264 L214.251665,96.1560324 C226.798665,88.7029324 238.177665,79.4450324 248.028665,68.6790324 C256.216165,59.3431324 266.298665,51.8550324 277.602665,46.7180324 C328.176665,21.8660324 373.852665,19.4170324 412.262665,39.4563324 C478.239665,73.5813324 482.961665,153.206332 483.051665,153.726332 L483.047759,153.726332 C483.598539,165.468332 482.629789,177.234332 480.161059,188.726332 C479.973559,189.417742 479.825119,190.116932 479.723559,190.824032 C471.965759,225.113032 452.578559,255.656032 424.860559,277.277032 C374.985559,315.691032 305.420559,321.027032 243.910559,320.504032 L243.910559,320.500126 C207.008559,321.453246 170.133559,317.691526 134.180559,309.301126 C97.168559,299.063126 59.543559,284.801126 40.469559,248.489126 C24.457559,218.126126 20.781559,171.489126 42.481259,145.939126 L42.488665,145.941126 Z M424.868665,329.691126 C374.993665,368.191126 305.348665,373.441126 243.918665,373.003126 C207.016665,373.913286 170.148665,370.151526 134.188665,361.804126 C97.176665,351.480126 59.551665,337.218126 40.477665,300.992126 C38.051865,296.492126 35.973765,291.808526 34.262865,286.992126 C66.551865,321.992126 128.149865,350.344126 244.262865,346.754126 L247.239465,346.754126 C312.341465,346.754126 385.669465,340.543226 440.879465,298.016126 C456.359465,286.055126 469.699465,271.559126 480.344465,255.141126 C474.043665,282.004126 456.629465,305.016126 424.867465,329.430126 L424.868665,329.691126 Z" id="Shape"></path>
                <path d="M77.748665,222.498126 C83.080665,236.693126 91.721665,249.412126 102.947665,259.600126 C125.943665,277.893126 154.252665,288.241126 183.623665,289.088126 C190.768165,289.170158 197.885665,288.135006 204.713665,286.025626 C212.682465,283.685826 219.842665,279.170126 225.393665,272.986626 C230.940565,266.806926 234.655365,259.201626 236.123665,251.025626 C237.940065,238.615626 236.893195,225.955626 233.061165,214.009626 L222.209165,171.220626 L222.213071,171.224532 C220.775571,162.251832 216.869271,153.857532 210.924071,146.986532 C194.736071,130.974532 169.623071,138.236532 160.174071,141.474832 L109.600071,156.872832 C101.432071,158.861132 93.791071,162.591632 87.198071,167.810832 C71.010071,182.072832 71.886071,205.349832 78.448071,222.412832 L77.748665,222.498126 Z M103.998665,187.498126 C107.908865,184.880926 112.268165,183.009826 116.861665,181.986426 L167.173665,166.674426 C172.072065,165.276026 186.775665,160.725226 191.849665,165.713486 C194.248065,169.299386 195.861365,173.354086 196.572365,177.611486 L207.334365,220.400486 L207.338271,220.400486 C210.103871,228.494286 211.057071,237.095486 210.135171,245.599486 C209.568761,249.146386 207.998471,252.454986 205.611771,255.138586 C203.225071,257.818286 200.119571,259.763586 196.662571,260.736286 C174.963571,267.650386 135.412571,253.122986 120.713571,239.912286 C112.608071,232.677886 106.338571,223.619286 102.424571,213.486286 C99.186271,204.650386 98.311271,192.748286 104.174571,187.588286 L103.998665,187.498126 Z" id="Shape"></path>
                <path d="M289.068665,201.679589 L292.568665,201.679589 C304.380665,200.279726 315.443665,195.162526 324.158665,187.065126 C327.744565,184.002626 331.072765,180.764326 334.396665,177.440126 C337.720865,174.115926 340.783365,171.229226 344.021665,168.690126 L344.017759,168.690126 C359.290759,156.463126 378.861759,150.940126 398.267759,153.378126 L401.857559,153.378126 C407.490359,154.944526 413.459559,154.827326 419.025559,153.038286 C424.591559,151.249246 429.513559,147.870286 433.181559,143.315586 C437.744059,136.756986 440.380759,129.053586 440.798759,121.077586 C441.216729,113.100986 439.396459,105.163586 435.544859,98.1675864 C427.861259,83.1165864 416.302859,70.3905864 402.060859,61.3005864 C387.814859,52.2067864 371.404859,47.0815864 354.517859,46.4525864 C321.240859,45.9057064 289.345859,59.7455864 267.017859,84.4295864 C253.705859,98.0665864 245.009859,115.542586 242.169859,134.390586 C240.302659,154.113586 246.630759,173.730586 259.669859,188.640586 C267.185459,196.945286 277.864859,201.683586 289.067859,201.679589 L289.068665,201.679589 Z M268.591665,137.627126 L268.595571,137.627126 C270.970571,124.404126 277.283071,112.205126 286.704571,102.627126 C303.036571,84.1741264 326.298571,73.3381264 350.931571,72.7011264 L353.732371,72.7011264 C365.873371,73.0253464 377.709371,76.6034264 387.990371,83.0681264 C398.275371,89.5369264 406.631371,98.6461264 412.181371,109.451126 C415.325871,114.802726 415.591571,121.369126 412.880591,126.951126 C412.720431,127.220656 412.513401,127.458936 412.267311,127.654246 C410.185311,127.740184 408.095411,127.564403 406.056411,127.126906 L401.767311,126.603466 C375.244311,123.337866 348.529311,130.978466 327.744311,147.779466 C323.631011,151.103666 320.045111,154.693566 316.455311,158.193466 C312.869411,161.693466 310.681911,163.880966 307.705311,166.505966 L307.705311,166.50206 C303.119411,171.09976 297.221311,174.15826 290.818311,175.25206 C286.517511,175.61534 282.318311,173.81066 279.619311,170.43956 C271.799011,161.36536 267.842311,149.58456 268.596311,137.62756 L268.591665,137.627126 Z" id="Shape"></path>
                <path d="M422.328665,171.578126 C410.340665,165.539026 393.976665,172.453126 378.578665,179.714826 L378.578665,179.718732 C368.183665,184.851532 358.156665,190.698732 348.566665,197.218732 C331.066665,208.855732 311.902665,219.968732 293.441665,217.429732 L292.129165,217.429732 C285.500265,215.796932 278.500165,216.636762 272.441165,219.793032 C264.425565,225.492232 259.898165,234.910032 260.453165,244.731032 C259.929725,254.707632 258.878965,278.157032 276.726165,289.618032 L276.730071,289.618032 C283.128471,293.391432 290.480071,295.243032 297.906071,294.953932 C300.827971,294.926588 303.749871,294.750802 306.656071,294.430492 C327.160071,293.266392 347.453071,289.684392 367.117071,283.754492 C388.570071,277.293592 407.398071,264.141492 420.844071,246.219492 C428.496371,235.461492 433.176071,222.875492 434.406071,209.731492 C436.855271,189.606492 432.566271,176.743492 422.328071,171.579492 L422.328665,171.578126 Z M408.851665,207.539126 L408.855571,207.543032 C408.054791,216.074232 405.039171,224.246032 400.105571,231.254032 C389.847571,244.504032 375.718571,254.227032 359.679571,259.078032 C341.952571,264.269432 323.695571,267.441332 305.253571,268.531132 C300.644171,269.386602 295.894171,269.085822 291.429571,267.656132 C286.355371,264.417832 286.968671,250.594132 287.140471,246.133132 L287.140471,243.332332 L290.117071,243.332332 C317.504071,247.183932 342.617071,232.832332 363.969071,218.570332 L363.969071,218.566426 C372.554971,212.593726 381.563071,207.242426 390.918071,202.554426 C396.660271,199.566126 402.703071,197.191126 408.941071,195.468526 C409.394191,199.480226 409.366851,203.534926 408.855133,207.542526 L408.851665,207.539126 Z" id="Shape"></path>
            </g>
        </g>
    </g>
</svg>