<svg width="454" height="450" xmlns="http://www.w3.org/2000/svg"><g id="Page-1" stroke="none" stroke-width="1" fill="none" fill-rule="evenodd"><g id="chicken" transform="translate(.346 .45)" fill="#000" fill-rule="nonzero"><g id="Group"><path d="M69.734 149.21a7.057 7.057 0 1 1-14.114-.003 7.057 7.057 0 0 1 14.114.004M160.244 158.26a7.038 7.038 0 0 0-7 7.114 7.086 7.086 0 0 0 7.125 7.012c3.899-.043 7.05-3.23 7.004-7.129-.043-3.898-3.23-7.008-7.129-6.996ZM158.794 212.63a7.01 7.01 0 0 0-6.984 7.09 7 7 0 0 0 7.086 7 7.024 7.024 0 0 0 7.004-7.113c.007-3.918-3.18-7.015-7.106-6.976ZM103.654 211.44a7.058 7.058 0 1 1-7.059-7.055 7.058 7.058 0 0 1 7.06 7.056M119.434 167.37a7.055 7.055 0 1 1-14.11 0 7.054 7.054 0 1 1 14.11 0M106.154 116.201c3.899-.024 7.043-3.207 7-7.113a7.055 7.055 0 0 0-7.129-7.004c-3.898.043-7 3.187-7 7.113.04 3.898 3.227 7.023 7.13 7.004Z" id="Path"/><path d="M453.304 365.7c-1.254-11.546-6.43-20.55-14.973-26.05-11.367-7.32-22.824-12.348-33.914-17.22-12.824-5.64-25.059-11.077-36.328-19.604.043-.113.117-.207.152-.32.817-2.348.5-4.93-.843-7.012l-23.605-36.477-31.746-81.266a8.127 8.127 0 0 0-.332-.727l-11.848-23.25-15.56-35.504a8.929 8.929 0 0 0-.554-1.043l-13.688-21.89c-3.426-5.633-7.637-13.345-8.176-15.317-.824-3.949-5.734-12.062-14.598-24.113a7.62 7.62 0 0 0-1.215-1.316l-14.102-12.207a9.833 9.833 0 0 0-.738-.578l-27.5-18.691L184.74 9.232a8.032 8.032 0 0 0-3.46-1.445L133.93.11a7.827 7.827 0 0 0-4.469.554l-27.39 11.781c-.426.18-.829.399-1.215.649L80.416 26.419 48.959 45.962a8.045 8.045 0 0 0-2.582 2.574L16.002 97.391a8.9 8.9 0 0 0-.5.934L.705 131.329a8.051 8.051 0 0 0-.118 6.312l17.367 43.043 4.805 21.7a8.06 8.06 0 0 0 1.68 3.421l21.258 25.457 9.941 15.11a8.068 8.068 0 0 0 1.977 2.077c11.367 8.301 19.152 12.902 23.03 13.652 2.169.567 10.5 4.895 16.763 8.5l22.14 13.418c.34.207.696.387 1.063.543l35.332 14.777 23.84 11.703c.242.117.492.223.746.32l81.781 30.453 36.836 23.031a8.029 8.029 0 0 0 6.473.918c.297-.085.566-.222.84-.34 8.082 10.462 13.21 21.747 18.53 33.563 4.724 10.496 9.599 21.348 16.817 32.168 6.789 10.18 17.535 16.262 31.086 17.59 1.812.171 3.668.261 5.555.261 18.676 0 40.14-8.5 52.93-21.359 12.465-12.559 24.258-40.445 21.926-61.949l.001.003Zm-183.15-37.98a8.065 8.065 0 0 0-1.46-.722L186.504 296.4l-23.91-11.727-35.219-14.746-21.785-13.199c-6.058-3.488-16.945-9.48-21.414-10.332-2.168-.738-9.703-5.656-15.902-10.113l-9.386-14.262a7.21 7.21 0 0 0-.547-.738L38.04 196.978l-4.524-20.441a8.747 8.747 0 0 0-.39-1.277l-16.328-40.477 13.184-29.391 29.07-46.742 30.012-18.652 20.008-13.043 24.602-10.586 43.125 6.996 17.656 12.902 27.332 18.582 13.059 11.305c4.949 6.789 10.562 15.223 11.285 17.14 1.011 4.868 6.816 14.876 10.238 20.493l13.422 21.477 15.52 35.379 11.87 23.32 31.899 81.664c.195.504.441.984.738 1.437l18.445 28.508-8.008 2.739a8.068 8.068 0 0 0-4.512 3.851l-10.594 20.043-15.902 8.953a8.032 8.032 0 0 0-3.27 3.45l-5.85 11.84-29.974-18.727Zm149.8 88.563c-9.297 9.352-28.863 18.02-45.504 16.426-8.703-.844-15.176-4.379-19.254-10.496-6.473-9.703-11.082-19.941-15.523-29.836-6.183-13.727-12.566-27.875-23.945-41.098l3.602-7.285 15.797-8.895a8.039 8.039 0 0 0 3.168-3.254l10.207-19.312 4.238-1.449c14.402 12.48 30.027 19.426 45.199 26.086 10.504 4.613 21.371 9.39 31.668 16.016 4.441 2.863 6.95 7.52 7.684 14.246 1.879 17.293-9.012 40.48-17.336 48.852v-.001Z" id="Shape"/></g></g></g></svg>