<?xml version="1.0" encoding="UTF-8"?>
<svg width="700pt" height="700pt" version="1.1" viewBox="0 0 700 700" xmlns="http://www.w3.org/2000/svg">
 <g>
  <path d="m567 110.25c-17.5-43.75-57.75-71.75-103.25-71.75-63-1.75-120.75 28-155.75 78.75-31.5 45.5-57.75 94.5-75.25 147-3.5 7-5.25 15.75-7 22.75-12.25 0-22.75 0-35-1.75-14 0-28-1.75-40.25-1.75-17.5 0-28 7-31.5 14-7 8.75-8.75 22.75-5.25 36.75 7 33.25 33.25 56 64.75 59.5 17.5 3.5 17.5 3.5 19.25 21 0 8.75 1.75 15.75 1.75 24.5 0 12.25 1.75 24.5 3.5 38.5 1.75 17.5 10.5 29.75 22.75 35 3.5 1.75 8.75 3.5 14 3.5 8.75 0 17.5-3.5 26.25-8.75 24.5-19.25 36.75-47.25 35-77 0-5.25 1.75-12.25 1.75-19.25 0-1.75 0-3.5 1.75-5.25h14 12.25c89.25-7 159.25-38.5 211.75-94.5 28-28 45.5-64.75 49-105-1.75-31.5-8.75-66.5-24.5-96.25zm-45.5 185.5c-49 52.5-112 80.5-196 87.5h-28-19.25c-7 0-14 5.25-14 14 0 5.25 3.5 10.5 8.75 12.25v3.5c-1.75 7-1.75 15.75-1.75 24.5 1.75 21-8.75 42-24.5 56-5.25 3.5-8.75 5.25-12.25 3.5s-7-7-7-14c-1.75-12.25-1.75-24.5-3.5-36.75 0-8.75-1.75-17.5-1.75-26.25-3.5-31.5-10.5-40.25-42-45.5-21-1.75-38.5-17.5-42-40.25-1.75-7-1.75-12.25 0-15.75s5.25-5.25 12.25-5.25c12.25 0 26.25 0 38.5 1.75h31.5v19.25c0 7 7 12.25 14 12.25s12.25-7 12.25-14c-1.75-19.25 1.75-38.5 8.75-57.75 17.5-50.75 42-98 73.5-141.75 29.75-43.75 80.5-68.25 134.75-68.25 35 0 66.5 22.75 80.5 56 14 26.25 19.25 57.75 19.25 85.75-3.5 35-17.5 66.5-42 89.25z"></path>
  <path d="m449.75 119c-7-3.5-15.75-3.5-24.5 0-7 3.5-8.75 12.25-5.25 17.5v1.75c0 8.75 5.25 15.75 14 19.25h7c1.75 0 3.5 0 5.25-1.75 3.5-1.75 7-5.25 7-8.75l3.5-8.75c0-1.75 1.75-3.5 1.75-5.25v-1.75c0-1.75 0-3.5-1.75-5.25 0-3.5-3.5-7-7-7z"></path>
 </g>
</svg>
