<svg width="910" height="991" viewBox="0 0 910 991" fill="none" xmlns="http://www.w3.org/2000/svg">
<rect x="-70.775" y="39.218" width="78" height="160" transform="rotate(-30 -70.775 39.218)" fill="#30709B"></rect>
<mask id="mask0_17_114" style="mask-type: alpha" maskUnits="userSpaceOnUse" x="-130" y="63" width="402" height="228">
<rect x="-130" y="63" width="402" height="228" fill="#C4C4C4"></rect>
</mask>
<g mask="url('#mask0_17_114')">
<mask id="mask1_17_114" style="mask-type: alpha" maskUnits="userSpaceOnUse" x="-97" y="139" width="322" height="322">
<circle cx="64" cy="300" r="161" fill="#1E497F"></circle>
</mask>
<g mask="url('#mask1_17_114')">
<circle cx="64" cy="300" r="161" fill="#1E497F"></circle>
<path d="M210 279C210 361.797 142.664 429 59.5 429C-23.6643 429 -91 361.797 -91 279C-91 196.203 -23.6643 129 59.5 129C142.664 129 210 196.203 210 279Z" fill="#1E497F" stroke="#30709B" stroke-width="32"></path>
</g>
</g>
<rect x="-12" y="291" width="248" height="25" fill="#1F5080"></rect>
<rect x="-12" y="293" width="248" height="16" fill="#30709B"></rect>
<rect x="-12" y="290" width="248" height="25" fill="#1F5080"></rect>
<rect x="-12" y="299" width="248" height="16" fill="#56EEB8"></rect>
<rect x="-12" y="292" width="248" height="16" fill="#30709B"></rect>
<path opacity="0.25" d="M910 991L228 311H-44V991H910Z" fill="#56EEB8"></path>
</svg>
