<svg width="910" height="991" fill="none" xmlns="http://www.w3.org/2000/svg"><path fill="#30709B" d="m-70.775 39.218 67.55-39 80 138.564-67.55 39z"/><mask id="mask0_17_114" style="mask-type:alpha" maskUnits="userSpaceOnUse" x="-130" y="63" width="402" height="228"><path fill="#C4C4C4" d="M-130 63h402v228h-402z"/></mask><g mask="url('#mask0_17_114')"><mask id="mask1_17_114" style="mask-type:alpha" maskUnits="userSpaceOnUse" x="-97" y="139" width="322" height="322"><circle cx="64" cy="300" r="161" fill="#1E497F"/></mask><g mask="url('#mask1_17_114')" fill="#1E497F"><circle cx="64" cy="300" r="161"/><path d="M210 279c0 82.797-67.336 150-150.5 150S-91 361.797-91 279s67.336-150 150.5-150S210 196.203 210 279Z" stroke="#30709B" stroke-width="32"/></g></g><path fill="#1F5080" d="M-12 291h248v25H-12z"/><path fill="#30709B" d="M-12 293h248v16H-12z"/><path fill="#1F5080" d="M-12 290h248v25H-12z"/><path fill="#56EEB8" d="M-12 299h248v16H-12z"/><path fill="#30709B" d="M-12 292h248v16H-12z"/><path opacity=".25" d="M910 991 228 311H-44v680h954Z" fill="#56EEB8"/></svg>