<svg width="342" height="351" xmlns="http://www.w3.org/2000/svg"><defs><linearGradient x1="50%" y1="0%" x2="50%" y2="100%" id="linearGradient-1"><stop stop-color="#6B9CB3" offset="0%"/><stop stop-color="#D8D8D8" offset="100%"/></linearGradient></defs><g id="Torso" stroke="none" stroke-width="1" fill="none" fill-rule="evenodd"><path d="M302.82 301.413c-1.623-.35-1.235-3.973-3.317-4.226-2.12-.188-3.972 1.23-4.226 3.312-2.188 18.199-4.055 25.723-16.441 38.805-.426.441-.844.852-1.27 1.285-.59.074-1.164.254-1.687.63-3.489 2.452-16.023 3.76-27.641 2.827-3.196-.289-6.825-.629-8.707-2.367a3.817 3.817 0 0 0-.95-.648c-2.09-.985-3.636-2.27-4.582-3.778-1.578-2.562-1.687-6.035-.343-10.32 2.918-9.34 12.168-19.62 18.18-22.242a3.786 3.786 0 0 0 1.98-4.972c-.867-2.04-1.898-4.29-2.965-6.61-2.457-5.367-5.25-11.469-6.316-15.68-.508-2.039-2.598-3.254-4.617-2.742-2.028.508-3.262 2.578-2.746 4.617 1.238 4.875 4.054 11.02 6.78 16.97.516 1.128 1.024 2.234 1.5 3.292-7.308 4.758-15.835 14.824-19.061 25.098-1.39 4.45-1.54 8.551-.621 12.164-22.145 5-60.836 5.664-84.7-1.523-.144-.04-.284-.016-.425-.04 3.812-5.652 8.66-13.944 10.543-23.272a3.803 3.803 0 0 0-2.973-4.48c-2.039-.395-4.062.91-4.472 2.972-2.137 10.609-9.059 20.19-12.387 24.789l-.352.484c-6.102 8.512-17.188 14.016-29.664 14.72-10.59.632-20.125-2.524-25.434-8.372-1.328-1.457-1.477-2.59-1.477-3.367-.062-4.098 4.926-9.723 9.75-15.156 5.137-5.797 10.445-11.785 11.926-18.168a3.808 3.808 0 0 0-2.84-4.563c-2.042-.484-4.09.801-4.562 2.844-1.043 4.504-5.703 9.762-10.21 14.844-5.052 5.692-9.798 11.121-11.204 16.801-10.25 2.024-22.039-.64-27.594-6.344-2.883-2.957-3.816-6.355-2.848-10.387 1.735-7.168 7.618-12.582 13.312-17.832 5.641-5.187 10.961-10.078 12.656-16.71.079-.313.121-.626.121-.954-.18-40.473-12.19-64.348-23.805-87.43-12.656-25.168-24.617-48.93-21.03-93.215.753-9.757-6.544-19.502-12.958-24.705-.75-.607-1.81-7.102-3.178-19.485-7.858-6.782 78.467-40.076 129.039-55.59 19.446-5.965 24.942 7.229 26.334 8.686 8.975 9.396 18.121 24.235 29.343 39.505 4.825 6.594 11.805 10.68 18.555 14.629 2.067 1.195 4.114 2.387 6.047 3.637 7.715 5.015 19.348 11.617 30.605 18 7.899 4.488 15.367 8.722 20.63 11.94 32.19 19.735 45.472 38.782 63.058 74.024 11.355 22.66 20.301 80.765 13.403 110.957-4.365 18.945-25.596 19.63-36.16 17.346Z" id="Shape" fill="#000" fill-rule="nonzero"/><path d="M18.254 105.657 11.18 94.185c47.116 3.055 80.39.271 99.823-8.352 19.433-8.623 31.779-15.376 37.037-20.259-30.37 29.16-64.653 43.74-102.852 43.74-20.126 0-29.103-1.219-26.934-3.657Z" id="Path-9" fill="url('#linearGradient-1')"/><ellipse id="Oval" fill="#000" cx="36" cy="100" rx="1" ry="10"/><circle id="Oval" fill="#6C564B" cx="35.5" cy="124.5" r="20.5"/><path d="M24.597 127.113c.703 0 1.229-.145 1.576-.435.348-.29.522-.73.522-1.319 0-.432-.11-.79-.332-1.074-.221-.284-.567-.512-1.035-.683l-.496-.188c-.344-.128-.57-.244-.678-.35a.536.536 0 0 1-.162-.4c0-.208.074-.368.222-.48.149-.112.362-.168.641-.168.25 0 .503.045.758.136.255.091.506.224.754.399v-1.125a4.144 4.144 0 0 0-.797-.272 3.607 3.607 0 0 0-.805-.091c-.59 0-1.056.15-1.394.453-.339.302-.508.717-.508 1.246 0 .411.103.739.308.982.206.244.6.476 1.18.697l.567.215c.197.076.349.18.453.31a.718.718 0 0 1 .156.46c0 .232-.078.412-.234.54-.157.13-.377.194-.66.194-.282 0-.566-.053-.854-.16a3.889 3.889 0 0 1-.893-.488v1.191a3.886 3.886 0 0 0 1.711.41ZM31.49 127v-.879h-.914c-.255 0-.436-.072-.543-.215-.107-.143-.16-.386-.16-.73v-4.254h-2.305v.879h1.16v3.375c0 .653.119 1.12.356 1.402.237.281.627.422 1.171.422h1.235Zm2.528.113c.26 0 .499-.052.715-.156.216-.104.393-.253.531-.445V127H36.4v-2.496c0-.745-.144-1.262-.432-1.55-.287-.29-.787-.434-1.498-.434-.291 0-.567.024-.828.074-.26.05-.517.126-.77.23v.977c.28-.151.547-.261.803-.33.257-.07.522-.104.795-.104.26 0 .458.048.592.143a.482.482 0 0 1 .201.42v.191h-.793c-.692 0-1.204.122-1.535.365-.33.244-.496.62-.496 1.131 0 .472.139.839.416 1.102.277.263.665.394 1.162.394Zm.293-.793c-.2 0-.36-.058-.476-.175a.639.639 0 0 1-.176-.473c0-.266.084-.453.254-.563.169-.109.467-.164.894-.164h.457v.078c0 .41-.083.728-.25.956-.166.227-.4.341-.703.341Zm6.81.68v-.879h-.88c-.22 0-.379-.042-.474-.127-.095-.084-.142-.224-.142-.42v-2.07h1.496v-.879h-1.496v-1.242h-1.145v1.242h-1.117v.879h1.117v2.016c0 .567.116.956.348 1.166.231.21.675.314 1.332.314h.96Zm3.055.113c.594 0 1.039-.112 1.334-.338.296-.225.444-.563.444-1.013 0-.375-.097-.673-.291-.893-.194-.22-.5-.38-.916-.478l-.329-.079-.043-.011c-.557-.13-.835-.3-.835-.508 0-.146.065-.256.195-.33.13-.074.323-.111.578-.111.23 0 .458.034.686.103.227.07.447.171.658.307v-1a4.282 4.282 0 0 0-.717-.182 4.566 4.566 0 0 0-.74-.06c-.552 0-.98.117-1.285.351-.305.234-.458.563-.458.984 0 .355.1.637.301.848.2.211.52.366.957.465l.317.07c.367.089.6.172.697.25.098.078.146.19.146.336a.37.37 0 0 1-.207.34c-.138.078-.34.117-.609.117-.245 0-.498-.038-.76-.113a3.568 3.568 0 0 1-.771-.328v1c.284.091.564.16.84.205.276.045.545.068.808.068Z" id="Slats" fill="#BC917A" fill-rule="nonzero" transform="rotate(8 34.408 124.018)"/></g></svg>