<svg width="201" height="230" xmlns="http://www.w3.org/2000/svg"><g id="Shilouette" stroke="none" stroke-width="1" fill="none" fill-rule="evenodd"><path d="M88.432 227.928c-8.198-1.145-48.875-18.13-55.289-23.334-1.125-.91-2.261-1.828-3.343-2.754l-.95-.824c-10.879-9.39-22-18.188-26.035-40.73-.458-2.563-.89-5.079-1.292-7.547-.318-2.627-.54-4.641-.665-6.043-.224-2.271-.53-4.927-.53-7.613-.317-8.378-.009-18.047.897-29.278C3.277 84.442 28.998 9.735 46.152 1.125 47.995.2 48.986.528 49.713.99c5.367 3.36 9.035 14.809 11.984 24 1.55 4.808 3.008 9.363 4.672 12.93a3.827 3.827 0 0 0 3.203 2.187c7.46.473 71.121 13.934 74.57 15.18 1.644 1.031 3.727.586 4.906-.894l.051.05c27.547-32.336 39.008-36.34 43.457-35.824 1.066.13 2.465.563 3.695 2.942 6.742 12.895 3.832 45.727 1.489 72.113-.778 8.723-1.504 16.94-1.915 24.28-.835 15.57-7.285 68.512-17.437 83.887-8.366 12.67-29.34 34.553-89.957 26.088Z" id="Shape" fill="#000" fill-rule="nonzero"/></g></svg>