<svg width="371" height="138" xmlns="http://www.w3.org/2000/svg"><g id="Page-1" stroke="none" stroke-width="1" fill="none" fill-rule="evenodd"><path d="M78.79 120.05C28.794 99.284 4.017 72.792.845 36.671c-.86-9.79-.402-22.773 6.676-29.07 3.441-3.129 9.144-3.473 14.18-3.777 13.438-.778 16.156 11.402 18.785 30.09 1.023 7.265 1.992 14.113 4.219 19.48 14.395 34.766 67.207 51.19 157.02 48.797 25.969-.735 74.734-7.11 109.65-41.637a182.66 182.66 0 0 0 2.957-3.016c13.859-14.617 62.021-79.08 55.123-48.888-4.41 19.137-11.766 46.676-24.562 64.758-10.188 14.359-26.738 28.32-44.273 37.355-20.285 10.438-43.828 20.652-78.383 24.723-47.02 5.644-108.68-1-143.45-15.426l.003-.01Z" id="Path" fill="#000" fill-rule="nonzero"/></g></svg>