<svg width="342" height="351" xmlns="http://www.w3.org/2000/svg"><g id="Torso" stroke="none" stroke-width="1" fill="none" fill-rule="evenodd"><path d="M302.82 301.413c-1.623-.35-1.235-3.973-3.317-4.226-2.12-.188-3.972 1.23-4.226 3.312-2.188 18.199-4.055 25.723-16.441 38.805-.426.441-.844.852-1.27 1.285-.59.074-1.164.254-1.687.63-3.489 2.452-16.023 3.76-27.641 2.827-3.196-.289-6.825-.629-8.707-2.367a3.817 3.817 0 0 0-.95-.648c-2.09-.985-3.636-2.27-4.582-3.778-1.578-2.562-1.687-6.035-.343-10.32 2.918-9.34 12.168-19.62 18.18-22.242a3.786 3.786 0 0 0 1.98-4.972c-.867-2.04-1.898-4.29-2.965-6.61-2.457-5.367-5.25-11.469-6.316-15.68-.508-2.039-2.598-3.254-4.617-2.742-2.028.508-3.262 2.578-2.746 4.617 1.238 4.875 4.054 11.02 6.78 16.97.516 1.128 1.024 2.234 1.5 3.292-7.308 4.758-15.835 14.824-19.061 25.098-1.39 4.45-1.54 8.551-.621 12.164-22.145 5-60.836 5.664-84.7-1.523-.144-.04-.284-.016-.425-.04 3.812-5.652 8.66-13.944 10.543-23.272a3.803 3.803 0 0 0-2.973-4.48c-2.039-.395-4.062.91-4.472 2.972-2.137 10.609-9.059 20.19-12.387 24.789l-.352.484c-6.102 8.512-17.188 14.016-29.664 14.72-10.59.632-20.125-2.524-25.434-8.372-1.328-1.457-1.477-2.59-1.477-3.367-.062-4.098 4.926-9.723 9.75-15.156 5.137-5.797 10.445-11.785 11.926-18.168a3.808 3.808 0 0 0-2.84-4.563c-2.042-.484-4.09.801-4.562 2.844-1.043 4.504-5.703 9.762-10.21 14.844-5.052 5.692-9.798 11.121-11.204 16.801-10.25 2.024-22.039-.64-27.594-6.344-2.883-2.957-3.816-6.355-2.848-10.387 1.735-7.168 7.618-12.582 13.312-17.832 5.641-5.187 10.961-10.078 12.656-16.71.079-.313.121-.626.121-.954-.18-40.473-12.19-64.348-23.805-87.43-12.656-25.168-24.617-48.93-21.03-93.215.753-9.757-6.544-19.502-12.958-24.705-.75-.607-1.81-7.102-3.178-19.485-7.858-6.782 78.467-40.076 129.039-55.59 19.446-5.965 24.942 7.229 26.334 8.686 8.975 9.396 18.121 24.235 29.343 39.505 4.825 6.594 11.805 10.68 18.555 14.629 2.067 1.195 4.114 2.387 6.047 3.637 7.715 5.015 19.348 11.617 30.605 18 7.899 4.488 15.367 8.722 20.63 11.94 32.19 19.735 45.472 38.782 63.058 74.024 11.355 22.66 20.301 80.765 13.403 110.957-4.365 18.945-25.596 19.63-36.16 17.346Z" id="Shape" fill="#000" fill-rule="nonzero"/></g></svg>