<svg width="700pt" height="700pt" viewBox="0 0 700 700" xmlns="http://www.w3.org/2000/svg"><path d="M421.75 358.75v-3.5c0-1.75 0-3.5-1.75-3.5V350c-1.75-7-3.5-14-7-21l-3.5-10.5c0-1.75-1.75-5.25-1.75-7L406 308c-7-19.25-12.25-33.25-17.5-45.5-7-14-14-28-22.75-42-5.25-8.75-8.75-15.75-15.75-24.5l-17.5-17.5c-5.25-5.25-8.75-8.75-15.75-12.25-5.25-3.5-10.5-5.25-17.5-7h-3.5c-1.75-3.5-3.5-5.25-5.25-7s-1.75-3.5-3.5-3.5v-3.5c5.25-15.75 10.5-31.5 15.75-45.5 3.5-7 0-14-7-17.5s-14 0-17.5 7-7 15.75-8.75 24.5c-1.75-3.5-3.5-5.25-3.5-8.75-3.5-7-5.25-14-3.5-22.75 0-7-3.5-14-12.25-14-3.5-3.5-8.75 1.75-10.5 8.75v17.5c-12.25-5.25-24.5-8.75-38.5-8.75-7 0-14 5.25-14 12.25s5.25 14 12.25 14c19.25 1.75 36.75 7 52.5 17.5 5.25 12.25 12.25 24.5 22.75 36.75 0 0 1.75 1.75 1.75 3.5-5.25 5.25-8.75 10.5-10.5 12.25 0 0 0 1.75-1.75 1.75l-1.75 3.5c-3.5 10.5-7 21-7 33.25 0 8.75 0 15.75 1.75 26.25 1.75 7 5.25 14 8.75 21s5.25 12.25 8.75 17.5l10.5 19.25c3.5 7 7 14 12.25 21l12.25 17.5c1.75 3.5 3.5 7 7 8.75l5.25 8.75c1.75 1.75 1.75 3.5 3.5 7v1.75c1.75 3.5 3.5 7 5.25 8.75 3.5 7 8.75 14 14 21l7 8.75c1.75 1.75 3.5 5.25 5.25 7 3.5 5.25 8.75 10.5 14 15.75l1.75 1.75c5.25 3.5 10.5 3.5 15.75 5.25h12.25c7-1.75 12.25-5.25 15.75-10.5 1.75-1.75 3.5-5.25 3.5-7 1.75-5.25 3.5-10.5 3.5-15.75 1.75-7 1.75-12.25 1.75-19.25-1.75-12.25-1.75-19.25-3.5-26.25zm-115.5-171.5c3.5 1.75 7 5.25 8.75 7 0 1.75 1.75 1.75 1.75 3.5l14 14c1.75 1.75 1.75 3.5 3.5 5.25-1.75 0-1.75 0-3.5 1.75-10.5 8.75-21 15.75-35 26.25-1.75 1.75-5.25 3.5-7 1.75h-5.25c0-1.75-1.75-3.5-1.75-5.25-1.75-5.25-1.75-12.25 0-19.25 0-8.75 1.75-17.5 5.25-24.5V196c1.75-1.75 5.25-7 10.5-12.25h1.75c1.75 1.75 5.25 1.75 7 3.5zm-10.5 84c7-1.75 12.25-3.5 15.75-7 14-8.75 24.5-17.5 35-26.25 7 10.5 12.25 22.75 17.5 35 1.75 3.5 1.75 5.25 3.5 8.75l-1.75 1.75c-10.5 14-28 19.25-45.5 17.5-3.5 0-7 0-8.75 1.75-1.75-3.5-5.25-7-7-12.25zm35 56c17.5 0 35-7 49-19.25 1.75 1.75 1.75 5.25 3.5 8.75v1.75c0 1.75 1.75 3.5 1.75 7l3.5 10.5c0 1.75 1.75 3.5 1.75 5.25-3.5 1.75-5.25 1.75-8.75 3.5-1.75 1.75-5.25 1.75-7 3.5-5.25 1.75-14 1.75-21 1.75-1.75 0-5.25 0-7 1.75-1.75-1.75-3.5-5.25-3.5-7l-5.25-8.75c-3.5-3.5-5.25-5.25-7-8.75zm64.75 68.25c0 3.5-1.75 5.25-1.75 8.75L392 406h-5.25c-1.75 0-1.75 0-3.5-1.75-3.5-1.75-5.25-5.25-7-8.75s-5.25-7-7-8.75l-5.25-7c-1.75-1.75-1.75-3.5-3.5-3.5 7 0 15.75-1.75 22.75-3.5 3.5-1.75 7-3.5 10.5-3.5 0 0 1.75 0 1.75-1.75 0 3.5 1.75 8.75 1.75 12.25s0 10.5-1.75 15.75zM593.25 357c-1.75-8.75-1.75-14-3.5-21-3.5-14-7-28-12.25-40.25-1.75-5.25-3.5-8.75-5.25-12.25l-3.5-8.75v-5.25c0-5.25-3.5-10.5-8.75-12.25-3.5-7-8.75-14-14-19.25-1.75-3.5-5.25-7-7-8.75L523.25 210c-1.75-3.5-10.5-17.5-15.75-29.75 0-1.75-1.75-1.75-1.75-3.5-12.25-12.25-28-22.75-45.5-31.5-5.25-1.75-8.75-3.5-14-3.5h-8.75c-3.5-7-5.25-14-8.75-21 0 0 0-1.75-1.75-1.75-3.5-3.5-5.25-7-7-12.25 1.75-3.5 3.5-7 3.5-10.5s0-7 3.5-8.75c0 0 0-1.75 1.75-1.75l17.5-28c3.5-5.25 1.75-14-3.5-17.5s-14-1.75-17.5 3.5L407.75 70V49c0-7-5.25-14-14-14s-14 5.25-14 14v12.25l-28-19.25c-5.25-3.5-14-3.5-17.5 3.5-3.5 5.25-1.75 14 3.5 17.5l50.75 35s1.75 0 1.75 1.75c3.5 12.25 7 22.75 14 33.25 3.5 7 5.25 12.25 8.75 19.25 0 1.75 0 1.75 1.75 1.75 0 1.75-1.75 1.75-1.75 3.5l-1.75 3.5v12.25l-1.75 14c0 7 0 14-1.75 21V217c0 10.5 1.75 21 3.5 31.5 1.75 7 5.25 14 8.75 22.75L448 336c1.75 7 5.25 12.25 8.75 19.25l8.75 21c3.5 7 7 15.75 12.25 24.5l8.75 17.5c7 12.25 12.25 26.25 17.5 40.25v1.75l1.75 5.25c1.75 5.25 3.5 12.25 5.25 15.75 3.5 8.75 7 17.5 14 28 5.25 5.25 10.5 8.75 15.75 10.5 3.5 1.75 7 1.75 10.5 1.75h5.25c5.25-1.75 8.75-3.5 12.25-7 7-7 12.25-14 15.75-22.75l5.25-21c1.75-14 3.5-29.75 5.25-45.5v-45.5c0-5.25 0-14-1.75-22.75zm-99.75 24.5c-1.75-3.5-3.5-8.75-5.25-12.25L486.5 364c5.25 0 10.5 1.75 15.75 1.75 8.75 0 17.5 0 26.25-1.75 14-1.75 26.25-8.75 36.75-15.75 0 3.5 1.75 7 1.75 12.25v7c-5.25 3.5-12.25 7-17.5 8.75-15.75 3.5-31.5 5.25-49 3.5-1.75 0-3.5 0-7 1.75zm31.5-126c3.5 3.5 7 8.75 8.75 14-3.5 1.75-7 3.5-12.25 3.5-21 8.75-45.5 12.25-70 10.5h-1.75l-7-17.5c0-1.75-1.75-1.75-1.75-3.5h12.25c7 0 14 0 21-1.75 14-1.75 26.25-8.75 35-19.25l1.75-1.75 5.25 8.75c3.5 1.75 7 3.5 8.75 7zM439.25 168H441c3.5 0 5.25 1.75 7 1.75 14 7 24.5 14 35 24.5 3.5 5.25 8.75 17.5 14 24.5-1.75 0-5.25 1.75-7 3.5-5.25 5.25-14 10.5-21 12.25-8.75 1.75-19.25 1.75-28 0-1.75 0-5.25 0-7 1.75 0-5.25-1.75-10.5-1.75-15.75v-8.75C434 204.75 434 196 434 189v-15.75c0-1.75 0-3.5 1.75-5.25v-1.75c1.75 1.75 3.5 1.75 3.5 1.75zM462 309.75h3.5c22.75 0 45.5-3.5 64.75-12.25l15.75-5.25 1.75 1.75 5.25 10.5 5.25 15.75c-10.5 8.75-21 14-35 17.5-14 1.75-28 1.75-42 0h-7c-1.75-1.75-1.75-5.25-3.5-7zM505.75 406c3.5 0 8.75 1.75 12.25 1.75 12.25 0 26.25-1.75 40.25-5.25l10.5-5.25v19.25c-3.5 0-5.25 0-8.75 1.75s-5.25 3.5-8.75 5.25c-10.5 1.75-21 1.75-31.5 1.75h-5.25c-1.75-5.25-5.25-10.5-7-15.75l-1.75-3.5c1.75 0 1.75 0 0 0zM560 486.5c-1.75 5.25-3.5 8.75-8.75 12.25h-3.5c-1.75 0-3.5-1.75-3.5-1.75-3.5-5.25-7-12.25-10.5-19.25L528.5 462l-1.75-3.5c0-1.75 0-1.75-1.75-3.5v-3.5h3.5c10.5 0 19.25 0 28-1.75h3.5c1.75-1.75 5.25-1.75 7-3.5 0 8.75-1.75 15.75-3.5 24.5 0 3.5-1.75 8.75-3.5 15.75zM355.25 467.25c-1.75-7-5.25-12.25-8.75-17.5l-1.75-1.75c-3.5-7-7-14-10.5-19.25-5.25-10.5-12.25-19.25-19.25-28 0-1.75-1.75-3.5-3.5-5.25L299.25 378l-15.75-28c0-5.25-3.5-10.5-8.75-12.25l-1.75-3.5s0-1.75-1.75-1.75l-3.5-3.5c-1.75-3.5-5.25-5.25-8.75-8.75L245 308l-5.25-5.25c-5.25-5.25-8.75-10.5-14-15.75l-26.25-26.25-14-10.5c-1.75-1.75-5.25-3.5-8.75-1.75h-5.25v-1.75c5.25-7 8.75-14 7-22.75 0-7-3.5-15.75-7-21-1.75-5.25-5.25-8.75-8.75-12.25-5.25-5.25-12.25-7-19.25-1.75-5.25 5.25-5.25 12.25-1.75 17.5-3.5-3.5-10.5-3.5-15.75 0s-7 12.25-3.5 17.5l5.25 8.75h-14c-7 0-14 5.25-14 12.25S105 259 112 259h7c8.75 0 15.75-1.75 24.5-3.5l10.5 7c0 3.5-1.75 5.25-1.75 8.75v26.25c1.75 10.5 3.5 19.25 7 28v1.75c1.75 7 3.5 14 7 21 3.5 5.25 5.25 10.5 8.75 14V364c0 1.75 1.75 3.5 1.75 3.5l63 82.25c3.5 3.5 5.25 7 7 10.5 5.25 5.25 8.75 12.25 14 17.5C271.25 488.25 283.5 497 294 504c7 5.25 12.25 8.75 21 12.25 7 1.75 12.25 5.25 17.5 7L336 525h14c1.75 0 5.25 0 7-1.75 5.25-3.5 7-8.75 8.75-14 0-5.25 0-12.25-1.75-17.5-3.5-8.75-5.25-17.5-8.75-24.5zm-36.75-17.5c-7 5.25-14 12.25-22.75 17.5-1.75 0-1.75 1.75-3.5 1.75-3.5-3.5-7-7-12.25-10.5-3.5-3.5-7-7-8.75-10.5 5.25-1.75 10.5-3.5 14-5.25 0 0 1.75 0 1.75-1.75 7-5.25 12.25-10.5 15.75-15.75 3.5 5.25 7 8.75 8.75 14 3.5 3.5 5.25 7 7 10.5zm-82.25-49c5.25-1.75 10.5-3.5 15.75-7 0 0 1.75 0 1.75-1.75l10.5-10.5c1.75-1.75 3.5-5.25 5.25-7l3.5 5.25 15.75 22.75-1.75 1.75c-3.5 7-8.75 12.25-14 15.75s-12.25 3.5-17.5 3.5H252zm7-63c1.75 3.5 5.25 5.25 7 8.75l3.5 7c-3.5 5.25-7 8.75-10.5 14l-5.25 5.25c-5.25 3.5-12.25 5.25-19.25 5.25L203 358.75l-1.75-3.5s0-1.75-1.75-1.75c5.25-1.75 8.75-5.25 12.25-7 5.25-5.25 10.5-8.75 15.75-14 1.75-1.75 3.5-3.5 3.5-5.25zm-45.5-45.5 10.5 10.5c1.75 1.75 3.5 5.25 5.25 7-1.75 0-3.5 1.75-5.25 3.5-5.25 3.5-8.75 8.75-14 12.25-1.75 1.75-5.25 3.5-8.75 5.25 0-1.75-1.75-5.25-3.5-7v-3.5c-3.5-7-5.25-15.75-5.25-24.5v-7c1.75 0 5.25 0 7-1.75 1.75 0 1.75-1.75 1.75-1.75 3.5 1.75 5.25 5.25 8.75 7zm129.5 199.5c-3.5-1.75-8.75-5.25-12.25-7 5.25-3.5 8.75-7 14-10.5 0 1.75 0 1.75 1.75 3.5C332.5 483 334.25 490 336 497c-3.5-3.5-5.25-3.5-8.75-5.25z"/></svg>