<?xml version="1.0" encoding="UTF-8"?>
<svg width="700pt" height="700pt" version="1.1" viewBox="0 0 700 700" xmlns="http://www.w3.org/2000/svg">
 <path d="m558.93 231.35c-0.20703 4.1328-0.60547 7.7656-1.332 11.008-1.6797 7.457-0.39062 6.1953-5.3672 11.723-12.781 14.203-21.668 20.898-30.285 26.898-18.383 10.496-30.359 26.336-35.547 34.008-4.2266 6.1953-10.195 14.688-16.441 23.176-12.293 16.707-28.098 35.477-49.492 50.211-23.902 16.461-53.496 35.91-82.785 32.848-36.559-3.8242-51.758-6.707-115.39-43.137-30.121-19.477-62.152-53.738-67.879-72.77-0.53516-1.8906-9.6758-17.043-10.207-19.34 19.621 19.398 46.699 44.758 47.191 45.109 41.602 31.699 83.758 49.207 124.93 51.852 41.523 2.6641 77.926-10.352 105.07-27.516 26.812-16.953 42.121-40.859 55.578-57.289 6.5117-7.9531 12.961-16.016 17.363-21.703 1.7812-2.3047 2.9531-3.9258 4.168-5.6719 6.957-6.1289 33.215-16.801 60.426-50.031zm-246.87 12.012c7.8906 0.4375 15.477 3.0234 20.781 6.2539 5.3047 3.2305 7.8984 6.5 8.6836 9.3984 0.78125 2.9023-0.09375 5.9141-3.793 8.6484-3.6992 2.7305-10.09 4.6094-17.98 4.168-7.8906-0.4375-15.508-3.0586-20.816-6.2891-5.3047-3.2305-7.832-6.4648-8.6133-9.3633-0.78125-2.9023 0.0625-5.9844 3.7617-8.7148 3.6992-2.7305 10.09-4.5391 17.977-4.1016zm-4.6836-17.363c-11.207-0.62109-20.727 1.7383-27.309 6.5977-6.582 4.8594-10.352 12.848-7.7227 22.594 2.625 9.7422 10.898 18.348 20.336 24.098 9.4414 5.75 20.512 9.2578 31.719 9.8789 11.207 0.62109 20.727-1.7383 27.309-6.5977s10.352-12.816 7.7227-22.559c-2.625-9.7422-10.863-18.383-20.301-24.129-9.4414-5.75-20.547-9.2578-31.754-9.8789zm153.12-62.242c5.8477 0.41797 12.762 2.1133 21.738 5.6719 9.5039 3.7695 14.551 7.6797 16.918 10.562 2.3672 2.8828 2.543 4.5547 2.3242 6.6289-0.4375 4.1523-4.8828 9.6602-7.1094 11.996-17.898 18.801-38.465 26.746-56.773 45.664-5.875 6.0703-11.594 16.023-21.09 28.164-9.4961 12.141-21.812 25.629-36.742 35.512-14.93 9.8867-32.219 16.227-52.945 14.832-20.727-1.3945-45.367-10.652-74.41-33.941-0.054687-0.046875-0.11328-0.089844-0.17188-0.13672 0 0-16.203-12.328-30.555-28.027-7.1719-7.8438-13.785-16.527-17.562-24.293s-4.457-13.777-2.5625-18.082c0.47656-1.082 2.125-2.9883 6.2539-4.957 4.1289-1.9648 10.312-3.8086 17.84-5.2617 15.059-2.9102 35.469-4.4688 57.492-5.9141 44.043-2.8867 94.32-4.8672 127.66-19.891 14.84-6.6875 24.809-13.559 34.316-16.578 4.7539-1.5117 9.5352-2.3672 15.379-1.9492zm0.95703-17.227c-8.0391-0.54297-15.137 0.42969-21.637 2.4961-13 4.1289-22.977 11.371-36.195 17.328-27.516 12.402-77.402 15.457-121.64 18.355-22.121 1.4492-42.895 2.9844-59.645 6.2188-8.375 1.6172-15.754 3.6328-22.047 6.6289-6.293 3-11.902 7.168-14.766 13.672-4.7812 10.867-2.1133 22.562 2.8711 32.812s12.523 19.887 20.371 28.473c15.602 17.062 32.508 29.82 32.711 29.977 0.023438 0.015625 0.046876 0.015625 0.070313 0.035157 31.027 24.863 59.09 36.055 84.082 37.734 25.012 1.6836 46.5-6.2422 63.812-17.703 17.312-11.461 30.723-26.367 40.844-39.309 10.121-12.938 17.914-24.75 19.891-26.797 15.184-15.691 36.227-24.113 56.84-45.766 1.8672-1.9609 10.559-9.8945 11.859-22.215 0.65234-6.1602-1.1602-13.465-6.1875-19.586-5.0195-6.1211-12.75-11.219-24.02-15.691-10.215-4.0508-19.172-6.1211-27.207-6.6641zm17.125-22.797c11.312 0.69141 23.598 3.2773 35.957 7.9648 14.688 5.5664 25.199 11.703 33.359 21.191 7.0312 8.1758 11.18 23.027 10.254 31.379-1.1875 10.727-5.0352 18.02-8.6484 23.004-1.8047 2.4922-3.5742 4.332-4.9219 5.6406-0.67578 0.65234-1.2109 1.1719-1.7109 1.6055s-0.32812 0.11719-2.1875 1.9844c-24.773 24.852-44.68 32.523-61.352 47.168-0.09375 0.050781-0.24219 0.097656-0.30859 0.13672-1.4453 0.86328-1.9844 1.3164-2.4609 1.7109-0.95703 0.78516-1.4102 1.2461-1.9141 1.7422-1.4961 1.5391-2.6875 3.3203-3.5195 5.2656-0.65625 0.88672-0.85547 1.1367-1.8789 2.4609-4.0273 5.1992-10.383 13.145-16.746 20.918-12.305 15.023-28.57 32.441-50.621 46.383-21.719 13.73-50.309 23.902-82.441 21.84-32.148-2.0625-67.484-15.934-104.9-44.504-0.14453-0.10547-0.29297-0.20703-0.44531-0.30859-0.66406-0.47656-20.301-14.633-39.375-34.555-9.8125-10.262-18.957-21.098-25.836-34.598-6.6875-13.129-11.527-30.082-3.5898-47.305 5.375-11.66 14.512-17.426 23.754-21.633 9.3125-4.2422 18.227-6.4492 28.852-8.4102 20.91-3.8594 45.047-5.457 70.887-7.0742 26.062-1.6328 53.566-3.7656 77.621-6.7344 24.055-2.9688 43.836-6.043 58.855-12.508 15.223-6.5508 24.586-14.012 43.41-19.723 8.2305-2.4961 18.594-3.7344 29.906-3.043z"/>
</svg>
