<?xml version="1.0" encoding="UTF-8"?>
<svg width="504px" height="354px" viewBox="0 0 504 354" version="1.1" xmlns="http://www.w3.org/2000/svg" xmlns:xlink="http://www.w3.org/1999/xlink">
    <title>Shape</title>
    <g id="Page-1" stroke="none" stroke-width="1" fill="none" fill-rule="evenodd">
        <g id="chicken2" transform="translate(-0.061161, 0.476550)" fill="#000000" fill-rule="nonzero">
            <path d="M458.701161,61.86345 C456.466761,59.25015 455.341761,56.07825 455.341761,52.34785 C455.341761,47.49235 456.556561,43.66035 458.974561,40.86385 C462.341761,37.87945 466.076161,36.10215 470.173561,35.55135 C474.845461,35.92244 478.861061,37.51225 482.212561,40.31305 C485.380561,43.29745 486.974261,47.02785 486.974261,51.51205 L487.259421,54.31285 C488.005511,56.00035 489.220321,56.92615 490.892221,57.11365 C493.876621,57.67224 496.587521,59.16835 499.013321,61.59805 C502.181321,64.76605 503.868821,68.49645 504.052421,72.79705 C504.423511,77.26975 502.837621,81.19545 499.286821,84.55905 C496.302421,87.72705 492.853221,89.41455 488.927821,89.59815 C484.447321,89.59815 480.529421,88.01225 477.161821,84.82865 L476.603231,84.00053 C476.044641,82.87553 475.107131,82.12943 473.802431,81.76223 C472.497731,81.39114 471.189131,81.66067 469.880531,82.60207 L439.360531,105.83207 L427.880531,90.15607 L457.845531,68.31607 C458.958831,67.38638 459.525231,66.26137 459.525231,64.95667 C459.915851,63.81997 459.634611,62.80047 458.701011,61.86287 L458.701161,61.86345 Z M326.541161,164.06301 C325.420061,164.06301 324.486461,164.43454 323.740361,165.18845 C304.326361,185.90345 300.037361,205.97345 310.861361,225.38745 C311.791051,226.87575 313.189461,227.61795 315.060561,227.61795 L317.021461,227.34451 C319.634761,225.47341 320.189461,223.41871 318.701161,221.18431 C309.740261,205.49631 313.474561,188.88331 329.900161,171.34431 C330.833751,170.59822 331.298561,169.47321 331.298561,167.98491 C331.298561,166.85991 330.833721,165.93021 329.900161,165.18411 C329.157971,164.43802 328.032961,164.06301 326.540761,164.06301 L326.541161,164.06301 Z M352.295161,124.30945 L352.576411,124.30945 C371.060411,114.79385 393.740411,104.89545 420.615411,94.62145 L432.377411,111.42245 L432.377411,111.70761 C426.963311,122.72361 423.416511,130.27761 421.744411,134.39561 C418.377211,143.35651 416.705311,152.41161 416.705311,161.55561 C416.705311,168.27041 423.056911,181.34061 435.744311,200.75461 C447.506311,219.22761 453.377311,235.09861 453.377311,248.35661 C453.377311,259.55561 448.432011,272.89961 438.541311,288.39561 C431.076511,299.41161 422.389311,308.55561 412.502311,315.82561 L34.2223111,315.82561 C36.2770111,268.42361 49.5273111,226.42361 73.9843111,189.82561 C107.023311,140.55261 156.398311,112.55261 222.104311,105.82561 C233.303311,104.89592 243.854311,104.42721 253.745311,104.42721 C275.581311,104.42721 297.706311,107.69671 320.104311,114.22801 C327.569111,116.46631 334.288311,118.81001 340.268311,121.22801 C334.483111,124.22411 329.627311,127.11471 325.702311,129.91551 L320.667111,133.55611 C319.362411,134.4858 318.514811,135.23191 318.147611,135.79441 C288.092611,158.38041 273.069611,184.32541 273.069611,213.62241 C273.069611,227.43841 278.014911,240.22441 287.905611,251.99341 C298.362611,264.68441 310.491611,271.68441 324.303611,272.99341 C327.104411,273.3645 328.690311,272.15357 329.069211,269.35281 C329.440301,266.55201 328.135621,264.96611 325.147311,264.59111 C313.198311,263.09111 303.026311,257.12231 294.627311,246.66511 C286.041411,236.02411 281.748311,225.02011 281.748311,213.62611 C281.748311,187.12611 295.748311,163.32511 323.748311,142.22811 L324.584251,141.39999 L330.748351,137.20079 C335.408551,133.82189 342.592351,129.53279 352.295351,124.30979 L352.295161,124.30945 Z M269.424161,132.99305 C270.357751,132.23524 270.822561,131.30555 270.822561,130.19225 C271.006151,129.06725 270.728811,128.03605 269.982721,127.10635 C269.053031,125.99305 268.021821,125.41885 266.904621,125.41885 L259.904621,125.14541 C248.334621,125.14541 238.720621,125.704 231.068621,126.82121 C189.439621,130.74701 154.716621,144.09121 126.908621,166.86021 C125.975031,167.61802 125.412521,168.62971 125.228921,169.94611 C125.045331,171.24691 125.322671,172.27421 126.068761,173.02031 C126.998451,173.96172 128.213261,174.41871 129.701561,174.41871 C130.635151,174.41871 131.474961,174.14527 132.221061,173.59059 C158.916061,151.93459 192.143061,139.14959 231.901061,135.21959 C239.740861,134.2899 249.077061,133.82119 259.901061,133.82119 L266.065161,133.82119 C267.182361,134.02041 268.299561,133.731346 269.428461,132.99307 L269.424161,132.99305 Z M319.822161,99.10605 L317.861261,104.70765 C296.205261,98.73885 274.830261,95.74675 253.740261,95.74675 L237.775261,96.30534 C256.259261,85.28934 283.142261,72.97734 318.416261,59.34434 L330.736261,76.41834 L330.455011,76.7035 C325.232311,86.7935 321.685511,94.2545 319.822011,99.1055 L319.822161,99.10605 Z M389.263161,21.82105 C392.063961,22.39136 394.677261,23.87575 397.099061,26.30545 C400.274861,29.47345 401.954561,33.30545 402.138161,37.78945 C402.321751,42.07855 400.833461,45.71915 397.657661,48.70345 C394.856861,52.06285 391.306061,53.93395 387.016661,54.30505 C382.719761,54.30505 378.895561,52.61755 375.536661,49.26595 L374.696821,48.70736 C374.138231,47.59406 373.200721,46.83626 371.896021,46.46906 C370.399921,46.09797 369.095221,46.379216 367.974121,47.3089 L337.458121,70.5469 L325.978121,54.8629 L355.943121,32.7499 C357.064221,32.00381 357.622821,30.9804 357.622821,29.664 C357.993911,28.5507 357.716571,27.5195 356.782981,26.5898 C354.169681,23.789 352.868881,20.7031 352.868881,17.3515 C352.868881,12.6796 354.364981,8.664 357.349381,5.3125 C360.333781,2.5117 363.974381,0.7422 368.271381,2.84217094e-14 C373.306581,0.55859 377.322181,2.2305 380.306381,5.0273 C383.290781,7.6406 384.786881,11.2812 384.786881,15.9533 L385.907981,19.5939 C386.646261,20.7072 387.759581,21.4533 389.263481,21.8205 L389.263161,21.82105 Z M457.021161,153.42105 C457.021161,159.02265 462.989961,171.16305 474.943161,189.81905 C475.689251,190.76046 475.966561,191.87375 475.779101,193.19015 C475.408011,194.49095 474.755701,195.42065 473.818201,195.99095 L471.579901,196.81907 C469.900201,196.81907 468.595501,196.17454 467.665801,194.85817 C454.778801,174.69817 448.345801,160.88917 448.345801,153.41717 C448.345801,145.21407 449.466901,137.18717 451.705201,129.34317 C452.455201,126.54237 454.318501,125.61267 457.306801,126.54237 C459.920101,127.28846 460.857601,129.05797 460.107601,131.85487 C458.049001,139.14787 457.021701,146.33187 457.021701,153.42087 L457.021161,153.42105 Z M495.095161,237.14805 C496.216261,237.89414 496.868561,238.82385 497.059961,239.94885 C497.618551,244.04655 497.895901,248.06215 497.895901,251.98785 C497.895901,267.28885 491.829501,284.00385 479.696901,302.10085 C476.153901,307.88605 470.736001,314.22985 463.462901,321.13985 C462.158201,321.88594 461.033201,322.25315 460.095701,322.25315 C458.974601,322.25315 457.951201,321.79221 457.017601,320.85475 C455.154301,318.61645 455.248101,316.46805 457.298851,314.41335 C464.392651,307.88215 469.435851,302.28435 472.419851,297.61235 C483.618851,280.62835 489.220851,265.41335 489.220851,251.98335 C489.220851,247.31145 489.037261,243.76855 488.662261,241.34235 C488.478671,240.21735 488.662261,239.19785 489.220851,238.25645 C489.966941,237.32676 490.900551,236.76815 492.021651,236.58065 C493.134951,236.40096 494.162251,236.592368 495.095851,237.14706 L495.095161,237.14805 Z M285.665161,283.90605 C285.665161,281.10525 284.266761,279.70685 281.465961,279.70685 L197.746961,279.70685 C194.762561,279.70685 193.266461,281.10525 193.266461,283.90605 C193.266461,286.89045 194.762561,288.39045 197.746961,288.39045 L281.465961,288.39045 C282.579261,288.39045 283.610461,288.01936 284.544061,287.26545 C285.290151,286.14825 285.665161,285.02325 285.665161,283.90605 Z M406.345161,353.06205 L68.9451611,353.06205 C65.9607611,353.06205 64.4646611,351.66365 64.4646611,348.86285 C64.4646611,345.87845 65.9607611,344.39015 68.9451611,344.39015 L406.345161,344.39015 C409.145961,344.39015 410.544361,345.87845 410.544361,348.86285 C410.544361,351.65975 409.145961,353.06205 406.345161,353.06205 Z M128.295161,18.74205 C131.095961,18.74205 132.494361,20.14045 132.494361,22.94125 L132.494361,41.70325 C132.494361,43.01185 132.123271,44.13295 131.373261,45.06265 C130.443571,45.82046 129.412361,46.18765 128.295161,46.18765 C125.310761,46.18765 123.814661,44.68765 123.814661,41.70325 L123.814661,22.94125 C123.822474,20.14435 125.310761,18.74205 128.295161,18.74205 L128.295161,18.74205 Z M112.623161,63.81605 C111.689571,64.57386 110.568461,64.94105 109.263761,64.94105 L90.4977611,64.944956 C87.6969611,64.944956 86.2985611,63.546556 86.2985611,60.745756 C86.2985611,57.761356 87.6969611,56.261356 90.4977611,56.261356 L109.263761,56.261356 C112.248161,56.261356 113.744261,57.761356 113.744261,60.745756 C113.744261,61.859056 113.361451,62.886356 112.623161,63.816056 L112.623161,63.81605 Z M128.295161,102.74205 C125.310761,102.74205 123.814661,101.24205 123.814661,98.25765 L123.814661,79.49565 C123.814661,76.51125 125.310761,75.01125 128.295161,75.01125 C131.095961,75.01125 132.494361,76.51125 132.494361,79.49565 L132.494361,98.25765 C132.494361,99.38265 132.123271,100.49595 131.373261,101.61705 C130.447481,102.37486 129.424061,102.74205 128.295161,102.74205 Z M62.2211611,138.01905 C62.9711611,137.27296 63.9008611,136.90575 65.0219611,136.90575 C66.3266611,136.90575 67.4516611,137.27684 68.3813611,138.01905 C69.3149511,138.77686 69.7797611,139.70655 69.7797611,140.81985 C69.7797611,142.12845 69.3149211,143.24955 68.3813611,144.19095 C60.1704611,152.40575 52.7953611,161.44895 46.2683611,171.35095 C26.0963611,201.21395 13.4983611,235.27295 8.46336111,273.54095 C8.08836111,275.97065 6.77586111,277.18155 4.54146111,277.18155 L3.97896111,277.18155 C0.994561107,276.81046 -0.317938893,275.31045 0.0648611074,272.69715 C5.10006111,233.12715 18.0808611,197.65815 38.9788611,166.29715 C47.1936611,155.09815 54.9438611,145.66815 62.2208611,138.01615 L62.2211611,138.01905 Z M147.061161,56.25705 L165.823161,56.25705 C168.807561,56.25705 170.303661,57.75705 170.303661,60.74145 C170.303661,61.85475 169.932571,62.88595 169.182561,63.81565 C168.069261,64.57346 166.948161,64.94065 165.823161,64.94065 L147.061161,64.94065 C144.076761,64.94065 142.576761,63.54225 142.576761,60.74145 C142.576761,57.75705 144.076761,56.25705 147.061161,56.25705 L147.061161,56.25705 Z M102.823161,205.50705 C104.502861,203.26875 104.319261,201.21795 102.264571,199.34685 C99.8348711,197.65935 97.7801711,197.84685 96.1004711,199.90544 L83.4984711,219.21744 C82.1937711,221.83074 82.8500311,223.79944 85.4632711,225.10414 L87.4241711,225.66273 C89.1038711,225.66273 90.4085711,224.91664 91.3460711,223.42443 C93.7718711,218.76423 96.3812711,214.46353 99.1819711,210.54943 L102.823161,205.50705 Z" id="Shape"></path>
        </g>
    </g>
</svg>