<?xml version="1.0" encoding="UTF-8"?>
<svg width="700pt" height="700pt" version="1.1" viewBox="0 0 700 700" xmlns="http://www.w3.org/2000/svg" xmlns:xlink="http://www.w3.org/1999/xlink">
 <defs>
  <symbol id="p" overflow="visible">
   <path d="m29.312-1.75c-1.5117 0.78125-3.0898 1.3711-4.7344 1.7656-1.6367 0.40625-3.3398 0.60938-5.1094 0.60938-5.3125 0-9.5273-1.4844-12.641-4.4531-3.1055-2.9688-4.6562-7-4.6562-12.094s1.5508-9.125 4.6562-12.094c3.1133-2.9688 7.3281-4.4531 12.641-4.4531 1.7695 0 3.4727 0.19922 5.1094 0.59375 1.6445 0.39844 3.2227 0.99219 4.7344 1.7812v6.5938c-1.5312-1.0391-3.0391-1.8008-4.5156-2.2812-1.4805-0.48828-3.0391-0.73438-4.6719-0.73438-2.9375 0-5.2461 0.94531-6.9219 2.8281-1.6797 1.875-2.5156 4.4648-2.5156 7.7656 0 3.293 0.83594 5.8828 2.5156 7.7656 1.6758 1.875 3.9844 2.8125 6.9219 2.8125 1.6328 0 3.1914-0.23828 4.6719-0.71875 1.4766-0.48828 2.9844-1.2539 4.5156-2.2969z"/>
  </symbol>
  <symbol id="j" overflow="visible">
   <path d="m21.453-17.406c-0.67969-0.3125-1.3516-0.53906-2.0156-0.6875-0.65625-0.15625-1.3203-0.23438-1.9844-0.23438-1.9688 0-3.4844 0.63281-4.5469 1.8906-1.0547 1.2617-1.5781 3.0703-1.5781 5.4219v11.016h-7.6562v-23.922h7.6562v3.9219c0.97656-1.5625 2.1016-2.7031 3.375-3.4219 1.2812-0.71875 2.8125-1.0781 4.5938-1.0781 0.25 0 0.52344 0.011719 0.82812 0.03125 0.30078 0.023438 0.73438 0.070312 1.2969 0.14062z"/>
  </symbol>
  <symbol id="b" overflow="visible">
   <path d="m27.562-12.031v2.1875h-17.891c0.1875 1.793 0.83203 3.1367 1.9375 4.0312 1.1133 0.89844 2.6719 1.3438 4.6719 1.3438 1.6016 0 3.25-0.23438 4.9375-0.70312 1.6875-0.47656 3.4219-1.2031 5.2031-2.1719v5.8906c-1.8047 0.6875-3.6094 1.2031-5.4219 1.5469-1.8125 0.35156-3.6211 0.53125-5.4219 0.53125-4.3359 0-7.7031-1.0977-10.109-3.2969-2.3984-2.207-3.5938-5.2969-3.5938-9.2656 0-3.9062 1.1758-6.9727 3.5312-9.2031 2.3633-2.2383 5.6094-3.3594 9.7344-3.3594 3.7578 0 6.7695 1.1367 9.0312 3.4062 2.2578 2.2617 3.3906 5.2812 3.3906 9.0625zm-7.8594-2.5312c0-1.457-0.42969-2.6289-1.2812-3.5156-0.84375-0.89453-1.9492-1.3438-3.3125-1.3438-1.4922 0-2.6992 0.41797-3.625 1.25-0.91797 0.83594-1.4922 2.0391-1.7188 3.6094z"/>
  </symbol>
  <symbol id="i" overflow="visible">
   <path d="m14.391-10.766c-1.5938 0-2.793 0.27344-3.5938 0.8125-0.80469 0.54297-1.2031 1.3398-1.2031 2.3906 0 0.96875 0.32031 1.7305 0.96875 2.2812 0.64453 0.54297 1.5469 0.8125 2.7031 0.8125 1.4375 0 2.6445-0.51562 3.625-1.5469 0.98828-1.0312 1.4844-2.3203 1.4844-3.875v-0.875zm11.688-2.8906v13.656h-7.7031v-3.5469c-1.0312 1.4492-2.1875 2.5078-3.4688 3.1719s-2.8398 1-4.6719 1c-2.4805 0-4.4961-0.72266-6.0469-2.1719-1.543-1.4453-2.3125-3.3203-2.3125-5.625 0-2.8125 0.96094-4.8672 2.8906-6.1719 1.9375-1.3125 4.9688-1.9688 9.0938-1.9688h4.5156v-0.60938c0-1.207-0.48047-2.0938-1.4375-2.6562-0.94922-0.5625-2.4375-0.84375-4.4688-0.84375-1.6367 0-3.1562 0.16797-4.5625 0.5-1.4062 0.32422-2.7188 0.8125-3.9375 1.4688v-5.8281c1.6445-0.40625 3.2891-0.70703 4.9375-0.90625 1.6562-0.20703 3.3047-0.3125 4.9531-0.3125 4.3203 0 7.4375 0.85547 9.3438 2.5625 1.9141 1.6992 2.875 4.4609 2.875 8.2812z"/>
  </symbol>
  <symbol id="h" overflow="visible">
   <path d="m12.031-30.719v6.7969h7.875v5.4688h-7.875v10.141c0 1.1172 0.21875 1.8711 0.65625 2.2656 0.4375 0.38672 1.3125 0.57812 2.625 0.57812h3.9375v5.4688h-6.5625c-3.0234 0-5.1641-0.62891-6.4219-1.8906-1.2617-1.2578-1.8906-3.3984-1.8906-6.4219v-10.141h-3.7969v-5.4688h3.7969v-6.7969z"/>
  </symbol>
  <symbol id="g" overflow="visible">
   <path d="m19.953-20.422v-12.812h7.6875v33.234h-7.6875v-3.4531c-1.0547 1.4062-2.2148 2.4375-3.4844 3.0938-1.2734 0.65625-2.7422 0.98438-4.4062 0.98438-2.9492 0-5.3711-1.1719-7.2656-3.5156-1.8867-2.3438-2.8281-5.3594-2.8281-9.0469s0.94141-6.7031 2.8281-9.0469c1.8945-2.3438 4.3164-3.5156 7.2656-3.5156 1.6562 0 3.1172 0.33594 4.3906 1 1.2812 0.65625 2.4453 1.6836 3.5 3.0781zm-5.0469 15.484c1.6445 0 2.8945-0.59766 3.75-1.7969 0.86328-1.1953 1.2969-2.9297 1.2969-5.2031 0-2.2812-0.43359-4.0195-1.2969-5.2188-0.85547-1.1953-2.1055-1.7969-3.75-1.7969-1.625 0-2.8711 0.60156-3.7344 1.7969-0.85547 1.1992-1.2812 2.9375-1.2812 5.2188 0 2.2734 0.42578 4.0078 1.2812 5.2031 0.86328 1.1992 2.1094 1.7969 3.7344 1.7969z"/>
  </symbol>
  <symbol id="f" overflow="visible">
   <path d="m16.406-4.9375c1.6328 0 2.8828-0.59766 3.75-1.7969 0.86328-1.1953 1.2969-2.9297 1.2969-5.2031 0-2.2812-0.43359-4.0195-1.2969-5.2188-0.86719-1.1953-2.1172-1.7969-3.75-1.7969-1.6367 0-2.8906 0.60547-3.7656 1.8125-0.875 1.1992-1.3125 2.9336-1.3125 5.2031 0 2.2617 0.4375 3.9961 1.3125 5.2031 0.875 1.1992 2.1289 1.7969 3.7656 1.7969zm-5.0781-15.484c1.0508-1.3945 2.2188-2.4219 3.5-3.0781 1.2812-0.66406 2.7539-1 4.4219-1 2.9453 0 5.3672 1.1719 7.2656 3.5156 1.8945 2.3438 2.8438 5.3594 2.8438 9.0469s-0.94922 6.7031-2.8438 9.0469c-1.8984 2.3438-4.3203 3.5156-7.2656 3.5156-1.668 0-3.1406-0.33594-4.4219-1s-2.4492-1.6914-3.5-3.0781v3.4531h-7.6562v-33.234h7.6562z"/>
  </symbol>
  <symbol id="e" overflow="visible">
   <path d="m0.53125-23.922h7.6562l6.4219 16.234 5.4688-16.234h7.6562l-10.062 26.188c-1.0117 2.6641-2.1953 4.5234-3.5469 5.5781-1.3438 1.0625-3.1211 1.5938-5.3281 1.5938h-4.4219v-5.0156h2.3906c1.3008 0 2.2422-0.21094 2.8281-0.625 0.59375-0.40625 1.0547-1.1484 1.3906-2.2188l0.20312-0.65625z"/>
  </symbol>
  <symbol id="a" overflow="visible">
   <path d="m4.0156-31.891h8.2188v25.672h14.453v6.2188h-22.672z"/>
  </symbol>
  <symbol id="o" overflow="visible">
   <path d="m4.0156-31.891h8.2188v19.109c0 2.6367 0.42969 4.5234 1.2969 5.6562 0.86328 1.1367 2.2695 1.7031 4.2188 1.7031 1.9688 0 3.3789-0.56641 4.2344-1.7031 0.86328-1.1328 1.2969-3.0195 1.2969-5.6562v-19.109h8.2344v19.109c0 4.5234-1.1367 7.8867-3.4062 10.094-2.2617 2.2109-5.7148 3.3125-10.359 3.3125-4.625 0-8.0742-1.1016-10.344-3.3125-2.2617-2.207-3.3906-5.5703-3.3906-10.094z"/>
  </symbol>
  <symbol id="n" overflow="visible">
   <path d="m0.21875-31.891h29.391v6.2188h-10.578v25.672h-8.2188v-25.672h-10.594z"/>
  </symbol>
  <symbol id="m" overflow="visible">
   <path d="m4.0156-31.891h22.203v6.2188h-13.984v5.9375h13.141v6.2188h-13.141v13.516h-8.2188z"/>
  </symbol>
  <symbol id="d" overflow="visible">
   <path d="m4.0156-31.891h8.2188v31.891h-8.2188z"/>
  </symbol>
  <symbol id="l" overflow="visible">
   <path d="m32.688-2.375c-2.0547 1-4.1836 1.75-6.3906 2.25-2.2109 0.5-4.4844 0.75-6.8281 0.75-5.3125 0-9.5273-1.4844-12.641-4.4531-3.1055-2.9688-4.6562-7-4.6562-12.094 0-5.1328 1.5781-9.1758 4.7344-12.125 3.1641-2.9453 7.5-4.4219 13-4.4219 2.125 0 4.1562 0.19922 6.0938 0.59375 1.9453 0.39844 3.7852 0.99219 5.5156 1.7812v6.5938c-1.7812-1.0078-3.5547-1.7656-5.3125-2.2656-1.7617-0.5-3.5273-0.75-5.2969-0.75-3.2734 0-5.793 0.91797-7.5625 2.75-1.7734 1.8359-2.6562 4.4492-2.6562 7.8438 0 3.375 0.85156 5.9844 2.5625 7.8281 1.707 1.8359 4.1328 2.75 7.2812 2.75 0.85156 0 1.6445-0.050781 2.375-0.15625 0.73828-0.10156 1.3984-0.26953 1.9844-0.5v-6.2031h-5.0312v-5.5h12.828z"/>
  </symbol>
  <symbol id="c" overflow="visible">
   <path d="m23.375-5.8125h-12.859l-2.0312 5.8125h-8.2656l11.812-31.891h9.7969l11.812 31.891h-8.2656zm-10.812-5.9219h8.7344l-4.3594-12.688z"/>
  </symbol>
  <symbol id="k" overflow="visible">
   <path d="m4.0156-31.891h9.1875l11.594 21.875v-21.875h7.7969v31.891h-9.1875l-11.594-21.875v21.875h-7.7969z"/>
  </symbol>
 </defs>
 <g>
  <path d="m602.96 264.43c1.5156-10.398 2.0742-20.914 1.6641-31.414 0-0.96094-5.3359-95.113-84.961-136.32-32.023-16.539-85.488-28.789-158.29 6.9141-14.098 6.5859-26.695 15.996-37.012 27.648-8.2852 9.0898-17.867 16.902-28.438 23.188-37.711 23.102-70.613 25.023-99.664 26.773s-57.312 3.4141-78.75 28.438c-11.57 14.352-18.66 31.789-20.387 50.141 0 0-0.4375 0.875-0.52344 1.3125-1.7031 11.602-1.7031 23.395 0 35v34.387c0.58594 22.012 6.0547 43.621 16.012 63.262 23.801 45.062 66.938 62.039 110.16 73.676h-0.003906c38.117 8.9766 77.227 13.035 116.38 12.074h2.8867c65.188 0 138.86-6.125 194.16-48.738 33.336-25.727 71.312-63.438 68.336-127.14v-32.551h0.003906c0.097657-2.3203-0.44922-4.6211-1.5781-6.6484zm-465.15-37.977c13.914-16.449 33.25-17.5 60.023-19.164 30.539-1.8359 68.512-4.1133 111.74-30.625v0.003906c12.547-7.4531 23.926-16.711 33.777-27.477 8.1875-9.3359 18.27-16.824 29.574-21.961 50.574-24.852 96.25-27.301 134.66-7.2617 65.977 34.125 70.699 113.75 70.789 114.27h-0.003906c0.55078 11.742-0.41797 23.508-2.8867 35-0.1875 0.69141-0.33594 1.3906-0.4375 2.0977-7.7578 34.289-27.145 64.832-54.863 86.453-49.875 38.414-119.44 43.75-180.95 43.227v-0.003906c-36.902 0.95312-73.777-2.8086-109.73-11.199-37.012-10.238-74.637-24.5-93.711-60.812-16.012-30.363-19.688-77 2.0117-102.55zm382.38 183.75c-49.875 38.5-119.52 43.75-180.95 43.312-36.902 0.91016-73.77-2.8516-109.73-11.199-37.012-10.324-74.637-24.586-93.711-60.812-2.4258-4.5-4.5039-9.1836-6.2148-14 32.289 35 93.887 63.352 210 59.762h2.9766c65.102 0 138.43-6.2109 193.64-48.738 15.48-11.961 28.82-26.457 39.465-42.875-6.3008 26.863-23.715 49.875-55.477 74.289z"/>
  <path d="m173.07 303.01c5.332 14.195 13.973 26.914 25.199 37.102 22.996 18.293 51.305 28.641 80.676 29.488 7.1445 0.082032 14.262-0.95312 21.09-3.0625 7.9688-2.3398 15.129-6.8555 20.68-13.039 5.5469-6.1797 9.2617-13.785 10.73-21.961 1.8164-12.41 0.76953-25.07-3.0625-37.016l-10.852-42.789 0.003906 0.003906c-1.4375-8.9727-5.3438-17.367-11.289-24.238-16.188-16.012-41.301-8.75-50.75-5.5117l-50.574 15.398c-8.168 1.9883-15.809 5.7188-22.402 10.938-16.188 14.262-15.312 37.539-8.75 54.602zm26.25-35c3.9102-2.6172 8.2695-4.4883 12.863-5.5117l50.312-15.312c4.8984-1.3984 19.602-5.9492 24.676-0.96094 2.3984 3.5859 4.0117 7.6406 4.7227 11.898l10.762 42.789h0.003906c2.7656 8.0938 3.7188 16.695 2.7969 25.199-0.56641 3.5469-2.1367 6.8555-4.5234 9.5391-2.3867 2.6797-5.4922 4.625-8.9492 5.5977-21.699 6.9141-61.25-7.6133-75.949-20.824-8.1055-7.2344-14.375-16.293-18.289-26.426-3.2383-8.8359-4.1133-20.738 1.75-25.898z"/>
  <path d="m384.39 282.19h3.5c11.812-1.3984 22.875-6.5156 31.59-14.613 3.5859-3.0625 6.9141-6.3008 10.238-9.625 3.3242-3.3242 6.3867-6.2109 9.625-8.75h-0.003906c15.273-12.227 34.844-17.75 54.25-15.312h3.5898c5.6328 1.5664 11.602 1.4492 17.168-0.33984s10.488-5.168 14.156-9.7227c4.5625-6.5586 7.1992-14.262 7.6172-22.238 0.41797-7.9766-1.4023-15.914-5.2539-22.91-7.6836-15.051-19.242-27.777-33.484-36.867-14.246-9.0938-30.656-14.219-47.543-14.848-33.277-0.54688-65.172 13.293-87.5 37.977-13.312 13.637-22.008 31.113-24.848 49.961-1.8672 19.723 4.4609 39.34 17.5 54.25 7.5156 8.3047 18.195 13.043 29.398 13.039zm-20.477-64.051h0.003906c2.375-13.223 8.6875-25.422 18.109-35 16.332-18.453 39.594-29.289 64.227-29.926h2.8008c12.141 0.32422 23.977 3.9023 34.258 10.367 10.285 6.4688 18.641 15.578 24.191 26.383 3.1445 5.3516 3.4102 11.918 0.69922 17.5-0.16016 0.26953-0.36719 0.50781-0.61328 0.70312-2.082 0.085938-4.1719-0.089843-6.2109-0.52734l-4.2891-0.52344c-26.523-3.2656-53.238 4.375-74.023 21.176-4.1133 3.3242-7.6992 6.9141-11.289 10.414-3.5859 3.5-5.7734 5.6875-8.75 8.3125v-0.003906c-4.5859 4.5977-10.484 7.6562-16.887 8.75-4.3008 0.36328-8.5-1.4414-11.199-4.8125-7.8203-9.0742-11.777-20.855-11.023-32.812z"/>
  <path d="m517.65 252.09c-11.988-6.0391-28.352 0.875-43.75 8.1367v0.003906c-10.395 5.1328-20.422 10.98-30.012 17.5-17.5 11.637-36.664 22.75-55.125 20.211h-1.3125c-6.6289-1.6328-13.629-0.79297-19.688 2.3633-8.0156 5.6992-12.543 15.117-11.988 24.938-0.52344 9.9766-1.5742 33.426 16.273 44.887h0.003906c6.3984 3.7734 13.75 5.625 21.176 5.3359 2.9219-0.027344 5.8438-0.20313 8.75-0.52344 20.504-1.1641 40.797-4.7461 60.461-10.676 21.453-6.4609 40.281-19.613 53.727-37.535 7.6523-10.758 12.332-23.344 13.562-36.488 2.4492-20.125-1.8398-32.988-12.078-38.152zm-13.477 35.961 0.003906 0.003906c-0.80078 8.5312-3.8164 16.703-8.75 23.711-10.258 13.25-24.387 22.973-40.426 27.824-17.727 5.1914-35.984 8.3633-54.426 9.4531-4.6094 0.85547-9.3594 0.55469-13.824-0.875-5.0742-3.2383-4.4609-17.062-4.2891-21.523v-2.8008h2.9766c27.387 3.8516 52.5-10.5 73.852-24.762v-0.003906c8.5859-5.9727 17.594-11.324 26.949-16.012 5.7422-2.9883 11.785-5.3633 18.023-7.0859 0.45312 4.0117 0.42578 8.0664-0.085938 12.074z"/>
  <use x="70" y="691.25" xlink:href="#p"/>
  <use x="102.109375" y="691.25" xlink:href="#j"/>
  <use x="123.683594" y="691.25" xlink:href="#b"/>
  <use x="153.355469" y="691.25" xlink:href="#i"/>
  <use x="182.878906" y="691.25" xlink:href="#h"/>
  <use x="203.792969" y="691.25" xlink:href="#b"/>
  <use x="233.464844" y="691.25" xlink:href="#g"/>
  <use x="280.011719" y="691.25" xlink:href="#f"/>
  <use x="311.328125" y="691.25" xlink:href="#e"/>
  <use x="355.078125" y="691.25" xlink:href="#a"/>
  <use x="382.957031" y="691.25" xlink:href="#o"/>
  <use x="418.484375" y="691.25" xlink:href="#n"/>
  <use x="448.328125" y="691.25" xlink:href="#m"/>
  <use x="478.210937" y="691.25" xlink:href="#d"/>
  <use x="509.722656" y="691.25" xlink:href="#l"/>
  <use x="545.632812" y="691.25" xlink:href="#c"/>
  <use x="579.492188" y="691.25" xlink:href="#k"/>
  <use x="616.105469" y="691.25" xlink:href="#d"/>
  <use x="647.617188" y="691.25" xlink:href="#c"/>
  <use x="681.476562" y="691.25" xlink:href="#a"/>
 </g>
</svg>
