<?xml version="1.0" encoding="UTF-8"?>
<svg width="700pt" height="700pt" version="1.1" viewBox="0 0 700 700" xmlns="http://www.w3.org/2000/svg">
 <path d="m291.67 373.33c0 15.473 6.1445 30.309 17.086 41.25 10.938 10.938 25.773 17.086 41.246 17.086s30.309-6.1484 41.246-17.086c10.941-10.941 17.086-25.777 17.086-41.25 0-15.469-6.1445-30.309-17.086-41.246-10.938-10.941-25.773-17.086-41.246-17.086-15.465 0.015625-30.293 6.168-41.23 17.102-10.938 10.938-17.086 25.766-17.102 41.23zm93.332 0c0 9.2852-3.6875 18.188-10.25 24.75-6.5664 6.5625-15.469 10.25-24.75 10.25s-18.184-3.6875-24.75-10.25c-6.5625-6.5625-10.25-15.465-10.25-24.75 0-9.2812 3.6875-18.184 10.25-24.746 6.5664-6.5664 15.469-10.254 24.75-10.254 9.2812 0.011719 18.176 3.7031 24.738 10.266 6.5625 6.5586 10.25 15.457 10.262 24.734zm-35-315c-137.38 0-245 46.121-245 105v233.34c0 58.879 107.62 105 245 105s245-46.121 245-105v-233.34c0-58.879-107.62-105-245-105zm221.67 338.34c0 38.621-91.031 81.668-221.67 81.668-130.63-0.003907-221.67-43.047-221.67-81.668v-188.14c38.773 35.625 122.32 59.809 221.67 59.809s182.89-24.184 221.67-59.809zm-221.67-151.67c-130.63 0-221.67-43.043-221.67-81.668 0-38.621 91.035-81.664 221.67-81.664s221.67 43.043 221.67 81.664c0 38.625-91.035 81.668-221.67 81.668zm0-128.33c-56.328 0-151.67 9.832-151.67 46.668 0 36.832 95.34 46.664 151.67 46.664s151.67-9.832 151.67-46.668c0-36.832-95.34-46.664-151.67-46.664zm0 70c-77.883 0-124.34-15.496-128.47-22.5 4.125-8.6719 50.586-24.168 128.47-24.168 75.445 0 121.41 14.539 127.97 23.332-6.5625 8.7969-52.523 23.336-127.97 23.336z"/>
</svg>
