<svg width="2000" height="1700" viewBox="0 0 2000 1700" fill="none" xmlns="http://www.w3.org/2000/svg">
<g clip-path="url(#clip0_16_2)">
<rect width="2000" height="1700" fill="white"/>
<rect width="2000" height="1700" fill="#1F5080"/>
<rect x="1420" width="580" height="1700" fill="#1B3162"/>
<rect x="1525" width="475" height="208" fill="#0E2556"/>
<rect x="1460" width="65" height="1700" fill="#347B9E"/>
<rect x="1460" width="10" height="1700" fill="#399CB4"/>
<rect x="1576" y="350" width="444" height="60" fill="#347B9E"/>
<rect x="1576" y="670" width="444" height="60" fill="#347B9E"/>
<rect x="1576" y="990" width="444" height="60" fill="#347B9E"/>
<rect x="1626" y="410" width="444" height="60" fill="#0E2556"/>
<rect x="1626" y="730" width="444" height="60" fill="#0E2556"/>
<rect x="1626" y="1050" width="444" height="60" fill="#0E2556"/>
<rect x="1576" y="1457" width="444" height="60" fill="#347B9E"/>
<rect x="1626" y="1517" width="444" height="60" fill="#0E2556"/>
<rect x="1698" y="256" width="100" height="94" fill="#389DB4"/>
<rect x="1826" y="162" width="50" height="188" fill="#56AEC2"/>
<rect x="1830" y="1269" width="50" height="188" fill="#56AEC2"/>
<rect x="1904" y="182" width="56" height="168" fill="#389DB4"/>
<circle cx="1748.5" cy="302.5" r="33.5" fill="#347B9E"/>
<rect x="1607" y="323" width="171" height="27" fill="#6AC1D5"/>
<rect x="1607" y="323" width="171" height="27" fill="#6AC1D5"/>
<rect x="1607" y="303" width="91" height="27" fill="#6AC1D5"/>
<rect x="1607" y="303" width="91" height="27" fill="#3F9EB4"/>
<rect x="1904" y="198" width="51" height="19" fill="#347B9E"/>
<rect x="1904" y="308" width="51" height="19" fill="#347B9E"/>
<rect x="1789" y="496" width="191" height="174" fill="#56AEC2"/>
<rect x="1812" y="521" width="142" height="127" fill="#347B9E"/>
<path d="M1840.93 564V546.24H1844.67V564H1840.93ZM1836.61 564V560.976H1849.04V564H1836.61ZM1838.29 549.264V546.24H1842.8V549.264H1838.29ZM1857.26 564V550.656H1861V564H1857.26ZM1852.94 564V560.976H1865.37V564H1852.94ZM1854.62 553.68V550.656H1859.13V553.68H1854.62ZM1857.11 548.88V545.376H1861.1V548.88H1857.11ZM1873.3 564L1868.55 550.656H1872.46L1874.69 557.424L1875.51 560.736L1876.37 557.424L1878.55 550.656H1882.35L1877.62 564H1873.3ZM1891.91 564.288C1890.47 564.288 1889.23 564.008 1888.19 563.448C1887.16 562.888 1886.37 562.088 1885.81 561.048C1885.25 560.008 1884.97 558.768 1884.97 557.328C1884.97 555.872 1885.25 554.624 1885.81 553.584C1886.37 552.544 1887.18 551.752 1888.24 551.208C1889.31 550.648 1890.6 550.368 1892.1 550.368C1894.45 550.368 1896.16 551.04 1897.21 552.384C1898.28 553.712 1898.73 555.544 1898.56 557.88H1887.95L1887.97 555.312H1894.74C1894.69 554.704 1894.42 554.216 1893.92 553.848C1893.43 553.464 1892.81 553.272 1892.08 553.272C1890.92 553.272 1890.08 553.632 1889.53 554.352C1888.99 555.072 1888.72 556.12 1888.72 557.496C1888.72 558.184 1888.84 558.816 1889.08 559.392C1889.32 559.968 1889.67 560.432 1890.13 560.784C1890.61 561.12 1891.2 561.288 1891.91 561.288C1892.66 561.288 1893.29 561.104 1893.8 560.736C1894.33 560.368 1894.65 559.904 1894.76 559.344H1898.51C1898.35 560.864 1897.68 562.072 1896.49 562.968C1895.32 563.848 1893.8 564.288 1891.91 564.288ZM1840.93 595V577.24H1844.67V595H1840.93ZM1836.61 595V591.976H1849.04V595H1836.61ZM1838.29 580.264V577.24H1842.8V580.264H1838.29ZM1861.72 595L1861.6 592.6V586.024C1861.6 585.4 1861.37 584.912 1860.91 584.56C1860.44 584.192 1859.8 584.008 1858.99 584.008C1858.2 584.008 1857.56 584.176 1857.07 584.512C1856.59 584.832 1856.31 585.288 1856.23 585.88H1852.6C1852.68 584.936 1853 584.128 1853.56 583.456C1854.12 582.784 1854.87 582.272 1855.82 581.92C1856.78 581.552 1857.89 581.368 1859.15 581.368C1860.4 581.368 1861.49 581.56 1862.42 581.944C1863.35 582.312 1864.06 582.864 1864.55 583.6C1865.07 584.32 1865.32 585.208 1865.32 586.264V595H1861.72ZM1857.45 595.288C1856.57 595.288 1855.79 595.12 1855.12 594.784C1854.45 594.432 1853.93 593.952 1853.56 593.344C1853.19 592.736 1853.01 592.048 1853.01 591.28C1853.01 589.904 1853.54 588.84 1854.59 588.088C1855.67 587.32 1857.14 586.936 1859.01 586.936H1861.96V589.528L1858.91 589.552C1858.23 589.552 1857.67 589.68 1857.26 589.936C1856.86 590.176 1856.66 590.544 1856.66 591.04C1856.66 591.392 1856.8 591.696 1857.09 591.952C1857.39 592.208 1857.82 592.336 1858.36 592.336C1859.11 592.336 1859.78 592.152 1860.35 591.784C1860.95 591.4 1861.43 590.88 1861.82 590.224L1862.23 592.744C1861.83 593.624 1861.21 594.272 1860.38 594.688C1859.56 595.088 1858.59 595.288 1857.45 595.288ZM1872.63 581.656V589.888C1872.63 590.576 1872.8 591.128 1873.15 591.544C1873.51 591.96 1873.97 592.168 1874.55 592.168C1875.2 592.168 1875.8 591.952 1876.35 591.52C1876.91 591.072 1877.49 590.312 1878.1 589.24L1878.63 592.408C1878.02 593.448 1877.28 594.192 1876.42 594.64C1875.55 595.072 1874.67 595.288 1873.78 595.288C1872.75 595.288 1871.87 595.072 1871.14 594.64C1870.42 594.208 1869.86 593.608 1869.46 592.84C1869.07 592.072 1868.88 591.168 1868.88 590.128V581.656H1872.63ZM1881.53 581.656V595H1877.91L1877.79 592.624V581.656H1881.53ZM1894.72 583.048L1894.79 581.656H1898.39V593.224C1898.39 595.288 1897.83 596.856 1896.71 597.928C1895.6 599.016 1893.87 599.56 1891.5 599.56C1890.24 599.56 1889.14 599.4 1888.21 599.08C1887.3 598.776 1886.59 598.304 1886.08 597.664C1885.58 597.04 1885.32 596.248 1885.31 595.288H1889.24C1889.32 595.736 1889.56 596.056 1889.94 596.248C1890.34 596.44 1890.94 596.536 1891.74 596.536C1892.73 596.536 1893.46 596.272 1893.92 595.744C1894.4 595.232 1894.64 594.52 1894.64 593.608V592.816C1894.2 593.344 1893.65 593.752 1893.01 594.04C1892.39 594.328 1891.7 594.472 1890.95 594.472C1889.83 594.472 1888.84 594.184 1887.97 593.608C1887.11 593.016 1886.43 592.224 1885.93 591.232C1885.44 590.24 1885.19 589.152 1885.19 587.968C1885.19 586.592 1885.45 585.416 1885.98 584.44C1886.51 583.448 1887.23 582.696 1888.14 582.184C1889.05 581.656 1890.07 581.392 1891.19 581.392C1891.91 581.392 1892.57 581.544 1893.18 581.848C1893.79 582.152 1894.3 582.552 1894.72 583.048ZM1891.91 591.592C1892.55 591.592 1893.11 591.376 1893.59 590.944C1894.08 590.512 1894.44 589.952 1894.64 589.264V586.576C1894.44 585.872 1894.08 585.312 1893.59 584.896C1893.11 584.48 1892.55 584.272 1891.91 584.272C1891.33 584.272 1890.82 584.44 1890.37 584.776C1889.92 585.096 1889.57 585.528 1889.32 586.072C1889.06 586.616 1888.93 587.224 1888.93 587.896C1888.93 588.568 1889.06 589.184 1889.32 589.744C1889.57 590.304 1889.92 590.752 1890.37 591.088C1890.82 591.424 1891.33 591.592 1891.91 591.592ZM1910.73 595V586.792C1910.73 586.088 1910.56 585.528 1910.21 585.112C1909.85 584.696 1909.39 584.488 1908.81 584.488C1908.16 584.488 1907.55 584.712 1906.99 585.16C1906.45 585.592 1905.87 586.344 1905.26 587.416L1904.73 584.272C1905.34 583.216 1906.08 582.472 1906.94 582.04C1907.81 581.592 1908.69 581.368 1909.58 581.368C1910.61 581.368 1911.48 581.584 1912.2 582.016C1912.93 582.448 1913.49 583.056 1913.88 583.84C1914.28 584.608 1914.48 585.512 1914.48 586.552V595H1910.73ZM1901.83 595V577.216H1905.57V595H1901.83ZM1840.93 626V608.24H1844.67V626H1840.93ZM1836.61 626V622.976H1849.04V626H1836.61ZM1838.29 611.264V608.24H1842.8V611.264H1838.29ZM1859.25 626.288C1857.81 626.288 1856.57 626.008 1855.53 625.448C1854.51 624.888 1853.71 624.088 1853.15 623.048C1852.59 622.008 1852.31 620.768 1852.31 619.328C1852.31 617.872 1852.59 616.624 1853.15 615.584C1853.71 614.544 1854.52 613.752 1855.58 613.208C1856.65 612.648 1857.94 612.368 1859.44 612.368C1861.79 612.368 1863.5 613.04 1864.55 614.384C1865.63 615.712 1866.07 617.544 1865.9 619.88H1855.29L1855.31 617.312H1862.08C1862.03 616.704 1861.76 616.216 1861.27 615.848C1860.77 615.464 1860.15 615.272 1859.42 615.272C1858.27 615.272 1857.42 615.632 1856.87 616.352C1856.33 617.072 1856.06 618.12 1856.06 619.496C1856.06 620.184 1856.18 620.816 1856.42 621.392C1856.66 621.968 1857.01 622.432 1857.47 622.784C1857.95 623.12 1858.55 623.288 1859.25 623.288C1860 623.288 1860.63 623.104 1861.15 622.736C1861.67 622.368 1861.99 621.904 1862.11 621.344H1865.85C1865.69 622.864 1865.02 624.072 1863.83 624.968C1862.67 625.848 1861.14 626.288 1859.25 626.288ZM1875.58 626.288C1874.14 626.288 1872.9 626.008 1871.86 625.448C1870.83 624.888 1870.04 624.088 1869.48 623.048C1868.92 622.008 1868.64 620.768 1868.64 619.328C1868.64 617.872 1868.92 616.624 1869.48 615.584C1870.04 614.544 1870.85 613.752 1871.91 613.208C1872.98 612.648 1874.27 612.368 1875.77 612.368C1878.12 612.368 1879.83 613.04 1880.88 614.384C1881.95 615.712 1882.4 617.544 1882.23 619.88H1871.62L1871.64 617.312H1878.41C1878.36 616.704 1878.09 616.216 1877.59 615.848C1877.1 615.464 1876.48 615.272 1875.75 615.272C1874.59 615.272 1873.75 615.632 1873.2 616.352C1872.66 617.072 1872.39 618.12 1872.39 619.496C1872.39 620.184 1872.51 620.816 1872.75 621.392C1872.99 621.968 1873.34 622.432 1873.8 622.784C1874.28 623.12 1874.87 623.288 1875.58 623.288C1876.33 623.288 1876.96 623.104 1877.47 622.736C1878 622.368 1878.32 621.904 1878.43 621.344H1882.18C1882.02 622.864 1881.35 624.072 1880.16 624.968C1878.99 625.848 1877.47 626.288 1875.58 626.288ZM1892.87 626C1891.97 626 1891.18 625.8 1890.49 625.4C1889.82 624.984 1889.3 624.416 1888.93 623.696C1888.56 622.96 1888.38 622.128 1888.38 621.2V610.424L1892.12 608.744V621.2C1892.12 621.616 1892.18 621.96 1892.29 622.232C1892.42 622.488 1892.64 622.68 1892.96 622.808C1893.3 622.92 1893.76 622.976 1894.36 622.976H1897.74V626H1892.87ZM1885.74 615.68V612.656H1895.36V615.68H1885.74Z" fill="#1B3162"/>
<rect x="1639" y="625" width="113" height="45" fill="#389DB4"/>
<path d="M1620 599L1659.5 634.5L1685 664.5L1744.5 630L1735 619L1761.5 601.5H1738.5L1761.5 572L1723 586V544L1693 568.5L1672 550.5L1680.5 580L1641 562L1650.5 599H1620Z" fill="#389DB4"/>
<rect x="1639" y="625" width="113" height="12" fill="#347B9E"/>
<rect x="1622" y="784" width="70" height="206" fill="#389DB4"/>
<rect x="1763" y="830" width="51" height="160" fill="#389DB4"/>
<rect x="1843" y="784" width="33" height="206" fill="#389DB4"/>
<rect x="1893" y="784" width="33" height="206" fill="#389DB4"/>
<rect x="1943" y="784" width="33" height="206" fill="#389DB4"/>
<circle opacity="0.4" cx="1658" cy="829" r="16" fill="#1F5080"/>
<circle opacity="0.4" cx="1658" cy="951" r="16" fill="#1F5080"/>
<rect x="1763" y="846" width="51" height="41" fill="#347B9E"/>
<rect x="1843" y="801" width="33" height="13" fill="#347B9E"/>
<rect x="1893" y="801" width="33" height="13" fill="#347B9E"/>
<rect x="1943" y="801" width="33" height="13" fill="#347B9E"/>
<rect x="1843" y="926" width="33" height="43" fill="#347B9E"/>
<rect x="1893" y="926" width="33" height="43" fill="#347B9E"/>
<rect x="1943" y="926" width="33" height="43" fill="#347B9E"/>
<rect x="1685" y="1297" width="51" height="160" fill="#389DB4"/>
<rect x="1685" y="1313" width="51" height="41" fill="#347B9E"/>
<rect x="1904" y="1297" width="51" height="160" fill="#389DB4"/>
<rect x="1904" y="1313" width="51" height="41" fill="#347B9E"/>
<rect x="1752" y="1297" width="51" height="160" fill="#389DB4"/>
<rect x="1752" y="1313" width="51" height="41" fill="#347B9E"/>
<path d="M482 1310L528 994H707L748 1310H482Z" fill="#031835"/>
<circle cx="615" cy="1162" r="42" fill="#1F5080" fill-opacity="0.5"/>
<rect x="548" y="1278" width="400" height="32" fill="#031835"/>
<rect opacity="0.5" x="548" y="1278" width="100" height="32" fill="#1F5080"/>
<rect x="148" y="243" width="1173" height="807" fill="#031835"/>
<rect x="128" y="263" width="1173" height="806" fill="#347B9E"/>
<rect x="158.5" y="253.5" width="1152" height="786" fill="#031835" stroke="#3998B7" stroke-width="21"/>
<rect y="1344" width="1550" height="486" fill="#1A2A60"/>
<rect y="1358" width="1654" height="75" fill="#1F5080"/>
<rect width="1654" height="26" transform="matrix(1 0 0 -1 0 1358)" fill="#30709B"/>
<rect x="-44" y="1310" width="1042" height="22" fill="#3998B7"/>
<rect y="1435" width="1654" height="35" fill="#031835"/>
<path d="M1047 1295L899 1875L1699 1899C1656.33 1704.33 1566.2 1311 1547 1295C1527.8 1279 1480.33 1261.67 1459 1255H1131C1086.2 1255 1056.33 1281.67 1047 1295Z" fill="#34689B"/>
<path d="M1069 1300L921 1880L1721 1904C1678.33 1709.33 1588.2 1316 1569 1300C1549.8 1284 1502.33 1266.67 1481 1260H1153C1108.2 1260 1078.33 1286.67 1069 1300Z" fill="#1F5080"/>
<path d="M1091 1306L943 1886L1743 1910C1700.33 1715.33 1610.2 1322 1591 1306C1571.8 1290 1524.33 1272.67 1503 1266H1175C1130.2 1266 1100.33 1292.67 1091 1306Z" fill="#031835"/>
<rect x="54" y="1130" width="166" height="202" fill="#3998B7"/>
<rect x="173" y="1168" width="81" height="20" fill="#3998B7"/>
<rect width="18" height="54" transform="matrix(1 0 0 -1 236 1242)" fill="#3998B7"/>
<rect width="48" height="19" transform="matrix(1 0 0 -1 206 1252)" fill="#3998B7"/>
<rect x="54" y="1130" width="166" height="6" fill="#40AEB7"/>
<rect x="220" y="1168" width="34" height="6" fill="#40AEB7"/>
<rect x="251" y="1168" width="3" height="84" fill="#40AEB7"/>
<rect x="220" y="1188" width="3" height="45" fill="#40AEB7"/>
<rect x="220" y="1252" width="3" height="58" fill="#40AEB7"/>
</g>
<defs>
<clipPath id="clip0_16_2">
<rect width="2000" height="1700" fill="white"/>
</clipPath>
</defs>
</svg>
