<svg width="1743" height="570" viewBox="0 0 1743 570" fill="none" xmlns="http://www.w3.org/2000/svg">
<rect y="214" width="1550" height="486" fill="#1A2A60"/>
<rect y="228" width="1654" height="75" fill="#1F5080"/>
<rect width="1654" height="26" transform="matrix(1 0 0 -1 0 228)" fill="#30709B"/>
<rect x="-44" y="180" width="1042" height="22" fill="#3998B7"/>
<rect y="305" width="1654" height="35" fill="#031835"/>
<path d="M1047 165L899 745L1699 769C1656.33 574.333 1566.2 181 1547 165C1527.8 149 1480.33 131.667 1459 125H1131C1086.2 125 1056.33 151.667 1047 165Z" fill="#34689B"/>
<path d="M1069 170L921 750L1721 774C1678.33 579.333 1588.2 186 1569 170C1549.8 154 1502.33 136.667 1481 130H1153C1108.2 130 1078.33 156.667 1069 170Z" fill="#1F5080"/>
<path d="M1091 176L943 756L1743 780C1700.33 585.333 1610.2 192 1591 176C1571.8 160 1524.33 142.667 1503 136H1175C1130.2 136 1100.33 162.667 1091 176Z" fill="#031835"/>
<rect x="54" width="166" height="202" fill="#3998B7"/>
<rect x="173" y="38" width="81" height="20" fill="#3998B7"/>
<rect width="18" height="54" transform="matrix(1 0 0 -1 236 112)" fill="#3998B7"/>
<rect width="48" height="19" transform="matrix(1 0 0 -1 206 122)" fill="#3998B7"/>
<rect x="54" width="166" height="6" fill="#40AEB7"/>
<rect x="220" y="38" width="34" height="6" fill="#40AEB7"/>
<rect x="251" y="38" width="3" height="84" fill="#40AEB7"/>
<rect x="220" y="58" width="3" height="45" fill="#40AEB7"/>
<rect x="220" y="122" width="3" height="58" fill="#40AEB7"/>
<circle opacity="0.33" cx="137.5" cy="94.5" r="35.5" fill="#40AEB7"/>
<path fill-rule="evenodd" clip-rule="evenodd" d="M152.709 105.002C152.709 107.023 151.071 108.661 149.05 108.661H139.433V132.341C139.433 134.362 137.795 136 135.774 136C133.753 136 132.115 134.362 132.115 132.341V108.232C132.115 106.815 132.305 104.645 134.006 103.044C135.636 101.509 137.781 101.342 139.246 101.342H149.05C151.071 101.342 152.709 102.981 152.709 105.002Z" fill="#347B9E"/>
<path fill-rule="evenodd" clip-rule="evenodd" d="M152.709 76.8077C152.709 78.8287 151.071 80.4671 149.05 80.4671H139.433V90.8671C139.433 92.8881 137.795 94.5265 135.774 94.5265C133.753 94.5265 132.115 92.8881 132.115 90.8671V79.6343C132.115 78.5064 132.145 76.1029 134.071 74.5C134.991 73.7346 136.011 73.4393 136.778 73.3045C137.534 73.1716 138.33 73.1483 139.042 73.1483H149.05C151.071 73.1483 152.709 74.7867 152.709 76.8077ZM138.03 80.5158C138.03 80.5157 138.033 80.5149 138.04 80.5136C138.033 80.5152 138.03 80.5158 138.03 80.5158Z" fill="#347B9E"/>
<path fill-rule="evenodd" clip-rule="evenodd" d="M163.154 62.6594C163.154 64.6804 161.515 66.3188 159.494 66.3188H126.629C126.083 66.3188 125.653 66.3447 125.32 66.3827L125.387 126.418C125.389 128.439 123.753 130.08 121.732 130.082C119.711 130.084 118.07 128.448 118.068 126.427L118 64.9961L118.004 64.9061C118.044 64.0741 118.254 63.1345 118.796 62.2286C119.343 61.315 120.11 60.6324 120.969 60.1499C122.561 59.2561 124.552 59 126.629 59H159.494C161.515 59 163.154 60.6384 163.154 62.6594Z" fill="#347B9E"/>
<path fill-rule="evenodd" clip-rule="evenodd" d="M157.259 90.867C157.259 92.888 155.621 94.5264 153.599 94.5264H121.273V87.2076H153.599C155.621 87.2076 157.259 88.846 157.259 90.867Z" fill="#347B9E"/>
</svg>
