<svg width="540" height="1700" viewBox="0 0 540 1700" fill="none" xmlns="http://www.w3.org/2000/svg">
<rect x="65" width="475" height="208" fill="#0E2556"/>
<rect width="65" height="1700" fill="#347B9E"/>
<rect width="10" height="1700" fill="#399CB4"/>
<rect x="116" y="350" width="444" height="60" fill="#347B9E"/>
<rect x="116" y="670" width="444" height="60" fill="#347B9E"/>
<rect x="116" y="990" width="444" height="60" fill="#347B9E"/>
<rect x="166" y="410" width="444" height="60" fill="#0E2556"/>
<rect x="166" y="730" width="444" height="60" fill="#0E2556"/>
<rect x="166" y="1050" width="444" height="60" fill="#0E2556"/>
<rect x="116" y="1457" width="444" height="60" fill="#347B9E"/>
<rect x="166" y="1517" width="444" height="60" fill="#0E2556"/>
<rect x="238" y="256" width="100" height="94" fill="#389DB4"/>
<rect x="366" y="162" width="50" height="188" fill="#56AEC2"/>
<rect x="370" y="1269" width="50" height="188" fill="#56AEC2"/>
<rect x="444" y="182" width="56" height="168" fill="#389DB4"/>
<circle cx="288.5" cy="302.5" r="33.5" fill="#347B9E"/>
<rect x="147" y="323" width="171" height="27" fill="#6AC1D5"/>
<rect x="147" y="323" width="171" height="27" fill="#6AC1D5"/>
<rect x="147" y="303" width="91" height="27" fill="#6AC1D5"/>
<rect x="147" y="303" width="91" height="27" fill="#3F9EB4"/>
<rect x="444" y="198" width="51" height="19" fill="#347B9E"/>
<rect x="444" y="308" width="51" height="19" fill="#347B9E"/>
<rect x="329" y="496" width="191" height="174" fill="#56AEC2"/>
<rect x="352" y="521" width="142" height="127" fill="#347B9E"/>
<path d="M380.928 564V546.24H384.672V564H380.928ZM376.608 564V560.976H389.04V564H376.608ZM378.288 549.264V546.24H382.8V549.264H378.288ZM397.257 564V550.656H401.001V564H397.257ZM392.937 564V560.976H405.369V564H392.937ZM394.617 553.68V550.656H399.129V553.68H394.617ZM397.113 548.88V545.376H401.097V548.88H397.113ZM413.299 564L408.547 550.656H412.459L414.691 557.424L415.507 560.736L416.371 557.424L418.555 550.656H422.347L417.619 564H413.299ZM431.908 564.288C430.468 564.288 429.228 564.008 428.188 563.448C427.164 562.888 426.372 562.088 425.812 561.048C425.252 560.008 424.972 558.768 424.972 557.328C424.972 555.872 425.252 554.624 425.812 553.584C426.372 552.544 427.18 551.752 428.236 551.208C429.308 550.648 430.596 550.368 432.1 550.368C434.452 550.368 436.156 551.04 437.212 552.384C438.284 553.712 438.732 555.544 438.556 557.88H427.948L427.972 555.312H434.74C434.692 554.704 434.42 554.216 433.924 553.848C433.428 553.464 432.812 553.272 432.076 553.272C430.924 553.272 430.076 553.632 429.532 554.352C428.988 555.072 428.716 556.12 428.716 557.496C428.716 558.184 428.836 558.816 429.076 559.392C429.316 559.968 429.668 560.432 430.132 560.784C430.612 561.12 431.204 561.288 431.908 561.288C432.66 561.288 433.292 561.104 433.804 560.736C434.332 560.368 434.652 559.904 434.764 559.344H438.508C438.348 560.864 437.676 562.072 436.492 562.968C435.324 563.848 433.796 564.288 431.908 564.288ZM380.928 595V577.24H384.672V595H380.928ZM376.608 595V591.976H389.04V595H376.608ZM378.288 580.264V577.24H382.8V580.264H378.288ZM401.721 595L401.601 592.6V586.024C401.601 585.4 401.369 584.912 400.905 584.56C400.441 584.192 399.801 584.008 398.985 584.008C398.201 584.008 397.561 584.176 397.065 584.512C396.585 584.832 396.305 585.288 396.225 585.88H392.601C392.681 584.936 393.001 584.128 393.561 583.456C394.121 582.784 394.873 582.272 395.817 581.92C396.777 581.552 397.889 581.368 399.153 581.368C400.401 581.368 401.489 581.56 402.417 581.944C403.345 582.312 404.057 582.864 404.553 583.6C405.065 584.32 405.321 585.208 405.321 586.264V595H401.721ZM397.449 595.288C396.569 595.288 395.793 595.12 395.121 594.784C394.449 594.432 393.929 593.952 393.561 593.344C393.193 592.736 393.009 592.048 393.009 591.28C393.009 589.904 393.537 588.84 394.593 588.088C395.665 587.32 397.137 586.936 399.009 586.936H401.961V589.528L398.913 589.552C398.225 589.552 397.673 589.68 397.257 589.936C396.857 590.176 396.657 590.544 396.657 591.04C396.657 591.392 396.801 591.696 397.089 591.952C397.393 592.208 397.817 592.336 398.361 592.336C399.113 592.336 399.777 592.152 400.353 591.784C400.945 591.4 401.433 590.88 401.817 590.224L402.225 592.744C401.825 593.624 401.209 594.272 400.377 594.688C399.561 595.088 398.585 595.288 397.449 595.288ZM412.627 581.656V589.888C412.627 590.576 412.803 591.128 413.155 591.544C413.507 591.96 413.971 592.168 414.547 592.168C415.203 592.168 415.803 591.952 416.347 591.52C416.907 591.072 417.491 590.312 418.099 589.24L418.627 592.408C418.019 593.448 417.283 594.192 416.419 594.64C415.555 595.072 414.675 595.288 413.779 595.288C412.755 595.288 411.875 595.072 411.139 594.64C410.419 594.208 409.859 593.608 409.459 592.84C409.075 592.072 408.883 591.168 408.883 590.128V581.656H412.627ZM421.531 581.656V595H417.907L417.787 592.624V581.656H421.531ZM434.716 583.048L434.788 581.656H438.388V593.224C438.388 595.288 437.828 596.856 436.708 597.928C435.604 599.016 433.868 599.56 431.5 599.56C430.236 599.56 429.14 599.4 428.212 599.08C427.3 598.776 426.588 598.304 426.076 597.664C425.58 597.04 425.324 596.248 425.308 595.288H429.244C429.324 595.736 429.556 596.056 429.94 596.248C430.34 596.44 430.94 596.536 431.74 596.536C432.732 596.536 433.46 596.272 433.924 595.744C434.404 595.232 434.644 594.52 434.644 593.608V592.816C434.196 593.344 433.652 593.752 433.012 594.04C432.388 594.328 431.7 594.472 430.948 594.472C429.828 594.472 428.836 594.184 427.972 593.608C427.108 593.016 426.428 592.224 425.932 591.232C425.436 590.24 425.188 589.152 425.188 587.968C425.188 586.592 425.452 585.416 425.98 584.44C426.508 583.448 427.228 582.696 428.14 582.184C429.052 581.656 430.068 581.392 431.188 581.392C431.908 581.392 432.572 581.544 433.18 581.848C433.788 582.152 434.3 582.552 434.716 583.048ZM431.908 591.592C432.548 591.592 433.108 591.376 433.588 590.944C434.084 590.512 434.436 589.952 434.644 589.264V586.576C434.436 585.872 434.084 585.312 433.588 584.896C433.108 584.48 432.548 584.272 431.908 584.272C431.332 584.272 430.82 584.44 430.372 584.776C429.924 585.096 429.572 585.528 429.316 586.072C429.06 586.616 428.932 587.224 428.932 587.896C428.932 588.568 429.06 589.184 429.316 589.744C429.572 590.304 429.924 590.752 430.372 591.088C430.82 591.424 431.332 591.592 431.908 591.592ZM450.733 595V586.792C450.733 586.088 450.557 585.528 450.205 585.112C449.853 584.696 449.389 584.488 448.813 584.488C448.157 584.488 447.549 584.712 446.989 585.16C446.445 585.592 445.869 586.344 445.261 587.416L444.733 584.272C445.341 583.216 446.077 582.472 446.941 582.04C447.805 581.592 448.685 581.368 449.581 581.368C450.605 581.368 451.477 581.584 452.197 582.016C452.933 582.448 453.493 583.056 453.877 583.84C454.277 584.608 454.477 585.512 454.477 586.552V595H450.733ZM441.829 595V577.216H445.573V595H441.829ZM380.928 626V608.24H384.672V626H380.928ZM376.608 626V622.976H389.04V626H376.608ZM378.288 611.264V608.24H382.8V611.264H378.288ZM399.201 626.288C397.969 626.288 396.849 626.048 395.841 625.568C394.833 625.072 394.041 624.36 393.465 623.432C392.889 622.504 392.633 621.384 392.697 620.072H396.609C396.577 620.648 396.665 621.16 396.873 621.608C397.081 622.04 397.385 622.376 397.785 622.616C398.185 622.856 398.657 622.976 399.201 622.976C399.905 622.976 400.473 622.8 400.905 622.448C401.353 622.08 401.577 621.608 401.577 621.032C401.577 620.568 401.449 620.192 401.193 619.904C400.953 619.616 400.617 619.408 400.185 619.28C399.753 619.136 399.257 619.064 398.697 619.064H397.857V615.824H398.745C399.193 615.824 399.585 615.744 399.921 615.584C400.257 615.408 400.513 615.176 400.689 614.888C400.881 614.584 400.977 614.256 400.977 613.904C400.977 613.344 400.801 612.928 400.449 612.656C400.097 612.368 399.641 612.224 399.081 612.224C398.361 612.224 397.785 612.448 397.353 612.896C396.937 613.328 396.745 613.904 396.777 614.624H392.865C392.865 613.456 393.137 612.456 393.681 611.624C394.241 610.776 394.993 610.12 395.937 609.656C396.897 609.192 397.969 608.96 399.153 608.96C400.369 608.96 401.409 609.152 402.273 609.536C403.153 609.904 403.825 610.424 404.289 611.096C404.769 611.768 405.009 612.568 405.009 613.496C405.009 614.072 404.897 614.608 404.673 615.104C404.465 615.584 404.169 616 403.785 616.352C403.417 616.704 402.985 616.984 402.489 617.192C403.145 617.336 403.705 617.6 404.169 617.984C404.649 618.368 405.017 618.832 405.273 619.376C405.529 619.92 405.657 620.504 405.657 621.128C405.657 622.136 405.393 623.032 404.865 623.816C404.353 624.584 403.609 625.192 402.633 625.64C401.673 626.072 400.529 626.288 399.201 626.288ZM415.531 626.288C414.299 626.288 413.179 626.048 412.171 625.568C411.163 625.072 410.371 624.36 409.795 623.432C409.219 622.504 408.963 621.384 409.027 620.072H412.939C412.907 620.648 412.995 621.16 413.203 621.608C413.411 622.04 413.715 622.376 414.115 622.616C414.515 622.856 414.987 622.976 415.531 622.976C416.235 622.976 416.803 622.8 417.235 622.448C417.683 622.08 417.907 621.608 417.907 621.032C417.907 620.568 417.779 620.192 417.523 619.904C417.283 619.616 416.947 619.408 416.515 619.28C416.083 619.136 415.587 619.064 415.027 619.064H414.187V615.824H415.075C415.523 615.824 415.915 615.744 416.251 615.584C416.587 615.408 416.843 615.176 417.019 614.888C417.211 614.584 417.307 614.256 417.307 613.904C417.307 613.344 417.131 612.928 416.779 612.656C416.427 612.368 415.971 612.224 415.411 612.224C414.691 612.224 414.115 612.448 413.683 612.896C413.267 613.328 413.075 613.904 413.107 614.624H409.195C409.195 613.456 409.467 612.456 410.011 611.624C410.571 610.776 411.323 610.12 412.267 609.656C413.227 609.192 414.299 608.96 415.483 608.96C416.699 608.96 417.739 609.152 418.603 609.536C419.483 609.904 420.155 610.424 420.619 611.096C421.099 611.768 421.339 612.568 421.339 613.496C421.339 614.072 421.227 614.608 421.003 615.104C420.795 615.584 420.499 616 420.115 616.352C419.747 616.704 419.315 616.984 418.819 617.192C419.475 617.336 420.035 617.6 420.499 617.984C420.979 618.368 421.347 618.832 421.603 619.376C421.859 619.92 421.987 620.504 421.987 621.128C421.987 622.136 421.723 623.032 421.195 623.816C420.683 624.584 419.939 625.192 418.963 625.64C418.003 626.072 416.859 626.288 415.531 626.288ZM432.868 626C431.972 626 431.18 625.8 430.492 625.4C429.82 624.984 429.3 624.416 428.932 623.696C428.564 622.96 428.38 622.128 428.38 621.2V610.424L432.124 608.744V621.2C432.124 621.616 432.18 621.96 432.292 622.232C432.42 622.488 432.644 622.68 432.964 622.808C433.3 622.92 433.764 622.976 434.356 622.976H437.74V626H432.868ZM425.74 615.68V612.656H435.364V615.68H425.74Z" fill="#1B3162"/>
<rect x="179" y="625" width="113" height="45" fill="#389DB4"/>
<path d="M160 599L199.5 634.5L225 664.5L284.5 630L275 619L301.5 601.5H278.5L301.5 572L263 586V544L233 568.5L212 550.5L220.5 580L181 562L190.5 599H160Z" fill="#389DB4"/>
<rect x="179" y="625" width="113" height="12" fill="#347B9E"/>
<rect x="162" y="784" width="70" height="206" fill="#389DB4"/>
<rect x="303" y="830" width="51" height="160" fill="#389DB4"/>
<rect x="383" y="784" width="33" height="206" fill="#389DB4"/>
<rect x="433" y="784" width="33" height="206" fill="#389DB4"/>
<rect x="483" y="784" width="33" height="206" fill="#389DB4"/>
<circle opacity="0.4" cx="198" cy="829" r="16" fill="#1F5080"/>
<circle opacity="0.4" cx="198" cy="951" r="16" fill="#1F5080"/>
<rect x="303" y="846" width="51" height="41" fill="#347B9E"/>
<rect x="383" y="801" width="33" height="13" fill="#347B9E"/>
<rect x="433" y="801" width="33" height="13" fill="#347B9E"/>
<rect x="483" y="801" width="33" height="13" fill="#347B9E"/>
<rect x="383" y="926" width="33" height="43" fill="#347B9E"/>
<rect x="433" y="926" width="33" height="43" fill="#347B9E"/>
<rect x="483" y="926" width="33" height="43" fill="#347B9E"/>
<rect x="225" y="1297" width="51" height="160" fill="#389DB4"/>
<rect x="225" y="1313" width="51" height="41" fill="#347B9E"/>
<rect x="444" y="1297" width="51" height="160" fill="#389DB4"/>
<rect x="444" y="1313" width="51" height="41" fill="#347B9E"/>
<rect x="292" y="1297" width="51" height="160" fill="#389DB4"/>
<rect x="292" y="1313" width="51" height="41" fill="#347B9E"/>
</svg>
