<svg width="678" height="238" viewBox="0 0 678 238" fill="none" xmlns="http://www.w3.org/2000/svg">
<g filter="url(#filter0_d_27_1849)">
<rect x="44" y="40" width="590" height="150" rx="75" fill="#79FFE1"/>
<path d="M220.658 119.808V114.758H226.606C227.803 114.758 228.763 114.397 229.486 113.674C230.209 112.926 230.571 111.953 230.571 110.756C230.571 109.609 230.209 108.686 229.486 107.988C228.763 107.29 227.803 106.941 226.606 106.941H220.658V101.891H226.643C228.713 101.891 230.521 102.252 232.067 102.976C233.613 103.699 234.81 104.734 235.658 106.08C236.506 107.402 236.93 108.961 236.93 110.756C236.93 112.576 236.506 114.172 235.658 115.544C234.81 116.891 233.613 117.938 232.067 118.686C230.546 119.434 228.738 119.808 226.643 119.808H220.658ZM216.244 128V101.891H222.416V128H216.244ZM248.69 128V100.32H254.525V128H248.69ZM241.957 128V123.287H261.333V128H241.957ZM244.575 105.033V100.32H251.607V105.033H244.575ZM281.098 128L280.911 124.259V114.01C280.911 113.038 280.549 112.277 279.826 111.729C279.103 111.155 278.105 110.868 276.833 110.868C275.611 110.868 274.614 111.13 273.841 111.654C273.093 112.152 272.656 112.863 272.532 113.786H266.883C267.008 112.315 267.507 111.055 268.38 110.008C269.252 108.961 270.425 108.163 271.896 107.614C273.392 107.04 275.125 106.754 277.095 106.754C279.04 106.754 280.736 107.053 282.182 107.651C283.629 108.225 284.738 109.085 285.512 110.232C286.309 111.354 286.708 112.738 286.708 114.384V128H281.098ZM274.439 128.449C273.068 128.449 271.858 128.187 270.811 127.663C269.764 127.115 268.953 126.367 268.38 125.419C267.806 124.471 267.519 123.399 267.519 122.202C267.519 120.058 268.342 118.399 269.988 117.227C271.659 116.03 273.953 115.432 276.871 115.432H281.472V119.472L276.721 119.509C275.649 119.509 274.789 119.708 274.14 120.107C273.517 120.481 273.205 121.055 273.205 121.828C273.205 122.377 273.429 122.85 273.878 123.249C274.352 123.648 275.013 123.848 275.861 123.848C277.033 123.848 278.068 123.561 278.966 122.988C279.888 122.389 280.649 121.579 281.247 120.556L281.883 124.484C281.26 125.855 280.3 126.865 279.003 127.514C277.731 128.137 276.21 128.449 274.439 128.449ZM300.601 114.422L302.471 119.771L304.379 114.422L307.408 107.202H313.356L304.154 129.01C303.531 130.506 302.808 131.691 301.985 132.563C301.187 133.461 300.276 134.11 299.254 134.509C298.232 134.908 297.06 135.107 295.738 135.107H291.885V130.394H295.102C295.8 130.394 296.386 130.232 296.86 129.908C297.359 129.584 297.783 129.147 298.132 128.598C298.506 128.075 298.843 127.476 299.142 126.803L299.516 125.943L291.661 107.202H297.646L300.601 114.422ZM357.449 128L357.262 124.259V114.01C357.262 113.038 356.9 112.277 356.177 111.729C355.454 111.155 354.457 110.868 353.185 110.868C351.963 110.868 350.965 111.13 350.192 111.654C349.444 112.152 349.008 112.863 348.883 113.786H343.235C343.36 112.315 343.858 111.055 344.731 110.008C345.604 108.961 346.776 108.163 348.247 107.614C349.744 107.04 351.477 106.754 353.447 106.754C355.392 106.754 357.087 107.053 358.534 107.651C359.98 108.225 361.09 109.085 361.863 110.232C362.661 111.354 363.06 112.738 363.06 114.384V128H357.449ZM350.791 128.449C349.419 128.449 348.21 128.187 347.163 127.663C346.115 127.115 345.305 126.367 344.731 125.419C344.158 124.471 343.871 123.399 343.871 122.202C343.871 120.058 344.694 118.399 346.34 117.227C348.01 116.03 350.305 115.432 353.222 115.432H357.823V119.472L353.073 119.509C352 119.509 351.14 119.708 350.492 120.107C349.868 120.481 349.556 121.055 349.556 121.828C349.556 122.377 349.781 122.85 350.23 123.249C350.704 123.648 351.364 123.848 352.212 123.848C353.384 123.848 354.419 123.561 355.317 122.988C356.24 122.389 357 121.579 357.599 120.556L358.235 124.484C357.611 125.855 356.651 126.865 355.354 127.514C354.083 128.137 352.561 128.449 350.791 128.449ZM379.383 128.449C377.438 128.449 375.73 128.137 374.259 127.514C372.788 126.865 371.64 125.955 370.818 124.783C370.02 123.586 369.608 122.177 369.583 120.556H375.007C374.957 121.703 375.319 122.601 376.092 123.249C376.89 123.898 377.974 124.222 379.346 124.222C380.344 124.222 381.141 124.06 381.74 123.736C382.363 123.387 382.675 122.913 382.675 122.314C382.675 121.791 382.438 121.379 381.964 121.08C381.516 120.756 380.917 120.506 380.169 120.332C379.421 120.132 378.598 119.945 377.7 119.771C376.802 119.571 375.892 119.334 374.97 119.06C374.072 118.786 373.249 118.424 372.501 117.975C371.753 117.501 371.142 116.891 370.668 116.142C370.219 115.369 369.995 114.409 369.995 113.262C369.995 111.94 370.369 110.793 371.117 109.821C371.865 108.848 372.9 108.1 374.221 107.576C375.568 107.028 377.114 106.754 378.86 106.754C381.528 106.754 383.685 107.377 385.331 108.624C387.002 109.846 387.924 111.566 388.099 113.786H382.713C382.663 112.863 382.289 112.165 381.59 111.691C380.892 111.217 379.994 110.98 378.897 110.98C377.974 110.98 377.239 111.143 376.69 111.467C376.142 111.791 375.867 112.277 375.867 112.926C375.867 113.449 376.092 113.861 376.541 114.16C377.014 114.434 377.625 114.659 378.373 114.833C379.122 115.008 379.945 115.17 380.842 115.319C381.765 115.469 382.675 115.681 383.573 115.955C384.471 116.205 385.294 116.554 386.042 117.003C386.79 117.452 387.388 118.05 387.837 118.798C388.311 119.546 388.548 120.506 388.548 121.678C388.548 123.798 387.712 125.456 386.042 126.653C384.396 127.85 382.176 128.449 379.383 128.449ZM419.512 128V101.891H427.367L434.661 120.369L434.249 110.868V101.891H440.047V128H432.192L424.823 109.858L425.309 119.023V128H419.512ZM452.294 128V107.202H458.129V128H452.294ZM445.561 128V123.287H464.937V128H445.561ZM448.179 111.916V107.202H455.211V111.916H448.179ZM452.069 104.434V98.9732H458.278V104.434H452.069ZM484.739 128V115.17C484.739 114.098 484.465 113.237 483.916 112.589C483.367 111.94 482.644 111.616 481.746 111.616C480.724 111.616 479.776 111.965 478.904 112.664C478.056 113.337 477.158 114.509 476.21 116.18L475.387 111.242C476.335 109.621 477.482 108.474 478.829 107.801C480.175 107.103 481.547 106.754 482.943 106.754C484.539 106.754 485.898 107.09 487.021 107.764C488.168 108.437 489.041 109.372 489.639 110.569C490.262 111.766 490.574 113.175 490.574 114.796V128H484.739ZM470.861 128V107.202H476.51L476.697 110.906V128H470.861ZM512.022 107.202V127.177C512.022 128.648 511.723 129.945 511.125 131.067C510.551 132.189 509.741 133.062 508.693 133.686C507.646 134.334 506.411 134.658 504.99 134.658H496.237V129.945H502.671C503.818 129.945 504.691 129.771 505.289 129.421C505.888 129.097 506.187 128.349 506.187 127.177V107.202H512.022ZM502.072 111.916V107.202H509.105V111.916H502.072ZM505.963 104.434V98.9732H512.172V104.434H505.963ZM535.602 128L535.415 124.259V114.01C535.415 113.038 535.054 112.277 534.331 111.729C533.607 111.155 532.61 110.868 531.338 110.868C530.116 110.868 529.119 111.13 528.346 111.654C527.598 112.152 527.161 112.863 527.037 113.786H521.388C521.513 112.315 522.012 111.055 522.885 110.008C523.757 108.961 524.929 108.163 526.401 107.614C527.897 107.04 529.63 106.754 531.6 106.754C533.545 106.754 535.241 107.053 536.687 107.651C538.134 108.225 539.243 109.085 540.016 110.232C540.814 111.354 541.213 112.738 541.213 114.384V128H535.602ZM528.944 128.449C527.573 128.449 526.363 128.187 525.316 127.663C524.269 127.115 523.458 126.367 522.885 125.419C522.311 124.471 522.024 123.399 522.024 122.202C522.024 120.058 522.847 118.399 524.493 117.227C526.164 116.03 528.458 115.432 531.376 115.432H535.977V119.472L531.226 119.509C530.154 119.509 529.293 119.708 528.645 120.107C528.022 120.481 527.71 121.055 527.71 121.828C527.71 122.377 527.934 122.85 528.383 123.249C528.857 123.648 529.518 123.848 530.366 123.848C531.538 123.848 532.573 123.561 533.47 122.988C534.393 122.389 535.154 121.579 535.752 120.556L536.388 124.484C535.765 125.855 534.804 126.865 533.508 127.514C532.236 128.137 530.715 128.449 528.944 128.449Z" fill="#0E092D"/>
<mask id="mask0_27_1849" style="mask-type:alpha" maskUnits="userSpaceOnUse" x="72" y="67" width="95" height="95">
<circle cx="119.5" cy="114.5" r="47.5" fill="#D9D9D9"/>
</mask>
<g mask="url(#mask0_27_1849)">
<circle cx="119.5" cy="114.5" r="47.5" fill="#3FD4B3"/>
<path d="M142.665 130.084C143.133 129.878 143.594 129.655 144.045 129.414L139.26 183.565H128.347V169.976C128.347 167.637 127.417 165.394 125.762 163.74C124.107 162.085 121.862 161.156 119.522 161.156C117.181 161.156 114.936 162.085 113.281 163.74C111.626 165.394 110.696 167.637 110.696 169.976V183.565H99.7763L94.99 129.414C95.4442 129.655 95.9074 129.878 96.3785 130.084C97.3671 131.622 100.795 130.343 102.4 131.22C104.005 132.096 106.841 131.219 108.67 131.22L113.818 135.1C114.216 136.659 114.804 138.163 115.569 139.578C115.953 140.29 116.523 140.885 117.219 141.299C117.914 141.714 118.709 141.933 119.518 141.933C120.328 141.933 121.123 141.714 121.818 141.299C122.513 140.885 123.083 140.29 123.468 139.578C124.232 138.162 124.82 136.659 125.217 135.1L132.8 132.55C134.63 132.55 137.654 130.96 139.26 130.084C140.867 129.207 141.675 131.623 142.665 130.084Z" fill="black"/>
<path d="M119.467 125.577C118.333 126.891 116.69 127.726 114.831 127.726H114.321C115.092 129.555 116.52 131.042 118.356 131.922C119.047 132.254 119.886 132.254 120.577 131.922C122.413 131.053 123.819 129.555 124.612 127.726H124.102C122.243 127.726 120.589 126.88 119.467 125.577Z" fill="black"/>
<path d="M149.006 123.063C147.353 120.932 145.894 119.953 141.233 118.403H141.495C144.31 118.403 147.011 117.287 149.006 115.294C143.524 111.181 141.495 103.367 140.515 97.8646C140.526 97.8532 140.515 97.8532 140.515 97.8304C140.401 97.5 140.264 97.1013 140.116 96.6229C139.979 96.19 139.854 95.8483 139.808 95.7229C138.179 92.465 137.028 90.4373 135.022 90.4373C134.167 90.4373 133.472 89.7424 133.472 88.888C133.472 88.0337 134.167 87.3388 135.022 87.3388C139.09 87.3388 140.971 91.098 142.623 94.4015C142.703 94.5382 142.874 95.0281 143.079 95.6318C143.113 95.7571 143.17 95.9166 143.239 96.0989C143.604 97.1697 144.549 97.9443 145.678 98.081C146.715 98.2063 147.467 98.2063 147.467 98.2063C147.467 91.7929 146.384 87.3502 145.017 84.3086C143.262 80.4127 139.261 78.0205 135.01 78.0205C132.993 78.0205 131.021 78.5673 129.289 79.6039L124.161 82.6796C122.633 82.1784 121.072 81.9164 119.499 81.9164C117.927 81.9164 116.365 82.1784 114.838 82.6796L109.709 79.6039C107.989 78.5673 106.006 78.0205 103.988 78.0205C101.857 78.0205 99.7943 78.6129 98.0506 79.6951C96.2954 80.7773 94.8481 82.3721 93.9819 84.3086C92.6143 87.3502 91.5316 91.7929 91.5316 98.2063C91.5316 98.2063 92.2838 98.2063 93.3209 98.081C94.4378 97.9443 95.3951 97.1697 95.7598 96.0989C95.8282 95.9166 95.8738 95.7457 95.9194 95.6318C96.1245 95.0281 96.2954 94.5496 96.3524 94.4357C98.0164 91.098 99.8968 87.3388 103.965 87.3388C104.82 87.3388 105.515 88.0337 105.515 88.888C105.515 89.7424 104.82 90.4373 103.965 90.4373C101.96 90.4373 100.809 92.4536 99.1332 95.7913C99.1332 95.8369 99.0079 96.1786 98.8711 96.6115C98.7116 97.1127 98.5748 97.5228 98.4722 97.8532C98.0506 100.234 97.4351 103.059 96.4208 105.827C95.0874 109.45 93.0929 112.958 89.9816 115.282C91.9761 117.276 94.6771 118.392 97.4921 118.392H97.7542C93.0929 119.941 91.6342 120.921 89.9816 123.051C87.4515 126.343 88.4317 130.82 88.4317 130.82C93.0929 127.71 96.2043 127.71 96.2043 127.71C91.543 132.37 94.6543 138.589 94.6543 138.589C97.7656 132.381 102.427 133.93 102.427 133.93C102.37 134.067 102.096 135.081 102.096 136.414C102.096 138.475 102.7 141.369 105.527 143.248C106.541 141.232 108.171 139.603 110.188 138.589L110.439 139.068C112.262 142.702 115.567 145.379 119.511 146.358C123.454 145.379 126.77 142.713 128.583 139.068L128.833 138.589C130.851 139.603 132.48 141.232 133.495 143.248C138.156 140.139 136.777 134.306 136.606 133.93C136.606 133.93 141.267 132.381 144.379 138.589C144.379 138.589 147.49 132.381 142.829 127.71C142.829 127.71 145.94 127.71 150.601 130.82C150.601 130.82 151.581 126.343 149.051 123.051L149.006 123.063ZM128.024 99.7669C129.312 99.7669 130.36 101.168 130.36 102.877C130.36 104.586 129.323 105.987 128.024 105.987C126.725 105.987 125.688 104.586 125.688 102.877C125.688 101.168 126.725 99.7669 128.024 99.7669ZM110.929 99.7669C112.217 99.7669 113.265 101.168 113.265 102.877C113.265 104.586 112.228 105.987 110.929 105.987C109.63 105.987 108.593 104.586 108.593 102.877C108.593 101.168 109.63 99.7669 110.929 99.7669ZM131.648 122.368L129.927 124.965C129.46 125.649 128.867 126.218 128.206 126.674C127.511 130.205 125.186 133.178 121.938 134.716C121.163 135.069 120.32 135.24 119.488 135.24C118.656 135.24 117.813 135.069 117.049 134.716C113.79 133.178 111.465 130.182 110.769 126.674C110.086 126.218 109.493 125.649 109.048 124.965L107.328 122.368C106.849 121.673 107.043 120.693 107.761 120.226C108.479 119.748 109.436 119.941 109.903 120.659L111.624 123.234C112.194 124.099 113.174 124.612 114.223 124.612H114.827C116.536 124.612 117.938 123.211 117.938 121.502C117.938 121.388 117.984 121.286 117.995 121.194C117.984 121.183 117.949 121.183 117.938 121.16C117.049 120.784 116.285 120.146 115.852 119.246L114.565 116.672C114.086 115.704 114.131 114.576 114.701 113.653C115.26 112.719 116.251 112.172 117.345 112.172H121.631C122.713 112.172 123.716 112.719 124.275 113.653C124.844 114.565 124.901 115.704 124.411 116.672L123.124 119.246C122.69 120.146 121.927 120.784 121.038 121.16C121.026 121.172 120.992 121.172 120.981 121.194C120.992 121.286 121.038 121.399 121.038 121.502C121.038 123.211 122.44 124.612 124.149 124.612H124.753C125.79 124.612 126.77 124.099 127.352 123.234L129.073 120.659C129.54 119.941 130.497 119.748 131.215 120.226C131.933 120.693 132.127 121.673 131.648 122.368Z" fill="black"/>
</g>
</g>
<defs>
<filter id="filter0_d_27_1849" x="0" y="0" width="678" height="238" filterUnits="userSpaceOnUse" color-interpolation-filters="sRGB">
<feFlood flood-opacity="0" result="BackgroundImageFix"/>
<feColorMatrix in="SourceAlpha" type="matrix" values="0 0 0 0 0 0 0 0 0 0 0 0 0 0 0 0 0 0 127 0" result="hardAlpha"/>
<feOffset dy="4"/>
<feGaussianBlur stdDeviation="22"/>
<feComposite in2="hardAlpha" operator="out"/>
<feColorMatrix type="matrix" values="0 0 0 0 0 0 0 0 0 0 0 0 0 0 0 0 0 0 0.25 0"/>
<feBlend mode="normal" in2="BackgroundImageFix" result="effect1_dropShadow_27_1849"/>
<feBlend mode="normal" in="SourceGraphic" in2="effect1_dropShadow_27_1849" result="shape"/>
</filter>
</defs>
</svg>
