<svg width="678" height="238" viewBox="0 0 678 238" fill="none" xmlns="http://www.w3.org/2000/svg">
<g filter="url(#filter0_d_29_1963)">
<rect x="44" y="40" width="590" height="150" rx="75" fill="#79FFE1"/>
<path d="M226.036 119.808V114.758H231.983C233.18 114.758 234.14 114.397 234.863 113.674C235.586 112.926 235.948 111.953 235.948 110.756C235.948 109.609 235.586 108.686 234.863 107.988C234.14 107.29 233.18 106.941 231.983 106.941H226.036V101.891H232.02C234.09 101.891 235.898 102.252 237.444 102.976C238.99 103.699 240.187 104.734 241.035 106.08C241.883 107.402 242.307 108.961 242.307 110.756C242.307 112.576 241.883 114.172 241.035 115.544C240.187 116.891 238.99 117.938 237.444 118.686C235.923 119.434 234.115 119.808 232.02 119.808H226.036ZM221.622 128V101.891H227.794V128H221.622ZM253.693 128V100.32H259.528V128H253.693ZM246.96 128V123.287H266.336V128H246.96ZM249.578 105.033V100.32H256.611V105.033H249.578ZM285.727 128L285.54 124.259V114.01C285.54 113.038 285.178 112.277 284.455 111.729C283.732 111.155 282.734 110.868 281.463 110.868C280.241 110.868 279.243 111.13 278.47 111.654C277.722 112.152 277.286 112.863 277.161 113.786H271.513C271.637 112.315 272.136 111.055 273.009 110.008C273.882 108.961 275.054 108.163 276.525 107.614C278.021 107.04 279.754 106.754 281.724 106.754C283.669 106.754 285.365 107.053 286.812 107.651C288.258 108.225 289.368 109.085 290.141 110.232C290.939 111.354 291.338 112.738 291.338 114.384V128H285.727ZM279.069 128.449C277.697 128.449 276.488 128.187 275.44 127.663C274.393 127.115 273.582 126.367 273.009 125.419C272.435 124.471 272.149 123.399 272.149 122.202C272.149 120.058 272.971 118.399 274.617 117.227C276.288 116.03 278.582 115.432 281.5 115.432H286.101V119.472L281.35 119.509C280.278 119.509 279.418 119.708 278.769 120.107C278.146 120.481 277.834 121.055 277.834 121.828C277.834 122.377 278.059 122.85 278.508 123.249C278.981 123.648 279.642 123.848 280.49 123.848C281.662 123.848 282.697 123.561 283.595 122.988C284.517 122.389 285.278 121.579 285.876 120.556L286.512 124.484C285.889 125.855 284.929 126.865 283.632 127.514C282.36 128.137 280.839 128.449 279.069 128.449ZM304.856 114.422L306.726 119.771L308.634 114.422L311.664 107.202H317.611L308.409 129.01C307.786 130.506 307.063 131.691 306.24 132.563C305.442 133.461 304.532 134.11 303.509 134.509C302.487 134.908 301.315 135.107 299.993 135.107H296.14V130.394H299.357C300.055 130.394 300.641 130.232 301.115 129.908C301.614 129.584 302.038 129.147 302.387 128.598C302.761 128.075 303.098 127.476 303.397 126.803L303.771 125.943L295.916 107.202H301.901L304.856 114.422ZM360.956 128L360.769 124.259V114.01C360.769 113.038 360.407 112.277 359.684 111.729C358.961 111.155 357.964 110.868 356.692 110.868C355.47 110.868 354.472 111.13 353.699 111.654C352.951 112.152 352.515 112.863 352.39 113.786H346.742C346.867 112.315 347.365 111.055 348.238 110.008C349.111 108.961 350.283 108.163 351.754 107.614C353.251 107.04 354.984 106.754 356.954 106.754C358.899 106.754 360.594 107.053 362.041 107.651C363.487 108.225 364.597 109.085 365.37 110.232C366.168 111.354 366.567 112.738 366.567 114.384V128H360.956ZM354.298 128.449C352.926 128.449 351.717 128.187 350.67 127.663C349.622 127.115 348.812 126.367 348.238 125.419C347.665 124.471 347.378 123.399 347.378 122.202C347.378 120.058 348.201 118.399 349.847 117.227C351.517 116.03 353.812 115.432 356.729 115.432H361.33V119.472L356.58 119.509C355.507 119.509 354.647 119.708 353.999 120.107C353.375 120.481 353.063 121.055 353.063 121.828C353.063 122.377 353.288 122.85 353.737 123.249C354.211 123.648 354.871 123.848 355.719 123.848C356.891 123.848 357.926 123.561 358.824 122.988C359.747 122.389 360.507 121.579 361.106 120.556L361.742 124.484C361.118 125.855 360.158 126.865 358.861 127.514C357.59 128.137 356.068 128.449 354.298 128.449ZM382.516 128.449C380.571 128.449 378.863 128.137 377.392 127.514C375.921 126.865 374.773 125.955 373.95 124.783C373.152 123.586 372.741 122.177 372.716 120.556H378.14C378.09 121.703 378.452 122.601 379.225 123.249C380.023 123.898 381.107 124.222 382.479 124.222C383.476 124.222 384.274 124.06 384.873 123.736C385.496 123.387 385.808 122.913 385.808 122.314C385.808 121.791 385.571 121.379 385.097 121.08C384.649 120.756 384.05 120.506 383.302 120.332C382.554 120.132 381.731 119.945 380.833 119.771C379.935 119.571 379.025 119.334 378.103 119.06C377.205 118.786 376.382 118.424 375.634 117.975C374.886 117.501 374.275 116.891 373.801 116.142C373.352 115.369 373.128 114.409 373.128 113.262C373.128 111.94 373.502 110.793 374.25 109.821C374.998 108.848 376.033 108.1 377.354 107.576C378.701 107.028 380.247 106.754 381.993 106.754C384.661 106.754 386.818 107.377 388.464 108.624C390.135 109.846 391.057 111.566 391.232 113.786H385.845C385.796 112.863 385.422 112.165 384.723 111.691C384.025 111.217 383.127 110.98 382.03 110.98C381.107 110.98 380.372 111.143 379.823 111.467C379.275 111.791 379 112.277 379 112.926C379 113.449 379.225 113.861 379.674 114.16C380.147 114.434 380.758 114.659 381.506 114.833C382.255 115.008 383.077 115.17 383.975 115.319C384.898 115.469 385.808 115.681 386.706 115.955C387.604 116.205 388.426 116.554 389.175 117.003C389.923 117.452 390.521 118.05 390.97 118.798C391.444 119.546 391.681 120.506 391.681 121.678C391.681 123.798 390.845 125.456 389.175 126.653C387.529 127.85 385.309 128.449 382.516 128.449ZM432.295 128.449C430.151 128.449 428.305 128.05 426.759 127.252C425.238 126.429 424.066 125.282 423.243 123.811C422.445 122.314 422.046 120.556 422.046 118.536H428.106C428.106 120.107 428.442 121.317 429.116 122.165C429.814 122.988 430.874 123.399 432.295 123.399C433.417 123.399 434.303 123.162 434.951 122.688C435.624 122.19 435.961 121.491 435.961 120.594C435.961 119.92 435.712 119.397 435.213 119.023C434.739 118.624 434.091 118.299 433.268 118.05C432.47 117.776 431.584 117.526 430.612 117.302C429.664 117.053 428.704 116.753 427.732 116.404C426.784 116.055 425.899 115.594 425.076 115.02C424.278 114.447 423.63 113.699 423.131 112.776C422.657 111.853 422.42 110.681 422.42 109.26C422.42 107.788 422.819 106.467 423.617 105.295C424.44 104.123 425.575 103.188 427.021 102.489C428.467 101.791 430.163 101.442 432.108 101.442C433.879 101.442 435.525 101.791 437.046 102.489C438.567 103.163 439.801 104.148 440.749 105.444C441.696 106.741 442.195 108.337 442.245 110.232H436.073C436.023 109.384 435.799 108.686 435.4 108.138C435.026 107.589 434.54 107.177 433.941 106.903C433.367 106.629 432.757 106.492 432.108 106.492C431.185 106.492 430.4 106.716 429.752 107.165C429.103 107.589 428.779 108.225 428.779 109.073C428.779 109.721 429.016 110.232 429.49 110.606C429.988 110.98 430.637 111.292 431.435 111.541C432.258 111.766 433.143 111.99 434.091 112.215C435.063 112.439 436.023 112.726 436.971 113.075C437.943 113.399 438.829 113.861 439.627 114.459C440.45 115.058 441.098 115.856 441.572 116.853C442.071 117.826 442.32 119.073 442.32 120.594C442.32 122.115 441.883 123.474 441.011 124.671C440.163 125.843 438.978 126.766 437.457 127.439C435.961 128.112 434.24 128.449 432.295 128.449ZM454.304 128V100.32H460.14V128H454.304ZM447.571 128V123.287H466.947V128H447.571ZM450.19 105.033V100.32H457.222V105.033H450.19ZM486.338 128L486.151 124.259V114.01C486.151 113.038 485.79 112.277 485.066 111.729C484.343 111.155 483.346 110.868 482.074 110.868C480.852 110.868 479.855 111.13 479.082 111.654C478.333 112.152 477.897 112.863 477.772 113.786H472.124C472.249 112.315 472.747 111.055 473.62 110.008C474.493 108.961 475.665 108.163 477.136 107.614C478.633 107.04 480.366 106.754 482.336 106.754C484.281 106.754 485.977 107.053 487.423 107.651C488.869 108.225 489.979 109.085 490.752 110.232C491.55 111.354 491.949 112.738 491.949 114.384V128H486.338ZM479.68 128.449C478.308 128.449 477.099 128.187 476.052 127.663C475.004 127.115 474.194 126.367 473.62 125.419C473.047 124.471 472.76 123.399 472.76 122.202C472.76 120.058 473.583 118.399 475.229 117.227C476.9 116.03 479.194 115.432 482.111 115.432H486.712V119.472L481.962 119.509C480.889 119.509 480.029 119.708 479.381 120.107C478.757 120.481 478.446 121.055 478.446 121.828C478.446 122.377 478.67 122.85 479.119 123.249C479.593 123.648 480.254 123.848 481.101 123.848C482.273 123.848 483.308 123.561 484.206 122.988C485.129 122.389 485.889 121.579 486.488 120.556L487.124 124.484C486.5 125.855 485.54 126.865 484.243 127.514C482.972 128.137 481.451 128.449 479.68 128.449ZM509.058 128C507.662 128 506.427 127.688 505.355 127.065C504.308 126.416 503.497 125.531 502.924 124.409C502.35 123.262 502.063 121.965 502.063 120.519V103.724L507.899 101.105V120.519C507.899 121.167 507.986 121.703 508.16 122.127C508.36 122.526 508.709 122.826 509.208 123.025C509.731 123.2 510.455 123.287 511.377 123.287H516.651V128H509.058ZM497.949 111.916V107.202H512.948V111.916H497.949ZM532.975 128.449C531.03 128.449 529.322 128.137 527.85 127.514C526.379 126.865 525.232 125.955 524.409 124.783C523.611 123.586 523.2 122.177 523.175 120.556H528.598C528.549 121.703 528.91 122.601 529.683 123.249C530.481 123.898 531.566 124.222 532.938 124.222C533.935 124.222 534.733 124.06 535.331 123.736C535.955 123.387 536.267 122.913 536.267 122.314C536.267 121.791 536.03 121.379 535.556 121.08C535.107 120.756 534.509 120.506 533.76 120.332C533.012 120.132 532.189 119.945 531.292 119.771C530.394 119.571 529.484 119.334 528.561 119.06C527.663 118.786 526.84 118.424 526.092 117.975C525.344 117.501 524.733 116.891 524.259 116.142C523.811 115.369 523.586 114.409 523.586 113.262C523.586 111.94 523.96 110.793 524.708 109.821C525.456 108.848 526.491 108.1 527.813 107.576C529.16 107.028 530.706 106.754 532.451 106.754C535.12 106.754 537.277 107.377 538.922 108.624C540.593 109.846 541.516 111.566 541.69 113.786H536.304C536.254 112.863 535.88 112.165 535.182 111.691C534.484 111.217 533.586 110.98 532.489 110.98C531.566 110.98 530.83 111.143 530.282 111.467C529.733 111.791 529.459 112.277 529.459 112.926C529.459 113.449 529.683 113.861 530.132 114.16C530.606 114.434 531.217 114.659 531.965 114.833C532.713 115.008 533.536 115.17 534.434 115.319C535.356 115.469 536.267 115.681 537.164 115.955C538.062 116.205 538.885 116.554 539.633 117.003C540.381 117.452 540.98 118.05 541.429 118.798C541.902 119.546 542.139 120.506 542.139 121.678C542.139 123.798 541.304 125.456 539.633 126.653C537.987 127.85 535.768 128.449 532.975 128.449Z" fill="#0E092D"/>
<mask id="mask0_29_1963" style="mask-type:alpha" maskUnits="userSpaceOnUse" x="72" y="67" width="95" height="95">
<circle cx="119.5" cy="114.5" r="47.5" fill="#D9D9D9"/>
</mask>
<g mask="url(#mask0_29_1963)">
<circle cx="119.5" cy="114.5" r="47.5" fill="#3FD4B3"/>
<path fill-rule="evenodd" clip-rule="evenodd" d="M95.8641 201.283C81.7169 194.873 75.6868 187.236 75.0463 174.943C74.8198 166.271 80.7484 156.307 86.794 155.203C87.1798 155.132 87.4498 154.78 87.4207 154.392C86.4044 140.9 88.7654 129.772 92.9076 116.189C93.4579 114.378 94.0292 112.302 94.5971 110.188H94.5435C93.536 110.15 92.5683 110.016 91.6352 109.886C90.4705 109.725 89.2657 109.554 87.9675 109.577H87.957C87.5606 109.577 87.2369 109.239 87.2318 108.82C87.2267 108.395 87.5488 108.048 87.9485 108.044C89.354 108.02 90.6108 108.2 91.8241 108.368C92.7673 108.498 93.6568 108.622 94.5934 108.655C94.7337 108.662 94.8634 108.709 94.9708 108.785C95.0608 108.451 95.1491 108.119 95.2374 107.786C95.2826 107.613 95.3291 107.438 95.376 107.265C95.3016 107.248 95.2273 107.218 95.1563 107.175C93.8978 106.413 92.428 106.019 90.8737 105.601C90.1866 105.414 89.4977 105.231 88.8313 105.014C88.4472 104.888 88.2308 104.46 88.35 104.054C88.4679 103.65 88.8799 103.425 89.259 103.548C89.9043 103.757 90.569 103.936 91.232 104.114C92.7723 104.531 94.3651 104.959 95.7724 105.779C96.4489 103.243 97.1382 100.727 97.8114 98.5687C98.3168 96.9375 98.8223 95.2459 99.3277 93.5564C100.965 88.0749 102.66 82.4075 104.202 79.369C104.36 79.0558 104.604 78.6851 104.876 78.6851C106.461 78.6851 109.486 84.6945 110.478 86.6719C111.07 87.8474 111.318 88.3339 111.519 88.5678C111.782 88.8725 112.235 88.9262 112.559 88.6836C114.415 87.2972 126.239 87.2536 129.428 88.6198C129.69 88.7339 129.993 88.6891 130.214 88.509C130.434 88.3323 130.538 88.0415 130.479 87.7625C130.254 86.6407 132.414 82.5913 134.734 80.299C135.762 79.2807 136.333 79.1286 136.47 79.1594C138.526 79.5961 139.785 86.092 140.898 91.8243C141.617 95.5327 142.362 99.3744 143.406 102.709L143.929 104.392C144.254 105.455 144.638 106.696 145.05 108.017C147.591 107.167 150.392 106.676 152.825 106.283C153.222 106.217 153.594 106.505 153.655 106.925C153.715 107.342 153.443 107.734 153.047 107.799C150.671 108.181 147.944 108.66 145.505 109.472C145.677 110.017 145.853 110.571 146.028 111.124C148.062 110.741 151.617 110.4 153.629 110.971C154.016 111.082 154.248 111.501 154.141 111.911C154.037 112.318 153.639 112.561 153.251 112.453C151.614 111.986 148.512 112.235 146.501 112.592C146.911 113.856 147.318 115.089 147.705 116.212C148.32 118.009 148.92 119.559 149.556 121.197C150.312 123.155 151.095 125.177 151.996 127.859C153.803 133.261 156.225 143.921 155.488 151.152C155.463 151.367 155.534 151.585 155.683 151.748C161.368 157.946 162.276 168.134 160.715 174.974C159.739 179.226 156.955 182.769 154.096 183.399C152.162 183.825 150.269 182.918 148.619 180.783C147.866 179.808 147.15 176.454 147.712 175.029C147.721 175.021 147.733 175.018 147.74 175.01C151.787 171.056 154.378 165.119 154.674 159.126C154.695 158.702 154.37 158.346 153.947 158.321C153.502 158.28 153.163 158.628 153.142 159.048C152.869 164.584 150.388 170.278 146.669 173.914C146.663 173.92 146.662 173.927 146.656 173.932C146.56 173.996 146.47 174.075 146.407 174.186C144.768 177.06 134.453 179.462 130.488 179.619C128.506 176.354 123.865 175.68 119.367 175.04C115.879 174.54 112.587 174.069 110.899 172.483C110.591 172.194 110.106 172.208 109.816 172.517C109.527 172.826 109.54 173.31 109.85 173.601C111.891 175.518 115.415 176.022 119.148 176.557C123.377 177.161 127.75 177.786 129.283 180.577C129.306 180.617 129.346 180.634 129.375 180.669C129.38 180.689 129.377 180.713 129.387 180.734C130.284 182.609 130.123 184.32 129.593 185.116C128.589 186.624 126.909 187.601 124.603 188.023C117.951 189.244 107.654 185.532 103.198 182.343C94.1221 175.873 92.4483 170.881 90.5099 165.102C90.4305 164.862 90.3456 164.617 90.264 164.374C90.264 164.293 90.2589 164.21 90.2331 164.129C89.4594 161.843 89.0212 159.977 88.85 158.256C88.8086 157.835 88.4363 157.524 88.0086 157.57C87.5899 157.612 87.2818 157.986 87.3232 158.408C87.4741 159.913 87.8236 161.521 88.3826 163.362C86.7523 164.21 85.4089 165.882 84.5625 168.159C83.1104 172.062 83.4806 176.818 85.5213 180.573C89.4886 187.895 95.9365 191.181 104.399 193.858C105.724 194.281 108.194 194.89 112.445 195.393L112.634 195.418C113.322 195.529 114.098 195.633 114.927 195.747C119.054 196.306 124.707 197.07 126.195 199.641C127.215 201.426 127.035 203.368 125.764 204.265C119.431 208.727 101.58 203.879 95.8645 201.282L95.8641 201.283ZM118.497 153.592C119.918 152.235 120.63 150.587 120.616 148.694C120.59 145.754 118.753 142.382 115.574 139.444C114.487 138.437 111.598 136.048 108.268 135.567C107.847 135.508 107.459 135.796 107.399 136.216C107.338 136.633 107.629 137.023 108.046 137.084C110.952 137.506 113.552 139.66 114.533 140.567C117.362 143.181 119.061 146.225 119.083 148.708C119.094 150.16 118.541 151.43 117.44 152.482C115.932 153.918 114.291 154.39 112.699 153.857C110.479 153.113 108.652 150.545 108.146 147.463C107.58 144.056 105.718 142.57 104.657 141.987C103.379 141.282 101.901 141.133 100.807 141.599C100.417 141.765 100.236 142.214 100.398 142.605C100.565 142.995 101.015 143.18 101.404 143.01C101.908 142.799 102.869 142.754 103.92 143.331C104.736 143.779 106.175 144.946 106.633 147.712C107.229 151.336 109.469 154.39 112.21 155.311C112.796 155.505 113.384 155.604 113.974 155.604C115.543 155.604 117.101 154.918 118.497 153.592L118.497 153.592ZM139.156 151.314C141.619 148.49 141.956 146.004 142.225 144.007C142.524 141.805 142.72 140.347 145.488 139.088C145.874 138.912 146.043 138.456 145.867 138.072C145.692 137.688 145.238 137.518 144.852 137.691C141.314 139.305 141.02 141.488 140.707 143.8C140.452 145.69 140.163 147.83 138.001 150.306C136.926 151.54 134.796 151.939 132.814 151.274C131.829 150.942 129.514 149.849 129.307 146.852C128.969 142.009 135.247 135.693 139.367 134.291C139.769 134.156 139.983 133.72 139.845 133.32C139.712 132.918 139.273 132.702 138.874 132.842C134.214 134.423 127.389 141.381 127.78 146.958C127.966 149.676 129.667 151.833 132.326 152.729C133.138 152.999 133.962 153.132 134.758 153.132C136.513 153.132 138.13 152.495 139.156 151.314L139.156 151.314ZM124.671 111.365C124.671 110.354 123.158 109.523 121.297 109.523C119.428 109.523 117.925 110.354 117.925 111.365C117.925 112.386 119.428 113.203 121.297 113.203C123.158 113.203 124.671 112.386 124.671 111.365ZM109.751 108.665C109.751 107.192 108.556 106.008 107.094 106.008C105.622 106.008 104.426 107.192 104.426 108.665C104.426 110.127 105.622 111.323 107.094 111.323C108.556 111.323 109.751 110.127 109.751 108.665ZM137.332 108.207C137.332 106.733 136.138 105.549 134.676 105.549C133.204 105.549 132.019 106.733 132.019 108.207C132.019 109.668 133.204 110.863 134.676 110.863C136.138 110.863 137.332 109.668 137.332 108.207Z" fill="black"/>
</g>
</g>
<defs>
<filter id="filter0_d_29_1963" x="0" y="0" width="678" height="238" filterUnits="userSpaceOnUse" color-interpolation-filters="sRGB">
<feFlood flood-opacity="0" result="BackgroundImageFix"/>
<feColorMatrix in="SourceAlpha" type="matrix" values="0 0 0 0 0 0 0 0 0 0 0 0 0 0 0 0 0 0 127 0" result="hardAlpha"/>
<feOffset dy="4"/>
<feGaussianBlur stdDeviation="22"/>
<feComposite in2="hardAlpha" operator="out"/>
<feColorMatrix type="matrix" values="0 0 0 0 0 0 0 0 0 0 0 0 0 0 0 0 0 0 0.25 0"/>
<feBlend mode="normal" in2="BackgroundImageFix" result="effect1_dropShadow_29_1963"/>
<feBlend mode="normal" in="SourceGraphic" in2="effect1_dropShadow_29_1963" result="shape"/>
</filter>
</defs>
</svg>
