<?xml version="1.0" encoding="UTF-8"?>
<svg width="490px" height="444px" viewBox="0 0 490 444" version="1.1" xmlns="http://www.w3.org/2000/svg" xmlns:xlink="http://www.w3.org/1999/xlink">
    <title>Shape</title>
    <g id="Page-1" stroke="none" stroke-width="1" fill="none" fill-rule="evenodd">
        <g id="noun-canned-food-4489098" transform="translate(0.002000, 0.330000)" fill="#000000" fill-rule="nonzero">
            <path d="M186.668,315 C186.668,330.473 192.8125,345.309 203.754,356.25 C214.692,367.188 229.527,373.336 245,373.336 C260.473,373.336 275.309,367.1876 286.246,356.25 C297.187,345.309 303.332,330.473 303.332,315 C303.332,299.531 297.1875,284.691 286.246,273.754 C275.308,262.813 260.473,256.668 245,256.668 C229.535,256.683625 214.707,262.836 203.77,273.77 C192.832,284.708 186.684,299.536 186.668,315 Z M280,315 C280,324.2852 276.3125,333.188 269.75,339.75 C263.1836,346.3125 254.281,350 245,350 C235.719,350 226.816,346.3125 220.25,339.75 C213.6875,333.1875 210,324.285 210,315 C210,305.7188 213.6875,296.816 220.25,290.254 C226.8164,283.6876 235.719,280 245,280 C254.2812,280.011719 263.176,283.7031 269.738,290.266 C276.3005,296.8246 279.988,305.723 280,315 Z M245,0 C107.62,0 2.84217094e-14,46.121 2.84217094e-14,105 L2.84217094e-14,338.34 C2.84217094e-14,397.219 107.62,443.34 245,443.34 C382.38,443.34 490,397.219 490,338.34 L490,105 C490,46.121 382.38,0 245,0 Z M466.67,338.34 C466.67,376.961 375.639,420.008 245,420.008 C114.37,420.004093 23.33,376.961 23.33,338.34 L23.33,150.2 C62.103,185.825 145.65,210.009 245,210.009 C344.35,210.009 427.89,185.825 466.67,150.2 L466.67,338.34 Z M245,186.67 C114.37,186.67 23.33,143.627 23.33,105.002 C23.33,66.381 114.365,23.338 245,23.338 C375.635,23.338 466.67,66.381 466.67,105.002 C466.67,143.627 375.635,186.67 245,186.67 Z M245,58.34 C188.672,58.34 93.33,68.172 93.33,105.008 C93.33,141.84 188.67,151.672 245,151.672 C301.33,151.672 396.67,141.84 396.67,105.004 C396.67,68.172 301.33,58.34 245,58.34 Z M245,128.34 C167.117,128.34 120.66,112.844 116.53,105.84 C120.655,97.1681 167.116,81.672 245,81.672 C320.445,81.672 366.41,96.211 372.97,105.004 C366.4075,113.8009 320.447,128.34 245,128.34 Z" id="Shape"></path>
        </g>
    </g>
</svg>