<?xml version="1.0" encoding="UTF-8"?>
<svg width="364px" height="456px" viewBox="0 0 364 456" version="1.1" xmlns="http://www.w3.org/2000/svg" xmlns:xlink="http://www.w3.org/1999/xlink">
    <title>Group</title>
    <g id="Page-1" stroke="none" stroke-width="1" fill="none" fill-rule="evenodd">
        <g id="noun-can-food-3992410" transform="translate(0.751611, 0.395849)" fill="#000000" fill-rule="nonzero">
            <g id="Group" transform="translate(0.000000, 0.000000)">
                <path d="M123.208389,437.434151 C121.774789,437.191961 120.341189,436.918531 118.919289,436.633371 C115.485689,435.949781 112.138089,438.172471 111.450489,441.609971 C110.762889,445.047471 112.989589,448.391171 116.427089,449.078771 C117.966189,449.387361 119.524789,449.676431 121.079389,449.945961 C121.438769,450.008461 121.798139,450.035805 122.149689,450.035805 C125.188789,450.035805 127.872389,447.844405 128.399689,444.750605 C128.993439,441.293605 126.661389,438.016205 123.208289,437.434205 L123.208389,437.434151 Z" id="Path"></path>
                <path d="M356.518389,244.934151 C360.479289,237.055251 362.483189,228.891151 362.483189,220.551151 C362.483189,187.324151 330.374189,157.266151 276.588189,140.145151 C273.252289,139.082651 269.677989,140.930311 268.615489,144.266251 C267.552989,147.602151 269.400649,151.176451 272.736589,152.238951 C320.263589,167.371951 349.787589,193.543951 349.787589,220.547951 C349.787589,229.962051 346.338389,239.250951 339.529589,248.168951 C336.623389,252.000951 333.006189,255.786151 328.818589,259.445951 C328.427969,259.293611 328.013899,259.184231 327.580289,259.113921 L325.654489,258.801421 C310.646489,256.242821 296.416489,249.965521 284.494489,240.645421 C284.408551,240.579014 284.322609,240.512611 284.232769,240.450111 L284.22105,240.446205 C271.07605,230.098205 260.99105,216.360205 255.04505,200.704205 C249.22475,185.438205 247.61535,168.794205 250.39275,152.556205 C251.03728,148.743705 251.92005,144.978105 253.03725,141.337205 C258.99035,121.567205 271.65825,104.177205 288.70925,92.3642047 C303.93625,81.8212047 311.76425,63.7942047 309.13925,45.3132047 C306.49085,26.6532047 293.80725,11.3682047 276.03425,5.40720471 C264.41325,1.52830471 252.26125,-0.284195287 239.93225,0.0361047126 C183.76025,1.51270471 138.02225,48.4581047 137.97225,104.676105 C137.956625,115.395105 139.56205,125.977105 142.75345,136.125105 C149.38235,157.289105 162.83945,176.023105 180.76545,189.207105 C120.15645,189.293042 64.90545,205.594105 32.88545,232.848105 C30.21355,235.121505 29.89325,239.125405 32.1667,241.797305 C33.4206,243.270005 35.2058,244.031705 36.9987,244.031705 C38.4557,244.031705 39.9167,243.531705 41.1081,242.520005 C70.5301,217.465005 124.2211,201.903005 181.2281,201.903005 C188.0093,201.903005 194.7481,202.121755 201.2941,202.535815 L276.9741,250.879815 C288.2711,259.637615 301.3571,266.000815 315.2711,269.551815 C283.4231,289.867815 233.8181,302.125815 181.2211,302.125815 C111.1591,302.125815 47.5411,280.437815 22.9211,248.156815 C16.1281,239.246615 12.6911,229.957815 12.6911,220.547815 C12.6911,186.875815 56.8241,156.168815 122.5111,144.141815 C125.9603,143.509005 128.2416,140.204315 127.6127,136.755115 C126.9838,133.305915 123.6713,131.020715 120.226,131.653515 C85.945,137.930815 56.488,149.255515 35.035,164.395515 C12.113,180.575515 0,199.989515 0,220.547515 C0,228.895215 2.0117,237.067515 5.9766,244.961515 L5.980506,336.629515 C5.906287,336.758425 5.812536,336.871705 5.746126,337.004515 C1.945326,344.723315 0.015626,352.770515 0.015626,360.922515 C0.015626,373.176515 4.328126,385.047515 12.839626,396.223515 C27.952626,416.024515 56.050626,432.692515 91.944626,443.145515 C92.538376,443.317395 93.136026,443.403325 93.718026,443.403325 C96.468026,443.403325 98.999226,441.598625 99.811826,438.829125 C100.792296,435.461925 98.858706,431.942425 95.495426,430.961925 C62.183426,421.258825 36.409426,406.188925 22.936426,388.531925 C16.147326,379.621725 12.709426,370.332925 12.709426,360.922925 C12.709426,355.520625 13.846126,350.137925 16.084426,344.895925 C17.646926,343.743625 18.670326,341.899825 18.670326,339.806125 L18.670326,262.693125 C48.822326,294.591125 111.147326,314.818125 181.230326,314.818125 C245.027326,314.818125 302.800326,298.146125 335.790326,270.232125 C337.782526,268.544625 339.669226,266.825925 341.446526,265.087625 C339.790326,269.853225 337.274626,274.556425 333.880126,279.153625 C331.641826,282.216125 328.934826,285.302025 325.860626,288.286425 C324.680926,289.419225 323.501226,290.505225 322.372326,291.493425 C312.712126,299.954325 300.302326,307.434425 285.485326,313.731425 C263.688326,322.993125 249.610326,344.145425 249.610326,367.610425 C249.610326,381.102425 256.532226,393.309425 268.122326,400.251425 C274.153526,403.864725 280.841326,405.677225 287.536326,405.677225 C293.606626,405.677225 299.681326,404.188925 305.282326,401.192825 C315.005026,395.989725 323.567326,390.172825 330.727326,383.899825 C335.985126,379.298225 340.489026,374.454525 344.098326,369.520825 C346.270226,366.575525 348.153026,363.579425 349.758526,360.544225 C349.758526,360.673135 349.770245,360.802035 349.770245,360.923135 C349.770245,370.337235 346.324945,379.622135 339.524245,388.536135 C336.332845,392.735335 332.317245,396.903335 327.590245,400.911135 C297.281245,426.563135 241.199245,442.497135 181.220245,442.497135 C169.712245,442.497135 158.267245,441.926825 147.193245,440.794035 C143.704945,440.430755 140.591645,442.977635 140.236245,446.462035 C139.876865,449.950335 142.419845,453.063635 145.904245,453.419035 C157.400245,454.590935 169.279245,455.188535 181.216245,455.188535 C245.017245,455.188535 302.806245,438.516535 335.796245,410.594535 C341.233745,405.985135 345.886245,401.141435 349.628245,396.219535 C358.147745,385.051535 362.468245,373.176535 362.468245,360.918535 C362.468245,352.613835 360.456545,344.410535 356.503445,336.523535 L356.518389,244.934151 Z M154.858389,132.334151 C152.057589,123.420051 150.647489,114.123151 150.659117,104.697151 C150.702158,55.2831507 190.893189,14.0291507 240.253189,12.7321507 C251.112189,12.4469907 261.792189,14.0368507 271.995189,17.4469507 C285.378189,21.9313507 294.561189,33.0129507 296.561189,47.0989507 C298.537789,60.9969507 292.897089,74.0169507 281.475189,81.9309507 C262.073189,95.3719507 247.651189,115.172951 240.881189,137.657951 C239.619489,141.790751 238.607789,146.091551 237.873389,150.430951 C234.713189,168.895951 236.553089,187.844951 243.178089,205.219951 C244.846089,209.610551 246.803089,213.864451 249.025789,217.965951 L190.201789,180.379951 C173.474789,168.734951 160.924789,151.680951 154.857789,132.332951 L154.858389,132.334151 Z M333.898389,361.994151 C330.820289,366.201151 326.941389,370.353551 322.386389,374.349151 C315.952789,379.981951 308.191389,385.251151 299.320389,389.994151 C291.515689,394.166051 282.300389,393.931651 274.668389,389.357431 C266.933989,384.724631 262.320389,376.595431 262.320389,367.599431 C262.320389,349.232431 273.367389,332.673431 290.465389,325.404431 C306.520389,318.576331 320.078389,310.381431 330.758389,301.021431 C332.039589,299.896431 333.352189,298.685531 334.695889,297.396431 C338.180289,294.013631 341.246689,290.521431 343.828689,287.029431 L343.828689,334.232431 C343.828689,334.248056 343.824783,334.267587 343.824783,334.283212 C343.820877,343.744112 340.488883,353.064212 333.898983,361.994212 L333.898389,361.994151 Z" id="Shape"></path>
                <path d="M138.718389,219.584151 C124.343389,219.584151 112.644389,231.283151 112.644389,245.658151 C112.644389,249.162051 115.484189,252.001951 118.988189,252.001951 C122.492089,252.001951 125.331989,249.162151 125.331989,245.658151 C125.331989,238.279251 131.335889,232.275151 138.714989,232.275151 C146.094089,232.275151 152.097989,238.279051 152.097989,245.658151 C152.097989,249.162051 154.937789,252.001951 158.441789,252.001951 C161.945689,252.001951 164.785593,249.162151 164.785593,245.658151 C164.793402,231.275151 153.101589,219.584151 138.719589,219.584151 L138.718389,219.584151 Z" id="Path"></path>
                <path d="M198.368389,265.784151 C201.872289,265.784151 204.712189,262.944351 204.712189,259.440351 C204.712189,254.998951 208.325489,251.385651 212.766889,251.385651 C217.208289,251.385651 220.821589,254.998951 220.821589,259.440351 C220.821589,262.944251 223.661389,265.784151 227.165389,265.784151 C230.669389,265.784151 233.509189,262.944351 233.509189,259.440351 C233.509189,247.999351 224.200589,238.694351 212.763189,238.694351 C201.322189,238.694351 192.017189,248.002951 192.017189,259.440351 C192.025001,262.940351 194.864889,265.784151 198.368789,265.784151 L198.368389,265.784151 Z" id="Path"></path>
                <path d="M83.178389,265.784161 C83.756509,265.784161 84.342489,265.706025 84.924489,265.538061 C88.295589,264.573221 90.244789,261.065361 89.287789,257.694261 L88.256589,254.092661 C87.291749,250.721561 83.776089,248.772361 80.412789,249.729361 C77.041689,250.694201 75.092489,254.202061 76.049489,257.573161 L77.080689,261.174761 C77.873659,263.963861 80.416589,265.784161 83.178389,265.784161 L83.178389,265.784161 Z" id="Path"></path>
                <path d="M160.818389,279.404151 C158.779289,282.255751 159.439489,286.220551 162.291089,288.259651 C163.412189,289.060431 164.697289,289.439351 165.974689,289.439351 C167.955189,289.439351 169.904389,288.513571 171.142689,286.779151 L173.712989,283.177551 C175.752089,280.325951 175.091889,276.361151 172.240289,274.322051 C169.388689,272.282951 165.423889,272.943151 163.384789,275.794751 L160.818389,279.404151 Z" id="Path"></path>
                <path d="M188.128389,210.864151 C185.472189,208.575051 181.464289,208.864151 179.175289,211.520401 C176.886289,214.176651 177.175289,218.180601 179.831539,220.473501 L185.487739,225.356301 C186.686939,226.391501 188.163539,226.895401 189.632239,226.895401 C191.413439,226.895401 193.183039,226.149311 194.436939,224.696201 C196.726039,222.040001 196.436939,218.036001 193.780689,215.743101 L188.128389,210.864151 Z" id="Path"></path>
                <path d="M255.978389,281.724171 C256.931519,281.724171 257.900289,281.505401 258.810389,281.052271 L262.927589,278.997571 C266.064289,277.431171 267.333789,273.614771 265.767389,270.478071 C264.200989,267.341371 260.384589,266.071871 257.247889,267.638271 L253.130689,269.692971 C249.993989,271.259371 248.724489,275.075771 250.290889,278.212471 C251.408089,280.435171 253.650289,281.724171 255.978389,281.724171 L255.978389,281.724171 Z" id="Path"></path>
                <path d="M69.348389,380.814151 C61.223389,384.802451 52.094389,383.872751 44.914389,378.321951 C38.265989,373.181351 32.769389,367.688951 28.566389,361.993951 C26.488289,359.169751 22.511689,358.572051 19.691389,360.646251 C16.867189,362.724351 16.265589,366.700951 18.343689,369.521251 C23.238189,376.169651 29.566689,382.509251 37.148689,388.369251 C43.609589,393.365351 51.312689,395.916151 59.082689,395.916151 C64.457689,395.916151 69.875689,394.693451 74.937689,392.209151 C87.261689,386.154451 94.925689,373.857151 94.925689,360.115151 C94.925689,337.990151 82.616689,317.615151 62.796689,306.943151 C52.409689,301.349351 43.608689,295.076151 36.644689,288.310151 C34.129089,285.868751 30.113489,285.923451 27.668089,288.435151 C25.226689,290.950751 25.281389,294.966351 27.793089,297.411751 C35.597789,305.001551 45.348089,311.966751 56.773089,318.118751 C72.476089,326.567951 82.226089,342.661751 82.226089,360.114751 C82.233901,369.114751 77.417489,376.852751 69.347089,380.813751 L69.348389,380.814151 Z" id="Path"></path>
                <path d="M191.228389,61.2441507 C213.802389,38.0601507 239.494389,32.2481507 254.947389,36.7601507 C259.146589,37.9906507 266.431389,41.1937507 268.013389,48.8621507 C270.204789,59.4951507 261.153989,74.1081507 243.189389,88.9481507 C240.486289,91.1825507 240.103489,95.1825507 242.337829,97.8856507 C243.591729,99.4051507 245.408129,100.194251 247.232329,100.194251 C248.654229,100.194251 250.087829,99.7176907 251.271429,98.7450507 C273.294429,80.5500507 283.658429,61.9330507 280.447429,46.3190507 C278.318529,35.9640507 270.322429,28.0460507 258.513429,24.5920507 C240.810429,19.4123507 210.189429,23.5881507 182.134429,52.4010507 C179.689129,54.9088507 179.743829,58.9322507 182.251619,61.3776507 C184.767219,63.8112507 188.782819,63.7565507 191.228219,61.2448407 L191.228389,61.2441507 Z" id="Path"></path>
                <path d="M308.028389,241.624151 C308.844799,241.975711 309.692489,242.139771 310.532289,242.139771 C312.989289,242.139771 315.336989,240.702271 316.368189,238.292071 C318.821289,232.581171 320.063489,226.667071 320.063489,220.718071 C320.063489,197.937071 301.805489,176.730071 269.981489,162.534071 C266.778389,161.104371 263.024489,162.545789 261.598689,165.741071 C260.168989,168.944171 261.610408,172.698071 264.805689,174.123871 C291.852689,186.185871 307.364689,203.170871 307.364689,220.717871 C307.364689,224.936671 306.470159,229.163171 304.700589,233.283871 C303.313889,236.510471 304.809969,240.240871 308.028689,241.623671 L308.028389,241.624151 Z" id="Path"></path>
            </g>
        </g>
    </g>
</svg>