<?xml version="1.0" encoding="UTF-8"?>
<svg width="454px" height="450px" viewBox="0 0 454 450" version="1.1" xmlns="http://www.w3.org/2000/svg" xmlns:xlink="http://www.w3.org/1999/xlink">
    <title>Group</title>
    <g id="Page-1" stroke="none" stroke-width="1" fill="none" fill-rule="evenodd">
        <g id="chicken" transform="translate(0.345896, 0.449066)" fill="#000000" fill-rule="nonzero">
            <g id="Group">
                <path d="M69.7341042,149.210934 C69.7341042,153.105434 66.5739042,156.265634 62.6794042,156.265634 C58.7810042,156.265634 55.6208042,153.105434 55.6208042,149.210934 C55.6208042,145.312534 58.7810042,142.152334 62.6794042,142.152334 C66.5739042,142.152334 69.7341042,145.312534 69.7341042,149.210934" id="Path"></path>
                <path d="M160.244104,158.260901 C156.345704,158.284372 153.220704,161.448434 153.243974,165.374234 C153.287072,169.276534 156.470704,172.409434 160.369104,172.386065 C164.267504,172.342965 167.419904,169.155434 167.373004,165.257034 C167.330035,161.358634 164.142504,158.249234 160.244104,158.260901 Z" id="Path"></path>
                <path d="M158.794104,212.630934 C154.895704,212.654372 151.770704,215.818434 151.809704,219.720734 C151.809704,223.619134 154.989404,226.763734 158.895604,226.720734 C162.817504,226.697297 165.946404,223.513734 165.899504,219.607434 C165.907316,215.689434 162.719804,212.591834 158.794004,212.630834 L158.794104,212.630934 Z" id="Path"></path>
                <path d="M103.654104,211.440934 C103.654104,215.339334 100.493904,218.499534 96.5955042,218.499534 C92.7010042,218.499534 89.5408042,215.339334 89.5408042,211.440934 C89.5408042,207.546434 92.7010042,204.386234 96.5955042,204.386234 C100.493904,204.386234 103.654104,207.546434 103.654104,211.440934" id="Path"></path>
                <path d="M119.434104,167.370934 C119.434104,171.269334 116.277904,174.429534 112.379404,174.429534 C108.481004,174.429534 105.324704,171.269334 105.324704,167.370934 C105.324704,163.476434 108.480904,160.316234 112.379404,160.316234 C116.277804,160.316234 119.434104,163.476434 119.434104,167.370934" id="Path"></path>
                <path d="M106.154104,116.201025 C110.052504,116.177496 113.197104,112.993934 113.154104,109.087634 C113.111135,105.165734 109.947104,102.060334 106.025204,102.083603 C102.126804,102.126703 99.0252042,105.271234 99.0252042,109.197034 C99.0642662,113.095434 102.251804,116.220434 106.154104,116.201025 Z" id="Path"></path>
                <path d="M453.304104,365.700934 C452.050204,354.153934 446.874404,345.149934 438.331104,339.649934 C426.964104,332.329634 415.507104,327.301934 404.417104,322.430934 C391.593104,316.790334 379.358104,311.352934 368.089104,302.825934 C368.132073,302.712654 368.206294,302.618904 368.241444,302.505624 C369.057854,300.157924 368.741444,297.575924 367.397694,295.493924 L343.792694,259.016924 L312.046694,177.750924 C311.945134,177.504834 311.839664,177.258734 311.714664,177.024364 L299.866664,153.774364 L284.307664,118.270364 C284.151414,117.918804 283.960004,117.563334 283.752974,117.227364 L270.064974,95.3363639 C266.639174,89.7035639 262.428274,81.9923639 261.889174,80.0203639 C261.064954,76.0711639 256.154774,67.9583639 247.291174,55.9073639 C246.939614,55.4190839 246.529454,54.9815839 246.076374,54.5909639 L231.974374,42.3839639 C231.739994,42.1769339 231.493904,41.9933439 231.236094,41.8058439 L203.736094,23.1148439 L184.740094,9.23184394 C183.716694,8.48184394 182.529194,7.98964394 181.279194,7.78654394 L133.931194,0.110743941 C132.411694,-0.147066059 130.868694,0.048243941 129.462394,0.665433941 L102.071394,12.4464339 C101.645614,12.6261239 101.243274,12.8448739 100.856594,13.0948739 L80.4155942,26.4188739 L48.9585942,45.9618739 C47.9116942,46.6103139 47.0327942,47.4891739 46.3765942,48.5360739 L16.0015942,97.3910739 C15.8180042,97.6918539 15.6500342,98.0004539 15.5015942,98.3246639 L0.704594239,131.328664 C-0.189935761,133.328664 -0.236815761,135.605964 0.587404239,137.641164 L17.9544042,180.684164 L22.7591042,202.383164 C23.0403542,203.644864 23.6145742,204.820664 24.4388042,205.805064 L45.6968042,231.262064 L55.6382042,246.371064 C56.1694542,247.175754 56.8374042,247.882764 57.6148042,248.449164 C68.9818042,256.749964 76.7668042,261.351164 80.6458042,262.101164 C82.8138042,262.667574 91.1458042,266.995664 97.4078042,270.601164 L119.548804,284.019164 C119.888644,284.226194 120.244114,284.405884 120.611304,284.562134 L155.943304,299.339134 L179.783304,311.042134 C180.025494,311.159324 180.275494,311.264794 180.529394,311.362444 L262.310394,341.815444 L299.146394,364.846444 C300.439394,365.658944 301.923694,366.073044 303.419794,366.073044 C304.158074,366.073044 304.896394,365.971484 305.618994,365.764454 C305.915874,365.678516 306.185404,365.541794 306.458834,365.424614 C314.540834,375.885614 319.669834,387.170614 324.989834,398.986614 C329.712534,409.482614 334.587534,420.334614 341.805834,431.154614 C348.594934,441.334614 359.340834,447.416614 372.891834,448.744614 C374.704334,448.916494 376.559834,449.006334 378.446534,449.006334 C397.122534,449.006334 418.587534,440.506334 431.376534,427.647334 C443.841534,415.088334 455.634534,387.202334 453.302534,365.698334 L453.304104,365.700934 Z M270.154104,327.720934 C269.689264,327.427964 269.200984,327.189684 268.693204,326.998274 L186.505204,296.400274 L162.595204,284.673274 L127.376204,269.927274 L105.591204,256.728274 C99.5326042,253.239974 88.6462042,247.247774 84.1772042,246.396274 C82.0092042,245.657994 74.4741042,240.740074 68.2752042,236.283274 L58.8885042,222.021274 C58.7205342,221.763464 58.5408442,221.517364 58.3416242,221.282994 L38.0406242,196.977994 L33.5172242,176.536994 C33.4234742,176.099494 33.2867542,175.681524 33.1265942,175.259694 L16.7985942,134.782694 L29.9825942,105.391694 L59.0525942,58.6496939 L89.0645942,39.9976939 L109.072594,26.9546939 L133.674594,16.3686939 L176.799594,23.3647939 L194.455594,36.2667939 L221.787594,54.8487939 L234.846594,66.1537939 C239.795794,72.9428939 245.408594,81.3767939 246.131594,83.2947939 C247.143294,88.1619939 252.947994,98.1697939 256.369594,103.786794 L269.791594,125.263794 L285.311594,160.642794 L297.182594,183.962794 L329.080594,265.626794 C329.275904,266.130704 329.522004,266.611174 329.818874,267.064294 L348.263874,295.572294 L340.256074,298.310594 C338.314674,298.978564 336.701374,300.353594 335.744374,302.162194 L325.150374,322.205194 L309.248374,331.158294 C307.838174,331.955174 306.693674,333.150494 305.978874,334.607494 L300.127274,346.447494 L270.154104,327.720934 Z M419.954104,416.282934 C410.657204,425.634534 391.091104,434.302934 374.450104,432.708934 C365.747004,431.865184 359.274104,428.330034 355.196104,422.212934 C348.723404,412.509834 344.114104,402.271934 339.673104,392.376934 C333.489504,378.649934 327.107104,364.501934 315.728104,351.278934 L319.329704,343.993734 L335.126704,335.099234 C336.470504,334.337514 337.579804,333.212534 338.294704,331.845334 L348.501704,312.533334 L352.740004,311.084134 C367.142004,323.564134 382.767004,330.510134 397.939004,337.170134 C408.443004,341.783434 419.310004,346.560734 429.607004,353.186134 C434.048404,356.049434 436.556204,360.705634 437.290604,367.432134 C439.169504,384.725134 428.278904,407.912134 419.954604,416.284134 L419.954104,416.282934 Z" id="Shape"></path>
            </g>
        </g>
    </g>
</svg>