<svg width="1102" height="973" viewBox="0 0 1102 973" fill="none" xmlns="http://www.w3.org/2000/svg">
<path d="M823.455 250.624C869.359 335.447 905.288 404.29 911.268 513.057C917.248 621.824 869.861 759.536 917.75 846.344C973.151 856.293 987.221 875.213 986.794 918.076C986.744 922.398 984.031 926.267 979.985 927.825C934.509 945.438 901.695 943.453 889.308 940.136C876.922 936.82 772.074 874.785 772.074 874.785L737.652 492.605L823.455 250.624Z" fill="black"/>
<path d="M656.322 734.587C661.322 757.526 689.738 883.756 709.713 953.126C726.873 971.719 821.118 983.025 883.429 956.971C888.529 954.835 891.645 949.584 890.891 944.106C883.881 892.147 852.399 886.494 815.993 881.293C802.526 858.354 785.566 747.577 785.566 747.577L656.347 734.612L656.322 734.587Z" fill="black"/>
<path d="M602.428 812.425C602.428 812.425 514.113 870.791 477.204 873.781C509.138 873.781 582.479 857.324 606.926 858.303C629.111 859.208 689.11 887.65 697.402 942.498C698.909 952.423 692.527 961.895 682.729 964.081C608.534 980.689 513.736 968 487.179 960.086C443.762 953.101 406.351 960.086 376.427 959.081C346.503 958.076 331.025 947.548 331.025 915.891C331.025 884.233 372.934 875.263 372.934 875.263" fill="black"/>
<path d="M225.147 718.105C232.007 458.737 701.12 471.048 676.849 249.192C678.759 245.197 906.067 153.767 906.067 153.767C907.248 156.254 908.328 158.817 909.66 161.229C925.438 190.424 940.262 220.072 946.393 253.087C946.393 253.087 958.352 629.84 793.405 763.154C676.146 857.927 500.118 882.349 500.118 882.349L447.305 911.092L346.93 899.584C262.232 870.314 224.243 842.6 225.122 718.08L225.147 718.105Z" fill="black"/>
<path d="M630.895 279.593C627.78 456.475 682.678 516.474 713.03 546.047C716.17 549.087 721.396 546.524 720.844 542.177C720.04 535.795 719.688 528.936 719.537 523.911C719.487 521.826 722 520.771 723.482 522.203C841.344 636.171 911.544 647.301 936.896 646.07C942.8 645.794 944.182 642.125 939.861 638.105C925.062 624.312 920.79 609.287 918.755 586.976C918.529 584.589 921.72 583.433 923.001 585.468C932.373 600.166 951.318 610.694 962.498 613.558C965.614 614.362 968.93 613.382 971.041 610.97C1017.32 558.584 1023.65 528.861 1027.1 491.801C1027.1 491.65 1027.25 491.5 1027.4 491.449C1034.28 489.892 1040.36 494.59 1045.26 500.092C1047.8 502.957 1052.52 501.55 1053.25 497.806C1058.33 472.078 1052.6 433.611 1032.2 393.587C1032.15 393.486 1032.15 393.36 1032.2 393.26C1087.5 302.608 987.975 250.85 980.513 247.131C980.312 247.031 980.337 246.78 980.513 246.679C998.779 236.604 1007.67 222.484 1007.42 211.68C1007.35 208.866 1004.83 206.805 1002.05 207.233C992.825 208.665 977.523 209.544 969.257 203.489C969.031 203.313 969.081 202.961 969.358 202.836C989.835 194.595 991.794 174.494 986.543 163.992C984.86 160.625 981.392 160.223 978.905 163.062C970.136 173.112 956.142 181.63 949.936 171.253C942.926 159.495 934.785 151.706 925.464 146.957C925.212 146.831 925.162 146.505 925.363 146.304C968.805 99.1186 911.042 33.5166 877.625 2.48692C872.324 -2.43763 863.731 0.351275 862.249 7.41147C853.053 50.8279 819.511 117.209 816.018 124.093C815.842 124.445 815.465 124.621 815.063 124.545C812.375 123.993 802.677 118.289 797.25 109.922C795.214 106.807 790.491 107.36 789.084 110.802C786.069 118.214 785.064 126.53 785.139 127.837C785.139 127.962 784.989 128.038 784.888 127.962C777.526 123.339 772.124 116.003 768.18 104.772C766.647 100.425 760.517 100.676 759.285 105.098C755.994 116.958 754.888 130.173 755.617 137.334C755.843 139.57 754.512 141.656 752.376 142.334C742.024 145.726 718.608 153.012 705.266 163.565C703.558 164.922 701.246 165.098 699.336 164.067C674.789 150.651 615.72 107.938 591.172 89.973C585.821 86.0535 578.233 88.8424 576.7 95.2745C566.298 138.691 541.173 272.885 627.026 275.448C629.212 275.523 630.92 277.357 630.87 279.543L630.895 279.593Z" fill="black"/>
<path d="M903.982 272.81C917.886 272.81 929.157 261.539 929.157 247.634C929.157 233.73 917.886 222.459 903.982 222.459C890.078 222.459 878.806 233.73 878.806 247.634C878.806 261.539 890.078 272.81 903.982 272.81Z" fill="white"/>
<path d="M781.697 337.055C795.601 337.055 806.872 325.784 806.872 311.88C806.872 297.976 795.601 286.704 781.697 286.704C767.793 286.704 756.521 297.976 756.521 311.88C756.521 325.784 767.793 337.055 781.697 337.055Z" fill="white"/>
<path d="M1077.77 240.649C1077.77 240.649 1038.07 273.362 1014.13 288.186" stroke="black" stroke-width="7.13882" stroke-linecap="round"/>
<path d="M1097.77 275.272C1097.77 275.272 1053.48 301.403 1027.52 312.332" stroke="black" stroke-width="7.13882" stroke-linecap="round"/>
<path d="M818.254 380.748C818.254 380.748 769.838 398.11 742.3 403.964" stroke="white" stroke-width="7.13882" stroke-linecap="round"/>
<path d="M827.324 405.999C827.324 405.999 783.883 433.511 758.28 445.245" stroke="white" stroke-width="7.13882" stroke-linecap="round"/>
<path d="M945.402 331.002C949.311 338.957 944.141 361.02 928.162 368.707C912.183 376.394 891.466 366.816 887.557 358.861C880.477 344.468 893.43 338.225 909.391 330.52C925.37 322.833 938.304 316.59 945.384 330.984L945.402 331.002Z" fill="white"/>
<path d="M350.698 779.134C258.765 786.018 178.641 717.1 171.756 625.166C171.756 624.99 171.756 624.814 171.731 624.613C171.53 621.95 171.404 619.262 171.329 616.624C171.304 615.543 171.329 614.488 171.329 613.408C171.329 611.649 171.279 609.915 171.329 608.182C171.354 606.925 171.455 605.669 171.53 604.413C171.605 602.88 171.656 601.322 171.756 599.815C171.857 598.458 172.033 597.126 172.158 595.795C172.309 594.388 172.409 592.956 172.585 591.549C172.761 590.142 173.013 588.735 173.214 587.328C173.415 586.021 173.59 584.715 173.817 583.408C174.068 581.926 174.394 580.468 174.696 579.011C174.947 577.805 175.173 576.599 175.425 575.418C175.776 573.86 176.203 572.353 176.58 570.82C176.857 569.74 177.108 568.634 177.409 567.554C177.862 565.946 178.364 564.363 178.867 562.78C179.168 561.8 179.445 560.82 179.771 559.841C180.324 558.182 180.927 556.549 181.53 554.941C181.857 554.062 182.158 553.157 182.51 552.278C183.163 550.569 183.892 548.911 184.62 547.228C184.947 546.449 185.248 545.67 185.6 544.891C186.379 543.132 187.208 541.424 188.063 539.715C188.389 539.037 188.691 538.358 189.042 537.68C189.947 535.896 190.902 534.137 191.856 532.379C192.183 531.801 192.459 531.223 192.786 530.645C193.816 528.836 194.897 527.052 195.977 525.268C196.278 524.791 196.555 524.313 196.856 523.836C198.012 522.002 199.218 520.193 200.449 518.409C200.701 518.032 200.952 517.63 201.228 517.253C202.535 515.394 203.866 513.585 205.248 511.776C205.474 511.474 205.675 511.173 205.901 510.871C207.334 509.012 208.816 507.178 210.323 505.394C210.499 505.168 210.675 504.942 210.876 504.741C212.459 502.882 214.067 501.073 215.725 499.289C215.876 499.138 216.002 498.987 216.127 498.836C217.836 497.002 219.57 495.218 221.379 493.485C221.479 493.384 221.554 493.284 221.655 493.208C223.489 491.424 225.374 489.666 227.283 487.957C227.333 487.907 227.384 487.857 227.434 487.832C229.394 486.098 231.404 484.389 233.464 482.731C258.237 462.757 288.94 449.666 322.885 446.551C323.814 446.475 324.744 446.35 325.674 446.274H326.05C333.437 445.697 334.593 435.244 327.483 433.159C306.478 427.003 284.016 424.466 260.901 426.199C255.398 426.601 249.971 427.305 244.619 428.184C244.544 428.184 244.494 428.184 244.418 428.184C242.233 428.536 238.866 429.114 234.594 430.094C194.243 438.938 159.143 460.596 133.365 490.369C131.38 492.656 127.687 490.419 128.867 487.605C133.114 477.354 137.963 467.581 144.244 458.083C147.912 452.556 141.958 445.722 135.928 448.46C48.8686 487.932 -8.21592 579.363 0.979922 680.517C12.6632 809.133 125.501 902.448 254.041 890.062C346.326 881.167 421.175 818.957 450.295 736.371C423.737 760.466 389.266 776.269 350.723 779.159L350.698 779.134Z" fill="black"/>
<path d="M818.304 880.615C818.731 881.444 819.56 881.971 820.465 882.097C855.188 887.072 885.137 906.217 893.278 953.101C893.278 953.101 904.132 950.538 904.685 950.262C895.79 890.388 863.68 878.052 823.204 867.022C822.299 866.771 821.47 866.343 821.043 865.539C810.892 846.168 800.742 779.435 795.616 748.657C794.862 743.707 787.099 743.984 788.028 749.938C789.335 757.953 805.465 856.168 818.279 880.59L818.304 880.615Z" fill="white"/>
</svg>
