<?xml version="1.0" standalone="no"?>
<!DOCTYPE svg PUBLIC "-//W3C//DTD SVG 20010904//EN"
 "http://www.w3.org/TR/2001/REC-SVG-20010904/DTD/svg10.dtd">
<svg version="1.0" xmlns="http://www.w3.org/2000/svg"
 width="1280.000000pt" height="1280.000000pt" viewBox="0 0 1280.000000 1280.000000"
 preserveAspectRatio="xMidYMid meet">
<metadata>
Created by potrace 1.14, written by Peter Selinger 2001-2017
</metadata>
<g transform="translate(0.000000,1280.000000) scale(0.100000,-0.100000)"
fill="#000000" stroke="none">
<path d="M6088 12795 c-2 -2 -52 -6 -113 -9 -60 -4 -128 -8 -150 -11 -22 -3
-65 -7 -95 -10 -30 -3 -69 -7 -85 -9 -17 -3 -50 -7 -75 -10 -74 -9 -284 -42
-335 -52 -11 -3 -34 -7 -51 -9 -16 -2 -59 -11 -95 -19 -35 -8 -79 -18 -98 -21
-19 -3 -37 -8 -41 -10 -4 -2 -20 -7 -37 -9 -16 -3 -74 -17 -129 -32 -54 -14
-103 -27 -109 -28 -92 -22 -550 -176 -640 -216 -11 -5 -54 -23 -95 -40 -41
-17 -83 -35 -92 -40 -10 -6 -25 -10 -33 -10 -8 0 -15 -4 -15 -10 0 -5 -5 -10
-11 -10 -14 0 -77 -29 -239 -109 -242 -121 -453 -243 -674 -390 -87 -58 -166
-110 -175 -116 -9 -5 -18 -12 -21 -15 -3 -3 -50 -38 -105 -79 -376 -279 -742
-623 -1055 -991 -25 -29 -52 -60 -60 -70 -8 -9 -26 -32 -40 -50 -14 -18 -30
-38 -35 -44 -77 -83 -485 -673 -485 -701 0 -3 -17 -33 -38 -67 -212 -347 -444
-879 -583 -1338 -45 -148 -128 -467 -142 -545 -3 -17 -15 -77 -26 -135 -11
-58 -22 -118 -25 -135 -2 -16 -9 -61 -15 -98 -6 -37 -14 -87 -16 -110 -3 -23
-7 -58 -10 -77 -2 -19 -7 -66 -10 -105 -4 -38 -8 -83 -10 -100 -27 -212 -27
-912 0 -1125 2 -19 6 -64 9 -100 5 -64 12 -127 21 -185 3 -16 7 -48 10 -70 14
-97 46 -282 59 -345 3 -14 11 -50 17 -80 15 -77 98 -411 105 -422 3 -4 8 -20
10 -35 8 -43 128 -399 178 -524 143 -365 323 -725 524 -1049 62 -100 193 -298
219 -330 6 -8 46 -62 89 -120 69 -94 239 -306 309 -385 266 -302 519 -544 845
-808 81 -66 322 -240 430 -311 74 -49 147 -97 162 -107 15 -11 32 -19 38 -19
5 0 10 -4 10 -10 0 -5 5 -10 11 -10 6 0 30 -13 54 -30 24 -16 46 -30 48 -30 2
0 44 -23 93 -51 83 -48 375 -197 454 -232 19 -9 75 -34 123 -56 49 -23 93 -41
98 -41 5 0 17 -4 27 -10 48 -27 510 -193 571 -205 10 -2 39 -10 64 -19 115
-39 550 -140 697 -162 14 -2 41 -6 60 -9 39 -6 146 -23 200 -30 47 -7 112 -14
185 -21 33 -3 74 -7 90 -9 179 -26 914 -26 1130 0 17 2 59 6 95 9 93 9 151 15
185 21 17 3 50 7 75 11 25 3 97 15 160 26 63 11 124 22 135 24 11 1 31 5 45 8
14 3 41 9 60 12 55 10 428 103 500 126 194 59 511 171 605 213 17 8 57 25 90
39 144 59 497 232 575 281 22 14 42 25 45 25 12 0 314 186 435 268 366 248
643 477 964 797 72 72 163 166 201 209 39 44 75 84 80 90 61 64 248 297 351
436 99 133 364 538 364 556 0 2 10 21 23 42 134 214 347 674 474 1022 93 258
222 727 257 940 8 47 15 89 21 120 11 54 13 69 20 120 4 29 8 61 10 70 6 33
23 171 30 245 3 28 7 68 10 90 27 229 28 817 0 1145 -5 63 -16 168 -20 192 -2
13 -7 44 -10 70 -13 117 -29 220 -59 378 -27 143 -120 532 -132 552 -3 4 -8
20 -10 35 -8 43 -128 399 -178 524 -143 365 -323 725 -524 1049 -62 100 -193
298 -219 330 -6 8 -46 62 -89 120 -69 94 -200 259 -250 316 -11 12 -41 48 -69
79 -108 126 -341 366 -471 485 -92 84 -149 135 -199 177 -28 23 -60 50 -71 60
-12 10 -37 30 -55 44 -19 15 -68 53 -109 86 -157 123 -479 345 -542 374 -16 7
-28 15 -28 19 0 4 -8 10 -17 14 -10 3 -31 14 -48 25 -75 46 -252 144 -380 209
-121 61 -326 159 -340 162 -3 0 -29 12 -60 25 -147 65 -441 171 -665 239 -271
83 -679 172 -920 202 -30 3 -62 8 -70 9 -8 2 -44 6 -80 10 -36 4 -73 9 -83 11
-10 1 -60 6 -112 9 -51 4 -106 9 -122 11 -32 5 -750 14 -755 9z"/>
</g>
</svg>
