<?xml version="1.0" encoding="UTF-8"?>
<svg width="226px" height="94px" viewBox="0 0 226 94" version="1.1" xmlns="http://www.w3.org/2000/svg" xmlns:xlink="http://www.w3.org/1999/xlink">
    <title>eating-state</title>
    <g id="eating-state" stroke="none" stroke-width="1" fill="none" fill-rule="evenodd">
        <polygon id="Rectangle" fill="#000000" points="33 0 226 0 226 94 139.773438 85.1835937 33 54.390625"></polygon>
        <g transform="translate(4.856445, 8.000000)">
            <g id="eyes" transform="translate(36.643555, 0.000000)" fill="#FFFFFF">
                <circle id="Oval" cx="11.5" cy="11.5" r="11.5"></circle>
                <circle id="Oval" cx="128" cy="26" r="15"></circle>
            </g>
            <g id="nose" transform="translate(83.119606, 22.042897)" fill="#FFFFFF">
                <ellipse id="Oval" transform="translate(14.523948, 8.957103) rotate(4.000000) translate(-14.523948, -8.957103) " cx="14.5239485" cy="8.95710303" rx="14" ry="8"></ellipse>
            </g>
            <g id="outside-whiskers" transform="translate(0.000000, 22.503677)" stroke="#000000" stroke-linecap="round" stroke-width="8">
                <path d="M0,0.0132231438 C13.8707547,-0.0837037602 24.5738729,0.352231917 32.1093547,1.32103018" id="Path-2"></path>
                <path d="M0,18.0132231 C9.85024688,17.7041049 19.7223172,15.1721044 29.6162109,10.4172216" id="Path-2"></path>
            </g>
            <g id="inside-whiskers" transform="translate(188.499023, 52.645020)" stroke="#FFFFFF" stroke-linecap="round" stroke-width="8">
                <line x1="4.37304688" y1="0" x2="26.578125" y2="3.61230469" id="Path-3"></line>
                <path d="M0,13.8696289 C12.2226562,19.3022461 20.2477214,22.8585612 24.0751953,24.5385742" id="Path-4"></path>
            </g>
        </g>
        <path d="M117.023948,63.7753906 C126.588712,57.7716471 133.328288,55.2470703 137.242676,56.2016602 C143.114258,57.6335449 151.693604,65.0991211 149.131592,66.6428223 C146.56958,68.1865234 144.109863,69.9023438 137.242676,68.3867188 C130.375488,66.8710938 131.172363,65.0908203 125.71167,66.2509766" id="Path-7" fill="#FFFFFF"></path>
        <path d="M79.8232422,63.3671875 C106.135091,63.9417318 122.058594,65.1622721 127.59375,67.0288086" id="Path-6" stroke="#FFFFFF" stroke-width="3" stroke-linecap="round"></path>
    </g>
</svg>