<svg width="612" height="990" viewBox="0 0 612 990" fill="none" xmlns="http://www.w3.org/2000/svg">
<path d="M58.2329 258.023L61.0735 178.959L352.711 229.617L425.146 319.096L416.624 366.913L352.711 398.634C283.747 377.645 144.304 335.004 138.244 332.352C132.184 329.701 82.3782 281.695 58.2329 258.023Z" fill="white"/>
<path fill-rule="evenodd" clip-rule="evenodd" d="M40.9954 807.108C46.7338 872.455 91.5581 920.381 182.006 957.949L182.001 957.967C244.904 984.065 356.453 996.085 441.518 985.874C504.031 978.509 546.623 960.031 583.321 941.147C615.043 924.802 644.984 899.545 663.415 873.568C686.565 840.856 699.872 791.035 707.85 756.414C720.33 701.794 703.284 575.721 682.742 534.726C650.927 470.97 626.898 436.512 568.661 400.811C559.517 395.218 546.689 387.929 533.026 380.165L533.025 380.165L533.019 380.161L531.341 379.208C510.976 367.661 489.931 355.718 475.974 346.644C472.476 344.383 468.773 342.228 465.034 340.065C452.823 332.921 440.194 325.529 431.466 313.6C411.164 285.975 395.843 240.592 397.356 212.424C398.098 199.145 399.412 184.277 400.818 168.497C405.058 120.762 410.323 61.3653 398.126 38.0369C395.9 33.7332 393.37 32.9488 391.441 32.7156C383.392 31.7821 362.658 39.0257 312.822 97.525L312.731 97.4331C310.597 100.111 306.83 100.917 303.855 99.0514C297.615 96.7973 182.447 72.4443 168.95 71.5892C166.441 71.4197 164.222 69.9002 163.155 67.6318C160.211 61.3226 157.626 53.3046 154.89 44.8192L154.89 44.8189L154.89 44.8185L154.889 44.8181L154.703 44.24L154.683 44.1768L154.683 44.1767C149.352 27.56 142.72 6.89129 133.023 0.821501C131.708 -0.012388 129.913 -0.605992 126.578 1.06884C95.5462 16.6452 49.0121 151.798 45.3019 197.682C43.6624 218.001 43.2314 235.477 43.8038 250.635C42.5373 250.583 41.2455 250.519 39.9336 250.454L39.9331 250.454L39.9324 250.454L39.9315 250.454L39.9292 250.453C38.944 250.405 37.9475 250.355 36.9418 250.31C26.9845 249.808 15.6774 249.257 6.39871 249.921C2.61099 250.19 -0.251089 253.469 0.0174547 257.257C0.307273 261.051 3.6145 263.765 7.36695 263.631C15.5804 263.029 25.5327 263.512 35.2855 263.986L36.2638 264.034C39.1399 264.182 41.9666 264.316 44.638 264.422C44.9772 268.224 45.38 271.871 45.8393 275.355C34.1453 278.973 20.6327 282.796 7.35421 282.796H6.87368C3.09988 282.796 0.0329389 285.849 0.0117379 289.616C-0.00255399 293.417 3.05031 296.506 6.84527 296.534H7.35408C21.8342 296.534 35.9105 292.781 48.1784 289.008C56.6305 329.302 75.5972 345.704 95.2784 362.693L96.9957 364.184C98.8914 365.806 100.88 367.414 102.852 369.009L102.853 369.011L103.045 369.166L103.062 369.179C114.661 378.589 127.849 389.286 126.486 406.931C120.001 487.01 141.617 529.995 164.501 575.503L164.533 575.567C185.544 617.324 207.274 660.517 207.599 733.737C207.599 734.33 207.521 734.896 207.38 735.461C204.315 747.455 194.698 756.299 184.499 765.679L184.483 765.693L184.432 765.741C174.146 775.224 163.533 785.007 160.401 797.953C158.648 805.246 160.337 811.395 165.552 816.744C175.602 827.062 196.93 831.881 215.473 828.221C218.017 817.945 226.603 808.122 235.74 797.826C243.896 788.632 252.326 779.12 254.213 770.972C255.068 767.276 258.771 764.951 262.467 765.827C266.17 766.696 268.453 770.392 267.605 774.081C264.927 785.622 255.332 796.45 246.044 806.932L246.029 806.949C237.302 816.778 228.277 826.954 228.39 834.368C228.39 835.774 228.659 837.823 231.062 840.459C240.666 851.038 257.916 856.748 277.075 855.603C299.645 854.332 319.701 844.374 330.74 828.975L331.376 828.099C337.397 819.781 349.92 802.446 353.785 783.253C354.527 779.522 358.188 777.161 361.877 777.875C365.587 778.617 368.011 782.256 367.255 785.981C363.849 802.856 355.079 817.858 348.181 828.084C348.233 828.093 348.284 828.098 348.336 828.101C348.392 828.105 348.449 828.106 348.505 828.107L348.509 828.107C348.655 828.111 348.802 828.114 348.952 828.155C392.122 841.158 462.118 839.956 502.181 830.911C500.52 824.374 500.789 816.954 503.305 808.905C509.141 790.318 524.568 772.107 537.79 763.5C537.124 762.021 536.425 760.492 535.711 758.931L535.63 758.753C535.446 758.351 535.261 757.948 535.076 757.542L535.076 757.541C530.143 746.779 525.049 735.663 522.808 726.844C521.876 723.155 524.109 719.409 527.776 718.491C531.43 717.565 535.211 719.763 536.129 723.452C538.059 731.07 543.111 742.109 547.556 751.818C549.486 756.016 551.351 760.086 552.92 763.775C554.404 767.245 552.821 771.273 549.337 772.772C538.461 777.513 521.727 796.113 516.448 813.01C514.017 820.761 514.214 827.044 517.069 831.68C518.78 834.407 521.578 836.732 525.359 838.513C525.995 838.824 526.574 839.213 527.076 839.686C530.482 842.831 537.047 843.446 542.828 843.969C563.846 845.658 586.523 843.29 592.833 838.852C593.78 838.174 594.819 837.849 595.886 837.715C596.036 837.562 596.185 837.412 596.333 837.262C596.487 837.107 596.641 836.953 596.794 836.799L596.794 836.799L596.807 836.786L596.812 836.781C597.268 836.323 597.723 835.867 598.183 835.39C620.591 811.723 623.969 798.111 627.926 765.187C628.386 761.421 631.735 758.855 635.573 759.195C639.339 759.654 642.018 763.067 641.572 766.841C637.397 801.61 633.198 818.415 608.126 844.859C606.317 846.753 604.557 848.533 602.776 850.314C539.609 912.778 451.388 924.311 404.408 925.64C241.927 929.971 146.384 900.256 120.342 837.361C116.314 827.652 114.561 815.264 112.71 802.12C107.954 768.311 103.036 746.277 78.7257 747.684L78.7147 747.684C69.6076 748.235 59.2959 748.859 53.0726 754.517C40.2675 765.909 39.4407 789.398 40.9954 807.108ZM394.153 348.312C397.856 349.189 400.124 352.892 399.262 356.566L399.262 356.566C398.521 359.725 395.694 361.859 392.577 361.859C392.061 361.859 391.524 361.803 390.994 361.668C381.884 359.507 373.256 355.087 364.921 350.818L364.748 350.729L364.717 350.713L364.717 350.713C358.651 347.595 352.944 344.662 347.335 342.694C343.759 341.422 341.865 337.507 343.123 333.938C344.367 330.356 348.282 328.469 351.872 329.712C358.396 332.007 364.808 335.297 371.014 338.481L371.016 338.482L371.03 338.49C379.051 342.624 386.619 346.524 394.153 348.312ZM404.852 318.582C405.488 314.837 402.972 311.296 399.247 310.653C392.993 309.577 386.753 308.683 380.47 307.782L380.386 307.77C373.213 306.774 366.005 305.735 358.713 304.42C354.981 303.791 351.398 306.222 350.727 309.961C350.049 313.706 352.522 317.282 356.267 317.946C363.656 319.281 370.949 320.326 378.22 321.368L378.458 321.402C384.649 322.264 390.79 323.147 396.923 324.186C397.319 324.236 397.708 324.278 398.097 324.278C401.369 324.278 404.287 321.932 404.853 318.582L404.852 318.582ZM306.283 236.501C320.466 236.501 332.021 248.055 332.021 262.344C332.021 276.555 320.466 288.088 306.283 288.088C291.965 288.088 280.432 276.556 280.432 262.344C280.432 248.147 291.965 236.501 306.283 236.501ZM209.786 272.154C208.96 259.603 158.115 253.554 160.588 272.154C163.061 291.58 212.903 292.309 209.786 272.154ZM89.3884 207.641C102.964 207.641 114.037 218.651 114.037 232.212C114.037 245.851 102.964 256.861 89.3884 256.861C75.8411 256.861 64.7321 245.851 64.7321 232.212C64.7321 218.651 75.8413 207.641 89.3884 207.641Z" fill="black"/>
</svg>
