<svg width="226" height="94" viewBox="0 0 226 94" fill="none" xmlns="http://www.w3.org/2000/svg">
<path fill-rule="evenodd" clip-rule="evenodd" d="M33 0H226V94L139.773 85.1836L33 54.3906V0Z" fill="black"/>
<path d="M101.942 46.9805C109.655 47.5199 116.158 44.3841 116.466 39.9766C116.774 35.5691 110.771 31.5589 103.058 31.0195C95.345 30.4801 88.8424 33.6159 88.5342 38.0234C88.226 42.4309 94.2289 46.4412 101.942 46.9805Z" fill="white"/>
<path d="M4.85645 30.5169C18.7272 30.42 29.4303 30.8559 36.9658 31.8247" stroke="black" stroke-width="8" stroke-linecap="round"/>
<path d="M4.85645 48.5169C14.7067 48.2078 24.5788 45.6758 34.4727 40.9209" stroke="black" stroke-width="8" stroke-linecap="round"/>
<path d="M197.729 60.645L219.934 64.2573" stroke="white" stroke-width="8" stroke-linecap="round"/>
<path d="M193.355 74.5146C205.578 79.9473 213.603 83.5036 217.431 85.1836" stroke="white" stroke-width="8" stroke-linecap="round"/>
<path fill-rule="evenodd" clip-rule="evenodd" d="M117.024 63.7754C126.589 57.7716 133.328 55.2471 137.243 56.2017C143.114 57.6335 151.694 65.0991 149.132 66.6428C146.57 68.1865 144.11 69.9023 137.243 68.3867C130.375 66.8711 131.172 65.0908 125.712 66.251" fill="white"/>
<path d="M79.8232 63.3672C106.135 63.9417 122.059 65.1623 127.594 67.0288" stroke="white" stroke-width="3" stroke-linecap="round"/>
<path d="M49 31C56.732 31 63 24.732 63 17C63 9.26801 56.732 3 49 3C41.268 3 35 9.26801 35 17C35 24.732 41.268 31 49 31Z" fill="white"/>
<path d="M169 49C177.284 49 184 42.2843 184 34C184 25.7157 177.284 19 169 19C160.716 19 154 25.7157 154 34C154 42.2843 160.716 49 169 49Z" fill="white"/>
</svg>
