<?xml version="1.0" encoding="UTF-8"?>
<svg width="201px" height="230px" viewBox="0 0 201 230" version="1.1" xmlns="http://www.w3.org/2000/svg" xmlns:xlink="http://www.w3.org/1999/xlink">
    <title>Shilouette</title>
    <g id="Shilouette" stroke="none" stroke-width="1" fill="none" fill-rule="evenodd">
        <path d="M88.4316406,227.927734 C80.2339112,226.782975 39.55749,209.797368 33.14349,204.594368 C32.01849,203.684208 30.88179,202.766268 29.79969,201.840468 L28.85047,201.016248 C17.97147,191.625648 6.8490935,182.828376 2.81547,160.286248 C2.35678427,157.722857 1.9258076,155.207257 1.52254,152.739448 C1.20483333,150.111848 0.98348,148.097515 0.85848,146.696448 C0.634277344,144.424561 0.327636719,141.769349 0.327636719,139.083496 C0.0112267187,130.704596 0.319255,121.036378 1.2255,109.805378 C3.2763,84.442378 28.9985,9.735378 46.1515,1.125378 C47.9953,0.199598 48.9874,0.527718 49.714,0.988658 C55.0812,4.348058 58.7492,15.797658 61.698,24.988658 C63.2488,29.797258 64.7058,34.351958 66.3699,37.918658 C66.95974,39.172558 68.1863,40.012458 69.573,40.106158 C77.0339,40.578818 140.694,54.040158 144.143,55.286158 C145.7875,56.317358 147.8696,55.872098 149.0492,54.391628 L149.099981,54.44241 C176.646981,22.10641 188.107981,18.10241 192.556981,18.61841 C193.623381,18.74732 195.021781,19.18091 196.252281,21.55981 C202.994481,34.45481 200.084281,67.28681 197.740581,93.67281 C196.963241,102.39551 196.236681,110.61381 195.826481,117.95381 C194.990541,133.52381 188.540639,186.46513 178.388672,201.840468 C170.023438,214.509767 149.0492,236.392578 88.4316406,227.927734 Z" id="Shape" fill="#000000" fill-rule="nonzero"></path>
    </g>
</svg>