<?xml version="1.0" encoding="UTF-8"?>
<svg width="394px" height="548px" viewBox="0 0 394 548" version="1.1" xmlns="http://www.w3.org/2000/svg" xmlns:xlink="http://www.w3.org/1999/xlink">
    <title>Shape</title>
    <g id="Page-1" stroke="none" stroke-width="1" fill="none" fill-rule="evenodd">
        <path d="M100.79,530.05 C50.794,509.284 26.017,482.792 22.845,446.671 C21.98562,436.8819 22.44266,423.898 29.5208,417.601 C32.9622,414.4721 38.6653,414.1283 43.7008,413.8237 C57.1388,413.04636 59.8568,425.2257 62.4858,443.9137 C63.5092,451.1793 64.478,458.0267 66.7046,463.3937 C81.0996,498.1597 133.9116,514.5847 223.7246,512.1907 C249.6936,511.45632 298.4586,505.0813 333.3746,470.5537 C334.35898,469.56932 335.3316,468.5849 336.3316,467.5381 C350.1906,452.9211 352.5116,443.6321 354.8196,424.4131 C355.06569,422.3272 353.5852,420.4404 351.5032,420.1865 C349.3821,419.999 347.5305,421.417 347.2766,423.499 C345.0891,441.698 343.2219,449.222 330.8356,462.304 C330.40982,462.74541 329.99185,463.15556 329.5661,463.5892 C328.97626,463.663418 328.402,463.84311 327.8786,464.21811 C324.3903,466.67121 311.8556,467.97981 300.2376,467.04621 C297.0423,466.75715 293.4134,466.4173 291.5306,464.67901 C291.25326,464.41729 290.93294,464.20245 290.58138,464.03057 C288.49158,463.04619 286.94468,461.76107 285.99938,460.25327 C284.42128,457.69077 284.31188,454.21807 285.65563,449.93327 C288.57363,440.59347 297.82363,430.31227 303.83563,427.69127 C305.76143,426.86315 306.63643,424.63657 305.81613,422.71857 C304.94894,420.67947 303.91773,418.42947 302.85133,416.10917 C300.39433,410.74197 297.60133,404.64017 296.53493,400.42917 C296.02712,398.39007 293.93723,397.17527 291.91773,397.68697 C289.89043,398.19478 288.65603,400.26507 289.17163,402.30417 C290.40993,407.17917 293.22633,413.32417 295.95283,419.27317 C296.46845,420.40207 296.97623,421.50757 297.45283,422.56617 C290.14423,427.32397 281.61683,437.39017 278.39083,447.66417 C277.00023,452.11337 276.85173,456.21497 277.76974,459.82817 C255.62474,464.82817 216.93374,465.49227 193.07074,458.30477 C192.92621,458.265708 192.78558,458.289145 192.64496,458.265708 C196.45746,452.613408 201.30516,444.320708 203.18796,434.992708 C203.60593,432.934108 202.26608,430.922408 200.21526,430.512208 C198.17616,430.117678 196.15276,431.422368 195.74256,433.484908 C193.60586,444.093908 186.68396,453.675908 183.35556,458.273908 L183.004,458.758288 C176.9024,467.269988 165.816,472.774288 153.34,473.477288 C142.75,474.110098 133.215,470.953888 127.906,465.106188 C126.5779,463.649188 126.4294,462.516388 126.4294,461.738988 C126.3669,457.641288 131.3552,452.016288 136.1794,446.582988 C141.3161,440.786088 146.6244,434.797988 148.1054,428.414988 C148.57415,426.375888 147.31243,424.332988 145.2656,423.852488 C143.2226,423.368108 141.1758,424.653268 140.7031,426.696288 C139.6601,431.200188 135,436.457988 130.4921,441.540288 C125.4413,447.231688 120.6952,452.661288 119.2891,458.341288 C109.0391,460.364688 97.2501,457.700658 91.6951,451.997488 C88.8123,449.040488 87.8787,445.641988 88.8474,441.610488 C90.5818,434.442488 96.4646,429.028488 102.1594,423.778488 C107.8,418.590988 113.1204,413.700488 114.8154,407.067488 C114.893526,406.754988 114.93649,406.442488 114.93649,406.114368 C114.7568,365.641368 102.74549,341.766368 91.13149,318.684368 C78.47549,293.516368 66.51449,269.754368 70.10049,225.469368 C70.8544,215.711568 63.55749,209.797368 57.14349,204.594368 C56.01849,203.684208 54.88179,202.766268 53.79969,201.840468 L52.85047,201.016248 C41.97147,191.625648 31.48747,182.559248 26.81547,160.286248 C20.03427,162.372148 12.25347,164.446448 4.24947,164.446448 L3.96822,164.446448 C1.87052,164.430823 0.184431741,162.723748 0.19092,160.622248 C0.202639,158.540248 1.89792,156.852748 3.98392,156.852748 L4.24954,156.852748 C11.58934,156.852748 19.05854,154.739448 25.52254,152.739448 C25.26863,150.813648 25.04598,148.798048 24.85848,146.696448 C23.38188,146.637854 21.81938,146.563638 20.22958,146.481608 C14.66708,146.212078 8.94858,145.915198 4.25658,146.258948 C2.18238,146.333167 0.35428,144.833148 0.19408,142.735548 C0.04564,140.641748 1.62768,138.829348 3.72138,138.680848 C8.85028,138.313658 15.10038,138.618348 20.60438,138.895688 C21.90128,138.954282 23.17078,139.024598 24.39738,139.075378 C24.08097,130.696478 24.319255,121.036378 25.2255,109.805378 C27.2763,84.442378 52.9985,9.735378 70.1515,1.125378 C71.9953,0.199598 72.9874,0.527718 73.714,0.988658 C79.0812,4.348058 82.7492,15.797658 85.698,24.988658 C87.2488,29.797258 88.7058,34.351958 90.3699,37.918658 C90.95974,39.172558 92.1863,40.012458 93.573,40.106158 C101.0339,40.578818 164.694,54.040158 168.143,55.286158 C169.7875,56.317358 171.8696,55.872098 173.0492,54.391628 L173.099981,54.44241 C200.646981,22.10641 212.107981,18.10241 216.556981,18.61841 C217.623381,18.74732 219.021781,19.18091 220.252281,21.55981 C226.994481,34.45481 224.084281,67.28681 221.740581,93.67281 C220.963241,102.39551 220.236681,110.61381 219.826481,117.95381 C218.990541,133.52381 227.459281,158.60981 238.681481,173.87981 C243.505681,180.47361 250.486481,184.55981 257.236481,188.50881 C259.302881,189.70411 261.349781,190.89551 263.283381,192.14551 C270.998181,197.16111 282.631381,203.76251 293.888381,210.14551 C301.786781,214.63381 309.255381,218.86821 314.517381,222.08651 C346.708381,241.82051 359.990381,260.86751 377.576381,296.10951 C388.931381,318.76951 398.353381,388.45751 391.455381,418.64951 C387.045181,437.78651 379.689381,465.32551 366.893381,483.40751 C356.705381,497.76651 340.155381,511.72751 322.620381,520.76251 C302.335381,531.20051 278.792381,541.41451 244.237381,545.48551 C197.217381,551.13001 135.557381,544.48551 100.787381,530.05951 L100.79,530.05 Z M220.88,197.63 C221.35656,195.5988 220.10266,193.5519 218.0558,193.0675 C213.8917,192.07922 209.7081,189.923 205.2748,187.6378 C201.8412,185.8761 198.2943,184.0558 194.6848,182.7862 C192.7004,182.0987 190.5364,183.14167 189.8489,185.1221 C189.15359,187.0948 190.20046,189.2588 192.177,189.9619 C195.2825,191.0517 198.4426,192.6767 201.802,194.4033 C206.4387,196.7783 211.2395,199.2471 216.31,200.4502 C216.60297,200.524419 216.89984,200.55567 217.185,200.55567 C218.9077,200.55567 220.4702,199.37597 220.8803,197.62987 L220.88,197.63 Z M223.9698,176.634 C224.32136,174.5637 222.9307,172.6067 220.8721,172.2512 C217.3994,171.65354 213.9346,171.1574 210.4461,170.6574 C206.4813,170.10662 202.4969,169.5324 198.4661,168.8058 C196.4036,168.45814 194.4231,169.80189 194.052,171.8683 C193.677,173.9386 195.04419,175.9152 197.1145,176.2824 C201.2434,177.02849 205.3176,177.6105 209.3805,178.1926 C212.8024,178.66916 216.1969,179.15744 219.5875,179.7317 C219.80625,179.759044 220.02109,179.782482 220.23594,179.782482 C222.04454,179.782482 223.65784,178.485582 223.97034,176.634082 L223.9698,176.634 Z M183.7118,145.548 C183.7118,137.6496 177.3251,131.263 169.4848,131.263 C161.5707,131.263 155.1958,137.7005 155.1958,145.548 C155.1958,153.4035 161.5708,159.778 169.4848,159.778 C177.3246,159.778 183.7118,153.403 183.7118,145.548 Z M116.1458,150.9699 C115.68877,144.0324 87.5838,140.6889 88.9508,150.9699 C90.318,161.7079 117.8688,162.1109 116.1458,150.9699 Z M63.2198,128.8919 C63.2198,121.3958 57.0987,115.3099 49.5948,115.3099 C42.1065,115.3099 35.9658,121.3958 35.9658,128.8919 C35.9658,136.431 42.1064,142.5169 49.5948,142.5169 C57.0987,142.5169 63.2198,136.431 63.2198,128.8919 Z" id="Shape" fill="#000000" fill-rule="nonzero"></path>
    </g>
</svg>