<?xml version="1.0" encoding="UTF-8"?>
<svg width="371px" height="138px" viewBox="0 0 371 138" version="1.1" xmlns="http://www.w3.org/2000/svg" xmlns:xlink="http://www.w3.org/1999/xlink">
    <title>Path</title>
    <g id="Page-1" stroke="none" stroke-width="1" fill="none" fill-rule="evenodd">
        <path d="M78.79,120.05 C28.794,99.284 4.017,72.792 0.845,36.671 C-0.01438,26.8819 0.44266,13.898 7.5208,7.601 C10.9622,4.4721 16.6653,4.1283 21.7008,3.8237 C35.1388,3.04636 37.8568,15.2257 40.4858,33.9137 C41.5092,41.1793 42.478,48.0267 44.7046,53.3937 C59.0996,88.1597 111.9116,104.5847 201.7246,102.1907 C227.6936,101.45632 276.4586,95.0813 311.3746,60.5537 C312.35898,59.56932 313.3316,58.5849 314.3316,57.5381 C328.1906,42.9211 376.353381,-21.54249 369.455381,8.64951 C365.045181,27.78651 357.689381,55.32551 344.893381,73.40751 C334.705381,87.76651 318.155381,101.72751 300.620381,110.76251 C280.335381,121.20051 256.792381,131.41451 222.237381,135.48551 C175.217381,141.13001 113.557381,134.48551 78.787381,120.05951 L78.79,120.05 Z" id="Path" fill="#000000" fill-rule="nonzero"></path>
    </g>
</svg>