<svg width="226" height="94" viewBox="0 0 226 94" fill="none" xmlns="http://www.w3.org/2000/svg">
<path fill-rule="evenodd" clip-rule="evenodd" d="M33 0H226V94L139.773 85.1836L33 54.3906V0Z" fill="black"/>
<path d="M49 30C56.732 30 63 23.732 63 16C63 8.26801 56.732 2 49 2C41.268 2 35 8.26801 35 16C35 23.732 41.268 30 49 30Z" fill="white"/>
<path d="M169 48C177.284 48 184 41.2843 184 33C184 24.7157 177.284 18 169 18C160.716 18 154 24.7157 154 33C154 41.2843 160.716 48 169 48Z" fill="white"/>
<path d="M101.942 46.9805C109.655 47.5199 116.158 44.3841 116.466 39.9766C116.774 35.5691 110.771 31.5589 103.058 31.0195C95.345 30.4801 88.8424 33.6159 88.5342 38.0234C88.226 42.4309 94.2289 46.4412 101.942 46.9805Z" fill="white"/>
<path d="M4.85645 30.5169C18.7272 30.42 29.4303 30.8559 36.9658 31.8247" stroke="black" stroke-width="8" stroke-linecap="round"/>
<path d="M4.85645 48.5169C14.7067 48.2078 24.5788 45.6758 34.4727 40.9209" stroke="black" stroke-width="8" stroke-linecap="round"/>
<path d="M197.729 60.645L219.934 64.2573" stroke="white" stroke-width="8" stroke-linecap="round"/>
<path d="M193.355 74.5146C205.578 79.9473 213.603 83.5036 217.431 85.1836" stroke="white" stroke-width="8" stroke-linecap="round"/>
<path fill-rule="evenodd" clip-rule="evenodd" d="M105.666 65.2886C99.3703 55.9136 94.2403 50.866 90.276 50.146C84.3297 49.0659 73.4555 52.3965 75.1682 54.8488C76.8808 57.3011 78.43 59.869 85.3199 61.2776C92.2099 62.6861 92.206 60.7356 96.7227 64.0166" fill="white"/>
<path d="M80.7949 63.7843C103.935 63.9551 117.954 64.9311 122.852 66.7124" stroke="white" stroke-width="3" stroke-linecap="round"/>
</svg>
