<?xml version="1.0" encoding="UTF-8"?>
<svg width="226px" height="94px" viewBox="0 0 226 94" version="1.1" xmlns="http://www.w3.org/2000/svg" xmlns:xlink="http://www.w3.org/1999/xlink">
    <title>blink-state</title>
    <g id="blink-state" stroke="none" stroke-width="1" fill="none" fill-rule="evenodd">
        <polygon id="Rectangle" fill="#000000" points="33 0 226 0 226 94 139.773438 85.1835937 33 54.390625"></polygon>
        <g id="resting-state" transform="translate(4.856445, 3.000000)">
            <g id="eyes" transform="translate(30.643555, 0.000000)" fill="#FFFFFF">
                <circle id="Oval" cx="14" cy="14" r="14"></circle>
                <circle id="Oval" cx="134" cy="31" r="15"></circle>
            </g>
            <g id="nose" transform="translate(83.119606, 27.042897)" fill="#FFFFFF">
                <ellipse id="Oval" transform="translate(14.523948, 8.957103) rotate(4.000000) translate(-14.523948, -8.957103) " cx="14.5239485" cy="8.95710303" rx="14" ry="8"></ellipse>
            </g>
            <g id="outside-whiskers" transform="translate(0.000000, 27.503677)" stroke="#000000" stroke-linecap="round" stroke-width="8">
                <path d="M0,0.0132231438 C13.8707547,-0.0837037602 24.5738729,0.352231917 32.1093547,1.32103018" id="Path-2"></path>
                <path d="M0,18.0132231 C9.85024688,17.7041049 19.7223172,15.1721044 29.6162109,10.4172216" id="Path-2"></path>
            </g>
            <g id="inside-whiskers" transform="translate(188.499023, 57.645020)" stroke="#FFFFFF" stroke-linecap="round" stroke-width="8">
                <line x1="4.37304688" y1="0" x2="26.578125" y2="3.61230469" id="Path-3"></line>
                <path d="M0,13.8696289 C12.2226562,19.3022461 20.2477214,22.8585612 24.0751953,24.5385742" id="Path-4"></path>
            </g>
        </g>
        <rect id="Rectangle" fill="#000000" x="34" y="3" width="32" height="14"></rect>
        <rect id="Rectangle" fill="#000000" x="153" y="18" width="32" height="14"></rect>
    </g>
</svg>