<?xml version="1.0" encoding="UTF-8"?>
<svg width="342px" height="351px" viewBox="0 0 342 351" version="1.1" xmlns="http://www.w3.org/2000/svg" xmlns:xlink="http://www.w3.org/1999/xlink">
    <title>Torso</title>
    <defs>
        <linearGradient x1="50%" y1="0%" x2="50%" y2="100%" id="linearGradient-1">
            <stop stop-color="#6B9CB3" offset="0%"></stop>
            <stop stop-color="#D8D8D8" offset="100%"></stop>
        </linearGradient>
    </defs>
    <g id="Torso" stroke="none" stroke-width="1" fill="none" fill-rule="evenodd">
        <path d="M302.8196,301.4131 C301.196958,301.062374 301.5852,297.4404 299.5032,297.1865 C297.3821,296.999 295.5305,298.417 295.2766,300.499 C293.0891,318.698 291.2219,326.222 278.8356,339.304 C278.40982,339.74541 277.99185,340.15556 277.5661,340.5892 C276.97626,340.663418 276.402,340.84311 275.8786,341.21811 C272.3903,343.67121 259.8556,344.97981 248.2376,344.04621 C245.0423,343.75715 241.4134,343.4173 239.5306,341.67901 C239.25326,341.41729 238.93294,341.20245 238.58138,341.03057 C236.49158,340.04619 234.94468,338.76107 233.99938,337.25327 C232.42128,334.69077 232.31188,331.21807 233.65563,326.93327 C236.57363,317.59347 245.82363,307.31227 251.83563,304.69127 C253.76143,303.86315 254.63643,301.63657 253.81613,299.71857 C252.94894,297.67947 251.91773,295.42947 250.85133,293.10917 C248.39433,287.74197 245.60133,281.64017 244.53493,277.42917 C244.02712,275.39007 241.93723,274.17527 239.91773,274.68697 C237.89043,275.19478 236.65603,277.26507 237.17163,279.30417 C238.40993,284.17917 241.22633,290.32417 243.95283,296.27317 C244.46845,297.40207 244.97623,298.50757 245.45283,299.56617 C238.14423,304.32397 229.61683,314.39017 226.39083,324.66417 C225.00023,329.11337 224.85173,333.21497 225.76974,336.82817 C203.62474,341.82817 164.93374,342.49227 141.07074,335.30477 C140.92621,335.265708 140.78558,335.289145 140.64496,335.265708 C144.45746,329.613408 149.30516,321.320708 151.18796,311.992708 C151.60593,309.934108 150.26608,307.922408 148.21526,307.512208 C146.17616,307.117678 144.15276,308.422368 143.74256,310.484908 C141.60586,321.093908 134.68396,330.675908 131.35556,335.273908 L131.004,335.758288 C124.9024,344.269988 113.816,349.774288 101.34,350.477288 C90.75,351.110098 81.215,347.953888 75.906,342.106188 C74.5779,340.649188 74.4294,339.516388 74.4294,338.738988 C74.3669,334.641288 79.3552,329.016288 84.1794,323.582988 C89.3161,317.786088 94.6244,311.797988 96.1054,305.414988 C96.57415,303.375888 95.31243,301.332988 93.2656,300.852488 C91.2226,300.368108 89.1758,301.653268 88.7031,303.696288 C87.6601,308.200188 83,313.457988 78.4921,318.540288 C73.4413,324.231688 68.6952,329.661288 67.2891,335.341288 C57.0391,337.364688 45.2501,334.700658 39.6951,328.997488 C36.8123,326.040488 35.8787,322.641988 36.8474,318.610488 C38.5818,311.442488 44.4646,306.028488 50.1594,300.778488 C55.8,295.590988 61.1204,290.700488 62.8154,284.067488 C62.893526,283.754988 62.93649,283.442488 62.93649,283.114368 C62.7568,242.641368 50.74549,218.766368 39.13149,195.684368 C26.47549,170.516368 14.51449,146.754368 18.10049,102.469368 C18.8544,92.711568 11.55749,82.9666719 5.14349,77.7636719 C4.39349,77.1568985 3.33394125,70.6621069 1.96484375,58.2792969 C-5.89272548,51.4967535 80.4317992,18.2025633 131.004,2.68945312 C150.450269,-3.27572352 155.946169,9.91785701 157.337891,11.375 C166.3125,20.7714844 175.459281,35.60981 186.681481,50.87981 C191.505681,57.47361 198.486481,61.55981 205.236481,65.50881 C207.302881,66.70411 209.349781,67.89551 211.283381,69.14551 C218.998181,74.16111 230.631381,80.76251 241.888381,87.14551 C249.786781,91.63381 257.255381,95.86821 262.517381,99.08651 C294.708381,118.82051 307.990381,137.86751 325.576381,173.10951 C336.931381,195.76951 345.877492,253.875488 338.979492,284.067488 C334.613568,303.012362 313.382812,303.696288 302.8196,301.4131 Z" id="Shape" fill="#000000" fill-rule="nonzero"></path>
        <path d="M18.2539062,105.657227 L11.1796875,94.1845703 C58.2955729,97.2399089 91.569987,94.4560547 111.00293,85.8330078 C130.435872,77.2099609 142.781576,70.4570313 148.040039,65.5742188 C117.670898,94.734375 83.3867187,109.314453 45.1875,109.314453 C25.0625,109.314453 16.0846354,108.095378 18.2539062,105.657227 Z" id="Path-9" fill="url(#linearGradient-1)"></path>
        <ellipse id="Oval" fill="#000000" cx="36" cy="100" rx="1" ry="10"></ellipse>
        <circle id="Oval" fill="#6C564B" cx="35.5" cy="124.5" r="20.5"></circle>
        <path d="M24.5972656,127.113281 C25.3003906,127.113281 25.8257812,126.968099 26.1734375,126.677734 C26.5210937,126.38737 26.6949219,125.947917 26.6949219,125.359375 C26.6949219,124.927083 26.5842448,124.56901 26.3628906,124.285156 C26.1415365,124.001302 25.7964844,123.773437 25.3277344,123.601562 L25.3277344,123.601562 L24.8316406,123.414062 C24.4878906,123.286458 24.2619792,123.169922 24.1539062,123.064453 C24.0458333,122.958984 23.9917969,122.825521 23.9917969,122.664062 C23.9917969,122.455729 24.0660156,122.295573 24.2144531,122.183594 C24.3628906,122.071615 24.5764323,122.015625 24.8550781,122.015625 C25.1050781,122.015625 25.3576823,122.061198 25.6128906,122.152344 C25.868099,122.24349 26.119401,122.376302 26.3667969,122.550781 L26.3667969,122.550781 L26.3667969,121.425781 C26.103776,121.30599 25.838151,121.215495 25.5699219,121.154297 C25.3016927,121.093099 25.0334635,121.0625 24.7652344,121.0625 C24.1740885,121.0625 23.7092448,121.213542 23.3707031,121.515625 C23.0321615,121.817708 22.8628906,122.233073 22.8628906,122.761719 C22.8628906,123.173177 22.9657552,123.500651 23.1714844,123.744141 C23.3772135,123.98763 23.7704427,124.220052 24.3511719,124.441406 L24.3511719,124.441406 L24.9175781,124.65625 C25.1154948,124.731771 25.2665365,124.835286 25.3707031,124.966797 C25.4748698,125.098307 25.5269531,125.251302 25.5269531,125.425781 C25.5269531,125.657552 25.4488281,125.837891 25.2925781,125.966797 C25.1363281,126.095703 24.916276,126.160156 24.6324219,126.160156 C24.3511719,126.160156 24.0666667,126.106771 23.7789062,126 C23.4911458,125.893229 23.1936198,125.730469 22.8863281,125.511719 L22.8863281,125.511719 L22.8863281,126.703125 C23.1571615,126.838542 23.4377604,126.940755 23.728125,127.009766 C24.0184896,127.078776 24.3082031,127.113281 24.5972656,127.113281 Z M31.4888281,127 L31.4888281,126.121094 L30.5747656,126.121094 C30.3195573,126.121094 30.1385677,126.049479 30.0317969,125.90625 C29.925026,125.763021 29.8716406,125.519531 29.8716406,125.175781 L29.8716406,125.175781 L29.8716406,120.921875 L27.5669531,120.921875 L27.5669531,121.800781 L28.7271094,121.800781 L28.7271094,125.175781 C28.7271094,125.829427 28.845599,126.296875 29.0825781,126.578125 C29.3195573,126.859375 29.7101823,127 30.2544531,127 L30.2544531,127 L31.4888281,127 Z M34.0171094,127.113281 C34.277526,127.113281 34.5158073,127.061198 34.7319531,126.957031 C34.948099,126.852865 35.1251823,126.704427 35.2632031,126.511719 L35.2632031,126.511719 L35.2632031,127 L36.3999219,127 L36.3999219,124.503906 C36.3999219,123.759115 36.2560417,123.242187 35.9682812,122.953125 C35.6805208,122.664062 35.1811719,122.519531 34.4702344,122.519531 C34.1785677,122.519531 33.902526,122.544271 33.6421094,122.59375 C33.3816927,122.643229 33.1251823,122.720052 32.8725781,122.824219 L32.8725781,122.824219 L32.8725781,123.800781 C33.151224,123.64974 33.4188021,123.539714 33.6753125,123.470703 C33.9318229,123.401693 34.1967969,123.367187 34.4702344,123.367187 C34.730651,123.367187 34.9279167,123.414714 35.0620312,123.509766 C35.1961458,123.604818 35.2632031,123.744792 35.2632031,123.929687 L35.2632031,123.929687 L35.2632031,124.121094 L34.4702344,124.121094 C33.777526,124.121094 33.2658073,124.242839 32.9350781,124.486328 C32.604349,124.729818 32.4389844,125.106771 32.4389844,125.617187 C32.4389844,126.088542 32.5776562,126.455729 32.855,126.71875 C33.1323437,126.981771 33.5197135,127.113281 34.0171094,127.113281 Z M34.3100781,126.320312 C34.1095573,126.320312 33.9507031,126.261719 33.8335156,126.144531 C33.7163281,126.027344 33.6577344,125.869792 33.6577344,125.671875 C33.6577344,125.40625 33.7423698,125.21875 33.9116406,125.109375 C34.0809115,125 34.3790885,124.945312 34.8061719,124.945312 L34.8061719,124.945312 L35.2632031,124.945312 L35.2632031,125.023437 C35.2632031,125.432292 35.1798698,125.750651 35.0132031,125.978516 C34.8465365,126.20638 34.6121615,126.320312 34.3100781,126.320312 Z M41.1196094,127 L41.1196094,126.121094 L40.2407031,126.121094 C40.019349,126.121094 39.8611458,126.078776 39.7660937,125.994141 C39.6710417,125.909505 39.6235156,125.769531 39.6235156,125.574219 L39.6235156,125.574219 L39.6235156,123.503906 L41.1196094,123.503906 L41.1196094,122.625 L39.6235156,122.625 L39.6235156,121.382812 L38.4789844,121.382812 L38.4789844,122.625 L37.3617969,122.625 L37.3617969,123.503906 L38.4789844,123.503906 L38.4789844,125.519531 C38.4789844,126.08724 38.5948698,126.475911 38.8266406,126.685547 C39.0584115,126.895182 39.5024219,127 40.1586719,127 L40.1586719,127 L41.1196094,127 Z M44.1752344,127.113281 C44.7689844,127.113281 45.2136458,127.000651 45.5092187,126.775391 C45.8047917,126.55013 45.9525781,126.21224 45.9525781,125.761719 C45.9525781,125.386719 45.8555729,125.089193 45.6615625,124.869141 C45.4675521,124.649089 45.1622135,124.489583 44.7455469,124.390625 L44.7455469,124.390625 L44.4174219,124.3125 L44.3744531,124.300781 C43.8171615,124.170573 43.5385156,124.001302 43.5385156,123.792969 C43.5385156,123.647135 43.6036198,123.537109 43.7338281,123.462891 C43.8640365,123.388672 44.0567448,123.351562 44.3119531,123.351562 C44.5411198,123.351562 44.7696354,123.386068 44.9975,123.455078 C45.2253646,123.524089 45.4447656,123.626302 45.6557031,123.761719 L45.6557031,123.761719 L45.6557031,122.761719 C45.4239323,122.68099 45.185,122.620443 44.9389062,122.580078 C44.6928125,122.539714 44.4460677,122.519531 44.1986719,122.519531 C43.6465885,122.519531 43.2182031,122.636719 42.9135156,122.871094 C42.6088281,123.105469 42.4564844,123.433594 42.4564844,123.855469 C42.4564844,124.209635 42.5567448,124.492187 42.7572656,124.703125 C42.9577865,124.914062 43.2767969,125.06901 43.7142969,125.167969 L43.7142969,125.167969 L44.0307031,125.238281 C44.3978906,125.326823 44.6303125,125.410156 44.7279687,125.488281 C44.825625,125.566406 44.8744531,125.678385 44.8744531,125.824219 C44.8744531,125.972656 44.8054427,126.085937 44.6674219,126.164062 C44.529401,126.242187 44.326276,126.28125 44.0580469,126.28125 C43.8132552,126.28125 43.56,126.24349 43.2982812,126.167969 C43.0365625,126.092448 42.779401,125.983073 42.5267969,125.839844 L42.5267969,125.839844 L42.5267969,126.839844 C42.810651,126.93099 43.090599,126.999349 43.3666406,127.044922 C43.6426823,127.090495 43.9122135,127.113281 44.1752344,127.113281 Z" id="Slats" fill="#BC917A" fill-rule="nonzero" transform="translate(34.407734, 124.017578) rotate(8.000000) translate(-34.407734, -124.017578) "></path>
    </g>
</svg>