<?xml version="1.0" encoding="UTF-8"?>
<svg width="421px" height="479px" viewBox="0 0 421 479" version="1.1" xmlns="http://www.w3.org/2000/svg" xmlns:xlink="http://www.w3.org/1999/xlink">
    <title>timer</title>
    <g id="Page-1" stroke="none" stroke-width="1" fill="none" fill-rule="evenodd">
        <g id="timer" transform="translate(0.824719, 0.500000)" fill="#FFFFFF" fill-rule="nonzero">
            <path d="M343.465281,63.46 C350.301181,56.628 361.379281,56.628 368.211281,63.46 L391.535281,86.784 C391.539188,86.787906 391.543094,86.791812 391.547,86.795719 L414.879,110.127719 C421.7149,116.963619 421.7149,128.041719 414.879,134.877719 C408.0431,141.709719 396.965,141.709719 390.133,134.877719 L379.258,124.002719 L360.578,142.936719 C390.375,178.413719 408.34,224.206719 408.34,274.166719 C408.34,386.926719 316.93,478.326719 204.17,478.326719 C91.41,478.326719 0,386.920719 0,274.166719 C0,161.406719 91.41,69.996719 204.17,69.996719 C254.35,69.996719 300.326,88.117719 335.86,118.144719 L354.505,99.246719 L343.462,88.203719 C336.6261,81.371719 336.6261,70.289719 343.462,63.453719 L343.465281,63.46 Z M35.894281,256.67 L52.500281,256.67 C62.168281,256.67 70.000281,264.5059 70.000281,274.17 C70.000281,283.8341 62.168281,291.67 52.500281,291.67 L35.894281,291.67 C44.063281,371.119 107.215281,434.28 186.665281,442.44 L186.665281,425.831 C186.665281,416.1669 194.501181,408.331 204.165281,408.331 C213.829381,408.331 221.665281,416.1669 221.665281,425.831 L221.665281,442.44 C301.118281,434.272 364.275281,371.116 372.435281,291.67 L355.830281,291.67 C346.166181,291.67 338.330281,283.8341 338.330281,274.17 C338.330281,264.5059 346.166181,256.67 355.830281,256.67 L372.435281,256.67 C368.368881,217.076 350.654281,181.541 324.044281,154.81 C297.259281,127.904 261.517281,109.982 221.664281,105.892 L221.664281,122.497 C221.664281,132.1611 213.828381,139.997 204.164281,139.997 C194.500181,139.997 186.664281,132.1611 186.664281,122.497 L186.664281,105.892 C107.211281,114.0561 44.054281,177.212 35.894281,256.662 L35.894281,256.67 Z" id="Shape"></path>
            <path d="M147.795281,189.61 C155.838281,184.2506 166.705281,186.4225 172.065281,194.4655 L218.733281,264.4655 C224.092681,272.5046 221.920781,283.3715 213.877781,288.7315 C205.834781,294.0948 194.971781,291.9229 189.611781,283.8799 L142.943781,213.8799 C137.580481,205.8369 139.756281,194.9699 147.795381,189.6099 L147.795281,189.61 Z" id="Path"></path>
            <path d="M173.385281,0 C148.155281,0 128.959281,22.656 133.108281,47.547 L142.682481,105 L265.662481,105 L275.240581,47.547 C279.385081,22.656 260.193581,0 234.959581,0 L173.385281,0 Z" id="Path"></path>
            <path d="M204.175281,151.67 C213.839381,151.67 221.675281,159.502 221.675281,169.17 L221.675281,274.17 C221.675281,283.8341 213.839381,291.67 204.175281,291.67 C194.511181,291.67 186.675281,283.8341 186.675281,274.17 L186.675281,169.17 C186.675281,159.502 194.511181,151.67 204.175281,151.67 Z" id="Path"></path>
        </g>
    </g>
</svg>