<?xml version="1.0" encoding="UTF-8"?>
<svg width="700pt" height="700pt" version="1.1" viewBox="0 0 700 700" xmlns="http://www.w3.org/2000/svg">
 <g fill-rule="evenodd">
  <path d="m489.29 115.96c6.8359-6.832 17.914-6.832 24.746 0l23.324 23.324c0.003907 0.003906 0.007813 0.007812 0.011719 0.011719l23.332 23.332c6.8359 6.8359 6.8359 17.914 0 24.75-6.8359 6.832-17.914 6.832-24.746 0l-10.875-10.875-18.68 18.934c29.797 35.477 47.762 81.27 47.762 131.23 0 112.76-91.41 204.16-204.17 204.16s-204.17-91.406-204.17-204.16c0-112.76 91.41-204.17 204.17-204.17 50.18 0 96.156 18.121 131.69 48.148l18.645-18.898-11.043-11.043c-6.8359-6.832-6.8359-17.914 0-24.75zm-307.57 193.21h16.605c9.668 0 17.5 7.8359 17.5 17.5 0 9.6641-7.832 17.5-17.5 17.5h-16.605c8.168 79.449 71.32 142.61 150.77 150.77v-16.609c0-9.6641 7.8359-17.5 17.5-17.5s17.5 7.8359 17.5 17.5v16.609c79.453-8.168 142.61-71.324 150.77-150.77h-16.605c-9.6641 0-17.5-7.8359-17.5-17.5 0-9.6641 7.8359-17.5 17.5-17.5h16.605c-4.0664-39.594-21.781-75.129-48.391-101.86-26.785-26.906-62.527-44.828-102.38-48.918v16.605c0 9.6641-7.8359 17.5-17.5 17.5s-17.5-7.8359-17.5-17.5v-16.605c-79.453 8.1641-142.61 71.32-150.77 150.77z"/>
  <path d="m293.62 242.11c8.043-5.3594 18.91-3.1875 24.27 4.8555l46.668 70c5.3594 8.0391 3.1875 18.906-4.8555 24.266-8.043 5.3633-18.906 3.1914-24.266-4.8516l-46.668-70c-5.3633-8.043-3.1875-18.91 4.8516-24.27z"/>
  <path d="m319.21 52.5c-25.23 0-44.426 22.656-40.277 47.547l9.5742 57.453h122.98l9.5781-57.453c4.1445-24.891-15.047-47.547-40.281-47.547z"/>
  <path d="m350 204.17c9.6641 0 17.5 7.832 17.5 17.5v105c0 9.6641-7.8359 17.5-17.5 17.5s-17.5-7.8359-17.5-17.5v-105c0-9.668 7.8359-17.5 17.5-17.5z"/>
 </g>
</svg>
